{
.appVersion = "3343";
.formatVersion = 3;
DisplayStrings = (
"AaBbCcDdEeFf
GgHhIiJjKkLlMm
NnOoPpQqRrSs
TtUuVvWwXxYyZz
0123456789
.,:;!¡?¿*#///backslash -–—_   https:////gabrieldrozdov.com// 
(){}[]“”‘’\"'«»‹›@s1&289©®™
|¦†‡¢$€£¥Y¤·•°/.notdef 
+−×÷=≠><≥≤±≈~¬^200%‰ΩƱ π∞∫∏lL∑√∂/dottedCircledot ◌◊
↑↗→↗↘↓↙→←↖↔↕ÆŒÞẞþßæœðƷʒŊŋƏə
̵̶̷̸̧̨̛̭̣̦̱̈̇̀́̋̂̌̆̊̃̄̒̉/strokeshortcomb.R/strokelongcomb.U/strokeshortcomb.g/strokelongcomb.u 
/dieresiscomb.case/dotaccentcomb.case/gravecomb.case/acutecomb.case/hungarumlautcomb.case/circumflexcomb.case/caroncomb.case/brevecomb.case/ringcomb.case/tildecomb.case/macroncomb.case/cedillacomb.case/strokeshortcomb.case/slashshortcomb.case/slashlongcomb.case/commaaccentcomb.loclMAH 
¨˙`´˝ˆˇ˘˚˜¯¸˛",

glyphs = (
{
glyphname = A;
kernLeft = A;
kernRight = A;
lastChange = "2025-08-15 17:48:19 +0000";
layers = (
{
anchors = (
{
name = bottom;
pos = (384,0);
},
{
name = ogonek;
pos = (711,10);
},
{
name = top;
pos = (379,750);
}
);
layerId = m01;
shapes = (
{
closed = 1;
nodes = (
(580,78,l),
(567,58,o),
(544,47,o),
(498,38,c),
(498,0,l),
(777,0,l),
(783,38,l),
(731,43,o),
(703,60,o),
(693,78,c),
(430,750,l),
(330,750,l),
(59,77,l),
(47,55,o),
(23,41,o),
(-15,38,c),
(-15,0,l),
(239,0,l),
(245,38,l),
(195,45,o),
(163,62,o),
(150,80,c),
(229,280,l),
(501,280,l)
);
},
{
closed = 1;
nodes = (
(364,625,l),
(473,350,l),
(256,350,l)
);
}
);
width = 768;
},
{
anchors = (
{
name = bottom;
pos = (431,0);
},
{
name = ogonek;
pos = (775,10);
},
{
name = top;
pos = (431,750);
}
);
layerId = "C36E42DF-D6E4-4FAF-B5BA-99700BA29EB5";
shapes = (
{
closed = 1;
nodes = (
(530,186,l),
(517,168,o),
(500,154,o),
(463,147,c),
(465,0,l),
(847,0,l),
(861,148,l),
(810,153,o),
(787,200,o),
(780,219,cs),
(579,750,l),
(301,750,l),
(87,215,ls),
(74,183,o),
(43,151,o),
(0,148,c),
(0,0,l),
(357,0,l),
(372,147,l),
(333,153,o),
(306,170,o),
(291,193,c),
(305,230,l),
(514,230,l)
);
},
{
closed = 1;
nodes = (
(414,508,l),
(471,350,l),
(352,350,l)
);
}
);
width = 861;
},
{
anchors = (
{
name = bottom;
pos = (395,0);
},
{
name = ogonek;
pos = (723,10);
},
{
name = top;
pos = (395,750);
}
);
background = {
shapes = (
{
closed = 1;
nodes = (
(685,34,ls),
(695,8,o),
(634,8,o),
(584,8,c),
(584,0,l),
(801,0,l),
(805,8,l),
(755,8,o),
(717,8,o),
(707,34,cs),
(421,750,l),
(399,750,l),
(117,34,ls),
(107,8,o),
(65,8,o),
(15,8,c),
(15,0,l),
(230,0,l),
(234,8,l),
(184,8,o),
(123,8,o),
(133,34,cs),
(407,730,l)
);
}
);
};
layerId = "9E464B93-4987-4E25-B327-76BD95426741";
shapes = (
{
closed = 1;
nodes = (
(670,34,ls),
(680,8,o),
(619,8,o),
(569,8,c),
(569,0,l),
(786,0,l),
(790,8,l),
(740,8,o),
(702,8,o),
(692,34,cs),
(406,750,l),
(384,750,l),
(102,34,ls),
(92,8,o),
(50,8,o),
(0,8,c),
(0,0,l),
(215,0,l),
(219,8,l),
(169,8,o),
(108,8,o),
(118,34,cs),
(226,309,l),
(560,309,l)
);
},
{
closed = 1;
nodes = (
(392,730,l),
(556,320,l),
(231,320,l)
);
}
);
width = 790;
},
{
anchors = (
{
name = bottom;
pos = (328,0);
},
{
name = ogonek;
pos = (639,10);
},
{
name = top;
pos = (328,750);
}
);
layerId = "BABFB3A0-9CFA-45ED-BD0F-DD711F12EEFF";
shapes = (
{
closed = 1;
nodes = (
(511,150,l),
(540,75,o),
(557,30,o),
(569,0,c),
(569,0,l),
(661,0,l),
(661,0,l),
(649,30,o),
(632,75,o),
(603,150,c),
(373,750,l),
(283,750,l),
(53,150,l),
(24,75,o),
(7,30,o),
(-5,0,c),
(-5,0,l),
(87,0,l),
(87,0,l),
(99,30,o),
(116,75,o),
(145,150,c),
(191,270,l),
(465,270,l)
);
},
{
closed = 1;
nodes = (
(328,630,l),
(435,350,l),
(221,350,l)
);
}
);
width = 656;
},
{
anchors = (
{
name = bottom;
pos = (414,0);
},
{
name = ogonek;
pos = (745,10);
},
{
name = top;
pos = (414,750);
}
);
layerId = "C8CD87A0-2407-4F05-BADA-4D8336545B60";
shapes = (
{
closed = 1;
nodes = (
(526,150,ls),
(551,74,o),
(565,30,o),
(574,0,c),
(574,0,l),
(833,0,l),
(833,0,l),
(824,30,o),
(809,76,o),
(783,150,cs),
(575,750,l),
(253,750,l),
(45,150,ls),
(19,76,o),
(4,30,o),
(-5,0,c),
(-5,0,l),
(254,0,l),
(254,0,l),
(263,30,o),
(277,74,o),
(302,150,cs),
(312,180,l),
(516,180,l)
);
},
{
closed = 1;
nodes = (
(414,531,l),
(472,340,l),
(356,340,l)
);
}
);
width = 828;
},
{
anchors = (
{
name = bottom;
pos = (315,0);
},
{
name = ogonek;
pos = (579,10);
},
{
name = top;
pos = (315,750);
}
);
background = {
shapes = (
{
closed = 1;
nodes = (
(594,60,ls),
(606,30,o),
(614,10,o),
(618,0,c),
(618,0,l),
(635,0,l),
(635,0,l),
(631,10,o),
(623,30,o),
(611,60,cs),
(339,750,l),
(321,750,l),
(49,60,ls),
(37,30,o),
(29,10,o),
(25,0,c),
(25,0,l),
(42,0,l),
(42,0,l),
(46,10,o),
(54,30,o),
(66,60,cs),
(330,730,l)
);
}
);
};
layerId = "48DAC09D-95D4-4D70-8D14-87ABECD8575B";
shapes = (
{
closed = 1;
nodes = (
(583,50,ls),
(593,25,o),
(597,15,o),
(603,0,c),
(603,0,l),
(620,0,l),
(620,0,l),
(614,15,o),
(610,25,o),
(600,50,cs),
(324,750,l),
(306,750,l),
(30,50,ls),
(20,25,o),
(16,15,o),
(10,0,c),
(10,0,l),
(27,0,l),
(27,0,l),
(33,15,o),
(37,25,o),
(47,50,cs),
(150,311,l),
(480,311,l)
);
},
{
closed = 1;
nodes = (
(315,730,l),
(475,325,l),
(155,325,l)
);
}
);
width = 630;
}
);
unicode = 65;
},
{
glyphname = AE;
lastChange = "2025-08-15 17:48:19 +0000";
layers = (
{
layerId = "9E464B93-4987-4E25-B327-76BD95426741";
shapes = (
{
closed = 1;
nodes = (
(727,411,l),
(727,680,l),
(945,680,ls),
(1009,680,o),
(1014,608,o),
(1014,575,c),
(1067,563,l),
(1089,739,l),
(1074,750,l),
(499,750,l),
(493,712,l),
(518,709,o),
(545,702,o),
(568,691,c),
(89,77,l),
(68,55,o),
(39,41,o),
(0,38,c),
(0,0,l),
(276,0,l),
(282,38,l),
(232,45,o),
(200,62,o),
(187,80,c),
(342,280,l),
(615,280,l),
(616,78,l),
(595,58,o),
(571,47,o),
(522,38,c),
(522,0,l),
(1064,0,l),
(1119,174,l),
(1069,192,l),
(1045,119,o),
(995,70,o),
(926,70,cs),
(727,70,l),
(727,341,l),
(959,341,l),
(959,411,l)
);
},
{
closed = 1;
nodes = (
(611,625,l),
(614,350,l),
(397,350,l)
);
}
);
width = 1164;
},
{
layerId = "48DAC09D-95D4-4D70-8D14-87ABECD8575B";
shapes = (
{
closed = 1;
nodes = (
(692,416,l),
(692,670,l),
(799,670,ls),
(949,670,o),
(1019,670,o),
(1049,670,c),
(1049,670,l),
(1049,750,l),
(1049,750,l),
(590,750,l),
(590,750,l),
(567,720,o),
(528,670,o),
(474,600,cs),
(126,150,ls),
(68,75,o),
(32,29,o),
(10,0,c),
(10,0,l),
(118,0,l),
(118,0,l),
(141,30,o),
(176,75,o),
(234,150,cs),
(327,270,l),
(602,270,l),
(602,78,l),
(602,51,o),
(602,29,o),
(602,0,c),
(602,0,l),
(1049,0,l),
(1049,80,l),
(1049,80,l),
(1019,80,o),
(949,80,o),
(799,80,cs),
(692,80,l),
(692,336,l),
(924,336,l),
(924,416,l)
);
},
{
closed = 1;
nodes = (
(602,625,l),
(602,350,l),
(388,350,l)
);
}
);
width = 1114;
},
{
layerId = m01;
shapes = (
{
closed = 1;
nodes = (
(712,411,l),
(712,680,l),
(930,680,ls),
(994,680,o),
(999,608,o),
(999,575,c),
(1052,563,l),
(1074,739,l),
(1059,750,l),
(484,750,l),
(478,712,l),
(503,709,o),
(530,702,o),
(553,691,c),
(74,77,l),
(53,55,o),
(24,41,o),
(-15,38,c),
(-15,0,l),
(261,0,l),
(267,38,l),
(217,45,o),
(185,62,o),
(172,80,c),
(327,280,l),
(600,280,l),
(601,78,l),
(580,58,o),
(556,47,o),
(507,38,c),
(507,0,l),
(1049,0,l),
(1104,174,l),
(1054,192,l),
(1030,119,o),
(980,70,o),
(911,70,cs),
(712,70,l),
(712,341,l),
(944,341,l),
(944,411,l)
);
},
{
closed = 1;
nodes = (
(596,625,l),
(599,350,l),
(382,350,l)
);
}
);
width = 1134;
},
{
layerId = "BABFB3A0-9CFA-45ED-BD0F-DD711F12EEFF";
shapes = (
{
closed = 1;
nodes = (
(677,416,l),
(677,670,l),
(784,670,ls),
(934,670,o),
(1004,670,o),
(1034,670,c),
(1034,670,l),
(1034,750,l),
(1034,750,l),
(575,750,l),
(575,750,l),
(552,720,o),
(513,670,o),
(459,600,cs),
(111,150,ls),
(53,75,o),
(17,29,o),
(-5,0,c),
(-5,0,l),
(103,0,l),
(103,0,l),
(126,30,o),
(161,75,o),
(219,150,cs),
(312,270,l),
(587,270,l),
(587,78,l),
(587,51,o),
(587,29,o),
(587,0,c),
(587,0,l),
(1034,0,l),
(1034,80,l),
(1034,80,l),
(1004,80,o),
(934,80,o),
(784,80,cs),
(677,80,l),
(677,336,l),
(909,336,l),
(909,416,l)
);
},
{
closed = 1;
nodes = (
(587,625,l),
(587,350,l),
(373,350,l)
);
}
);
width = 1084;
},
{
layerId = "C36E42DF-D6E4-4FAF-B5BA-99700BA29EB5";
shapes = (
{
closed = 1;
nodes = (
(727,411,l),
(727,680,l),
(945,680,ls),
(1009,680,o),
(1014,608,o),
(1014,575,c),
(1067,563,l),
(1089,739,l),
(1074,750,l),
(499,750,l),
(493,712,l),
(518,709,o),
(545,702,o),
(568,691,c),
(89,77,l),
(68,55,o),
(39,41,o),
(0,38,c),
(0,0,l),
(276,0,l),
(282,38,l),
(232,45,o),
(200,62,o),
(187,80,c),
(342,280,l),
(615,280,l),
(616,78,l),
(595,58,o),
(571,47,o),
(522,38,c),
(522,0,l),
(1064,0,l),
(1119,174,l),
(1069,192,l),
(1045,119,o),
(995,70,o),
(926,70,cs),
(727,70,l),
(727,341,l),
(959,341,l),
(959,411,l)
);
},
{
closed = 1;
nodes = (
(611,625,l),
(614,350,l),
(397,350,l)
);
}
);
width = 1139;
},
{
layerId = "C8CD87A0-2407-4F05-BADA-4D8336545B60";
shapes = (
{
closed = 1;
nodes = (
(827,470,l),
(827,540,l),
(933,540,ls),
(1083,540,o),
(1153,540,o),
(1183,540,c),
(1183,540,l),
(1183,750,l),
(1183,750,l),
(575,750,l),
(575,750,l),
(552,720,o),
(513,670,o),
(459,600,cs),
(111,150,ls),
(53,75,o),
(17,29,o),
(-5,0,c),
(-5,0,l),
(103,0,l),
(103,0,l),
(126,30,o),
(161,75,o),
(219,150,cs),
(312,270,l),
(587,270,l),
(587,78,l),
(587,51,o),
(587,29,o),
(587,0,c),
(587,0,l),
(1183,0,l),
(1183,210,l),
(1183,210,l),
(1153,210,o),
(1083,210,o),
(933,210,cs),
(827,210,l),
(827,280,l),
(1007,280,l),
(1007,470,l)
);
},
{
closed = 1;
nodes = (
(587,625,l),
(587,350,l),
(373,350,l)
);
}
);
width = 1213;
}
);
metricLeft = "=A";
metricRight = "=E";
unicode = 198;
},
{
glyphname = B;
kernRight = B;
lastChange = "2025-08-15 17:48:19 +0000";
layers = (
{
anchors = (
{
name = bottom;
pos = (337,0);
},
{
name = center;
pos = (179,225);
},
{
name = top;
pos = (337,750);
}
);
layerId = m01;
metricLeft = "=H";
metricRight = "=O+5";
shapes = (
{
closed = 1;
nodes = (
(368,0,ls),
(501,0,o),
(626,68,o),
(629,218,cs),
(631,324,o),
(510,393,o),
(436,412,c),
(520,450,o),
(576,508,o),
(576,601,cs),
(576,695,o),
(492,750,o),
(385,750,cs),
(47,750,l),
(41,712,l),
(101,693,o),
(130,669,o),
(130,638,cs),
(130,123,ls),
(130,78,o),
(100,56,o),
(40,38,c),
(40,0,l)
);
},
{
closed = 1;
nodes = (
(294,70,o),
(235,72,o),
(235,104,cs),
(235,361,l),
(354,361,ls),
(440,361,o),
(520,305,o),
(520,203,cs),
(520,126,o),
(461,70,o),
(386,70,cs)
);
},
{
closed = 1;
nodes = (
(235,680,l),
(335,680,ls),
(412,680,o),
(469,647,o),
(469,564,cs),
(469,476,o),
(409,431,o),
(327,431,cs),
(235,431,l)
);
}
);
width = 674;
},
{
anchors = (
{
name = bottom;
pos = (374,0);
},
{
name = center;
pos = (374,375);
},
{
name = top;
pos = (374,750);
}
);
layerId = "C36E42DF-D6E4-4FAF-B5BA-99700BA29EB5";
metricLeft = "=H";
metricRight = "=O+5";
shapes = (
{
closed = 1;
nodes = (
(433,0,ls),
(576,0,o),
(708,58,o),
(713,198,cs),
(716,287,o),
(664,375,o),
(541,408,c),
(625,436,o),
(681,488,o),
(681,581,cs),
(681,665,o),
(607,750,o),
(480,750,cs),
(52,750,l),
(36,602,l),
(61,583,o),
(90,559,o),
(90,498,cs),
(90,262,ls),
(90,178,o),
(71,164,o),
(30,148,c),
(30,0,l)
);
},
{
closed = 1;
nodes = (
(332,179,o),
(330,180,o),
(330,215,cs),
(330,310,l),
(403,310,ls),
(456,310,o),
(496,284,o),
(496,243,cs),
(496,204,o),
(469,179,o),
(409,179,cs)
);
},
{
closed = 1;
nodes = (
(330,576,l),
(403,576,ls),
(459,576,o),
(491,558,o),
(491,513,cs),
(491,470,o),
(457,445,o),
(397,445,cs),
(330,445,l)
);
}
);
width = 748;
},
{
anchors = (
{
name = bottom;
pos = (314,0);
},
{
name = center;
pos = (314,375);
},
{
name = top;
pos = (314,750);
}
);
layerId = "9E464B93-4987-4E25-B327-76BD95426741";
metricLeft = "=H";
metricRight = "=O+5";
shapes = (
{
closed = 1;
nodes = (
(298,0,ls),
(471,0,o),
(564,82,o),
(567,212,cs),
(569,318,o),
(470,392,o),
(346,401,c),
(450,429,o),
(516,499,o),
(516,582,cs),
(516,676,o),
(462,750,o),
(325,750,cs),
(59,750,l),
(55,742,l),
(105,742,o),
(155,742,o),
(155,712,cs),
(155,38,ls),
(155,8,o),
(105,8,o),
(55,8,c),
(55,0,l)
);
},
{
closed = 1;
nodes = (
(217,11,o),
(175,11,o),
(175,38,cs),
(175,391,l),
(294,391,ls),
(480,391,o),
(545,299,o),
(545,197,cs),
(545,100,o),
(454,11,o),
(309,11,cs)
);
},
{
closed = 1;
nodes = (
(175,739,l),
(305,739,ls),
(452,739,o),
(497,647,o),
(497,574,cs),
(497,486,o),
(399,402,o),
(287,402,cs),
(175,402,l)
);
}
);
width = 627;
},
{
anchors = (
{
name = bottom;
pos = (301,0);
},
{
name = center;
pos = (119,214);
},
{
name = top;
pos = (301,750);
}
);
layerId = "BABFB3A0-9CFA-45ED-BD0F-DD711F12EEFF";
metricLeft = "=N";
metricRight = "=O-5";
shapes = (
{
closed = 1;
nodes = (
(328,0,ls),
(461,0,o),
(549,92,o),
(549,215,cs),
(549,339,o),
(466,388,o),
(401,402,c),
(463,418,o),
(515,481,o),
(515,561,cs),
(515,673,o),
(434,750,o),
(310,750,cs),
(70,750,l),
(70,750,l),
(70,720,o),
(70,650,o),
(70,500,cs),
(70,250,ls),
(70,100,o),
(70,30,o),
(70,0,c),
(70,0,l)
);
},
{
closed = 1;
nodes = (
(253,80,o),
(160,80,o),
(160,80,c),
(160,351,l),
(328,351,ls),
(403,351,o),
(463,291,o),
(463,215,cs),
(463,138,o),
(403,80,o),
(328,80,cs)
);
},
{
closed = 1;
nodes = (
(160,670,l),
(310,670,ls),
(376,670,o),
(429,616,o),
(429,551,cs),
(429,484,o),
(376,431,o),
(310,431,cs),
(160,431,l)
);
}
);
width = 584;
},
{
anchors = (
{
name = bottom;
pos = (360,0);
},
{
name = center;
pos = (360,375);
},
{
name = top;
pos = (360,750);
}
);
layerId = "C8CD87A0-2407-4F05-BADA-4D8336545B60";
metricLeft = "=N";
metricRight = "=O-5";
shapes = (
{
closed = 1;
nodes = (
(463,0,ls),
(596,0,o),
(684,92,o),
(684,215,cs),
(684,339,o),
(601,388,o),
(536,402,c),
(598,418,o),
(650,481,o),
(650,561,cs),
(650,673,o),
(569,750,o),
(445,750,cs),
(50,750,l),
(50,750,l),
(50,720,o),
(50,650,o),
(50,500,cs),
(50,250,ls),
(50,100,o),
(50,30,o),
(50,0,c),
(50,0,l)
);
},
{
closed = 1;
nodes = (
(325,192,o),
(285,192,o),
(285,192,c),
(285,311,l),
(394,311,ls),
(427,311,o),
(453,285,o),
(453,251,cs),
(453,218,o),
(427,192,o),
(394,192,cs)
);
},
{
closed = 1;
nodes = (
(285,564,l),
(390,564,ls),
(423,564,o),
(448,538,o),
(448,506,cs),
(448,472,o),
(423,447,o),
(390,447,cs),
(285,447,l)
);
}
);
width = 699;
},
{
anchors = (
{
name = bottom;
pos = (279,0);
},
{
name = center;
pos = (279,375);
},
{
name = top;
pos = (279,750);
}
);
layerId = "48DAC09D-95D4-4D70-8D14-87ABECD8575B";
metricLeft = "=N";
metricRight = "=O-5";
shapes = (
{
closed = 1;
nodes = (
(304,0,ls),
(417,0,o),
(508,86,o),
(508,205,cs),
(508,329,o),
(430,396,o),
(334,402,c),
(379,410,o),
(458,472,o),
(458,572,cs),
(458,669,o),
(376,750,o),
(279,750,cs),
(85,750,l),
(85,750,l),
(85,720,o),
(85,700,o),
(85,650,cs),
(85,100,ls),
(85,50,o),
(85,30,o),
(85,0,c),
(85,0,l)
);
},
{
closed = 1;
nodes = (
(190,14,o),
(101,14,o),
(101,14,c),
(101,391,l),
(304,391,ls),
(437,391,o),
(492,307,o),
(492,202,cs),
(492,94,o),
(408,14,o),
(304,14,cs)
);
},
{
closed = 1;
nodes = (
(101,736,l),
(279,736,ls),
(369,736,o),
(442,661,o),
(442,571,cs),
(442,481,o),
(369,405,o),
(279,405,cs),
(101,405,l)
);
}
);
width = 558;
}
);
metricLeft = "=N";
metricRight = "=O-5";
unicode = 66;
},
{
glyphname = C;
kernLeft = C;
lastChange = "2025-08-15 17:48:19 +0000";
layers = (
{
anchors = (
{
name = bottom;
pos = (386,0);
},
{
name = top;
pos = (366,750);
}
);
layerId = m01;
metricLeft = "=O";
metricRight = "=H+10";
shapes = (
{
closed = 1;
nodes = (
(536,-10,o),
(609,28,o),
(663,75,c),
(682,238,l),
(631,239,l),
(617,149,o),
(583,67,o),
(455,67,cs),
(254,67,o),
(154,222,o),
(154,412,cs),
(154,577,o),
(259,682,o),
(407,682,cs),
(572,682,o),
(627,629,o),
(607,494,c),
(658,487,l),
(681,673,l),
(618,736,o),
(528,760,o),
(427,760,cs),
(244,760,o),
(40,588,o),
(40,354,cs),
(40,156,o),
(160,-10,o),
(398,-10,cs)
);
}
);
width = 732;
},
{
anchors = (
{
name = bottom;
pos = (405,0);
},
{
name = top;
pos = (405,750);
}
);
layerId = "C36E42DF-D6E4-4FAF-B5BA-99700BA29EB5";
metricLeft = "=O";
metricRight = "=H+10";
shapes = (
{
closed = 1;
nodes = (
(562,-10,o),
(686,59,o),
(750,106,c),
(770,313,l),
(557,317,l),
(545,236,o),
(485,198,o),
(439,198,cs),
(361,198,o),
(300,271,o),
(300,399,cs),
(300,482,o),
(347,552,o),
(420,552,cs),
(484,552,o),
(537,500,o),
(537,441,c),
(750,432,l),
(750,651,l),
(677,714,o),
(536,760,o),
(435,760,cs),
(203,760,o),
(30,588,o),
(30,354,cs),
(30,156,o),
(170,-10,o),
(424,-10,cs)
);
}
);
width = 810;
},
{
anchors = (
{
name = bottom;
pos = (375,0);
},
{
name = top;
pos = (375,750);
}
);
layerId = "9E464B93-4987-4E25-B327-76BD95426741";
metricLeft = "=O";
metricRight = "=H+10";
shapes = (
{
closed = 1;
nodes = (
(563,-10,o),
(629,43,o),
(669,74,c),
(684,171,l),
(673,171,l),
(658,83,o),
(602,5,o),
(432,5,cs),
(220,5,o),
(76,185,o),
(76,386,cs),
(76,577,o),
(236,745,o),
(422,745,cs),
(614,745,o),
(667,666,o),
(658,571,c),
(668,570,l),
(679,659,l),
(644,718,o),
(558,760,o),
(437,760,cs),
(234,760,o),
(55,588,o),
(55,354,cs),
(55,166,o),
(210,-10,o),
(421,-10,cs)
);
}
);
width = 749;
},
{
anchors = (
{
name = bottom;
pos = (407,0);
},
{
name = top;
pos = (407,750);
}
);
layerId = "BABFB3A0-9CFA-45ED-BD0F-DD711F12EEFF";
metricLeft = "=O";
metricRight = "=O";
shapes = (
{
closed = 1;
nodes = (
(569,-10,o),
(666,74,o),
(729,185,c),
(654,230,l),
(654,230,l),
(598,145,o),
(538,74,o),
(407,74,cs),
(246,74,o),
(130,214,o),
(130,375,cs),
(130,540,o),
(246,676,o),
(407,676,cs),
(529,676,o),
(608,593,o),
(652,502,c),
(652,502,l),
(729,549,l),
(659,684,o),
(549,760,o),
(407,760,cs),
(194,760,o),
(40,588,o),
(40,374,cs),
(40,162,o),
(194,-10,o),
(407,-10,cs)
);
}
);
width = 769;
},
{
anchors = (
{
name = bottom;
pos = (395,0);
},
{
name = top;
pos = (395,750);
}
);
layerId = "C8CD87A0-2407-4F05-BADA-4D8336545B60";
metricLeft = "=O";
metricRight = "=O";
shapes = (
{
closed = 1;
nodes = (
(587,-10,o),
(703,77,o),
(769,188,c),
(565,316,l),
(565,316,l),
(522,248,o),
(474,213,o),
(415,213,cs),
(337,213,o),
(263,275,o),
(263,375,cs),
(263,475,o),
(337,537,o),
(415,537,cs),
(479,537,o),
(527,495,o),
(563,418,c),
(563,418,l),
(769,535,l),
(716,663,o),
(579,760,o),
(415,760,cs),
(202,760,o),
(20,598,o),
(20,375,cs),
(20,152,o),
(202,-10,o),
(415,-10,cs)
);
}
);
width = 789;
},
{
anchors = (
{
name = bottom;
pos = (398,0);
},
{
name = top;
pos = (398,750);
}
);
layerId = "48DAC09D-95D4-4D70-8D14-87ABECD8575B";
metricLeft = "=O";
metricRight = "=O";
shapes = (
{
closed = 1;
nodes = (
(582,-10,o),
(677,74,o),
(740,185,c),
(726,195,l),
(726,195,l),
(666,88,o),
(572,6,o),
(422,6,cs),
(219,6,o),
(71,172,o),
(71,375,cs),
(71,582,o),
(219,744,o),
(422,744,cs),
(562,744,o),
(663,661,o),
(726,539,c),
(726,539,l),
(740,549,l),
(670,684,o),
(562,760,o),
(420,760,cs),
(207,760,o),
(55,588,o),
(55,374,cs),
(55,162,o),
(207,-10,o),
(420,-10,cs)
);
}
);
width = 795;
}
);
metricLeft = "=O";
metricRight = "=O";
unicode = 67;
},
{
glyphname = D;
kernRight = D;
lastChange = "2025-08-15 17:48:19 +0000";
layers = (
{
anchors = (
{
name = bottom;
pos = (411,0);
},
{
name = center;
pos = (190,375);
},
{
name = top;
pos = (411,750);
}
);
layerId = m01;
metricLeft = "=H";
metricRight = "=O";
shapes = (
{
closed = 1;
nodes = (
(568,0,o),
(782,162,o),
(782,396,cs),
(782,594,o),
(652,750,o),
(414,750,cs),
(47,750,l),
(41,712,l),
(101,693,o),
(130,669,o),
(130,638,cs),
(130,123,ls),
(130,78,o),
(100,56,o),
(40,38,c),
(40,0,l),
(385,0,l)
);
},
{
closed = 1;
nodes = (
(235,680,l),
(357,680,ls),
(573,680,o),
(661,540,o),
(661,350,cs),
(661,185,o),
(526,70,o),
(347,70,cs),
(261,70,o),
(235,75,o),
(235,126,c)
);
}
);
width = 822;
},
{
anchors = (
{
name = bottom;
pos = (428,0);
},
{
name = center;
pos = (428,375);
},
{
name = top;
pos = (428,750);
}
);
layerId = "C36E42DF-D6E4-4FAF-B5BA-99700BA29EB5";
metricLeft = "=H";
metricRight = "=O";
shapes = (
{
closed = 1;
nodes = (
(611,0,o),
(825,162,o),
(825,396,cs),
(825,594,o),
(695,750,o),
(457,750,cs),
(52,750,l),
(36,602,l),
(61,583,o),
(90,559,o),
(90,498,cs),
(90,262,ls),
(90,178,o),
(71,164,o),
(30,148,c),
(30,0,l),
(428,0,l)
);
},
{
closed = 1;
nodes = (
(330,538,l),
(396,538,ls),
(520,538,o),
(557,463,o),
(557,361,cs),
(557,273,o),
(495,212,o),
(389,212,cs),
(344,212,o),
(330,231,o),
(330,287,c)
);
}
);
width = 855;
},
{
anchors = (
{
name = bottom;
pos = (390,0);
},
{
name = center;
pos = (390,375);
},
{
name = top;
pos = (390,750);
}
);
layerId = "9E464B93-4987-4E25-B327-76BD95426741";
metricLeft = "=N";
metricRight = "=O";
shapes = (
{
closed = 1;
nodes = (
(537,0,o),
(724,162,o),
(724,396,cs),
(724,584,o),
(591,750,o),
(413,750,cs),
(59,750,l),
(55,742,l),
(105,742,o),
(155,742,o),
(155,712,cs),
(155,38,ls),
(155,8,o),
(105,8,o),
(55,8,c),
(55,0,l),
(344,0,l)
);
},
{
closed = 1;
nodes = (
(175,739,l),
(389,739,ls),
(586,739,o),
(701,552,o),
(701,374,cs),
(701,173,o),
(534,11,o),
(352,11,cs),
(175,11,o),
(175,11,o),
(175,38,c)
);
}
);
width = 779;
},
{
anchors = (
{
name = bottom;
pos = (356,0);
},
{
name = center;
pos = (117,375);
},
{
name = top;
pos = (356,750);
}
);
layerId = "BABFB3A0-9CFA-45ED-BD0F-DD711F12EEFF";
metricLeft = "=N";
metricRight = "=O";
shapes = (
{
closed = 1;
nodes = (
(504,0,o),
(672,168,o),
(672,375,cs),
(672,582,o),
(504,750,o),
(297,750,cs),
(70,750,l),
(70,750,l),
(70,720,o),
(70,650,o),
(70,500,cs),
(70,250,ls),
(70,100,o),
(70,30,o),
(70,0,c),
(70,0,l),
(297,0,l)
);
},
{
closed = 1;
nodes = (
(160,670,l),
(289,670,ls),
(472,670,o),
(585,517,o),
(585,375,cs),
(585,233,o),
(472,80,o),
(289,80,cs),
(289,80,o),
(160,80,o),
(160,80,c)
);
}
);
width = 712;
},
{
anchors = (
{
name = bottom;
pos = (391,0);
},
{
name = center;
pos = (391,375);
},
{
name = top;
pos = (391,750);
}
);
layerId = "C8CD87A0-2407-4F05-BADA-4D8336545B60";
metricLeft = "=N";
metricRight = "=O";
shapes = (
{
closed = 1;
nodes = (
(574,0,o),
(742,168,o),
(742,375,cs),
(742,582,o),
(574,750,o),
(377,750,cs),
(50,750,l),
(50,750,l),
(50,720,o),
(50,650,o),
(50,500,cs),
(50,250,ls),
(50,100,o),
(50,30,o),
(50,0,c),
(50,0,l),
(377,0,l)
);
},
{
closed = 1;
nodes = (
(290,520,l),
(367,520,ls),
(457,520,o),
(492,445,o),
(492,375,cs),
(492,305,o),
(457,230,o),
(367,230,cs),
(367,230,o),
(290,230,o),
(290,230,c)
);
}
);
width = 762;
},
{
anchors = (
{
name = bottom;
pos = (364,0);
},
{
name = center;
pos = (364,375);
},
{
name = top;
pos = (364,750);
}
);
layerId = "48DAC09D-95D4-4D70-8D14-87ABECD8575B";
metricLeft = "=N";
metricRight = "=O";
shapes = (
{
closed = 1;
nodes = (
(504,0,o),
(672,168,o),
(672,375,cs),
(672,582,o),
(504,750,o),
(297,750,cs),
(85,750,l),
(85,750,l),
(85,720,o),
(85,700,o),
(85,650,cs),
(85,100,ls),
(85,50,o),
(85,30,o),
(85,0,c),
(85,0,l),
(297,0,l)
);
},
{
closed = 1;
nodes = (
(101,736,l),
(293,736,ls),
(516,736,o),
(656,549,o),
(656,375,cs),
(656,201,o),
(516,14,o),
(293,14,cs),
(293,14,o),
(101,14,o),
(101,14,c)
);
}
);
width = 727;
}
);
metricLeft = "=N";
metricRight = "=O";
unicode = 68;
},
{
glyphname = Dhook;
lastChange = "2025-08-15 17:48:19 +0000";
layers = (
{
layerId = "9E464B93-4987-4E25-B327-76BD95426741";
shapes = (
{
closed = 1;
nodes = (
(8,538,l),
(-8,553,o),
(-35,586,o),
(-35,615,cs),
(-35,651,o),
(-4,680,o),
(45,680,cs),
(84,680,o),
(125,662,o),
(125,624,c),
(125,750,l),
(41,750,ls),
(-29,750,o),
(-108,713,o),
(-108,642,cs),
(-108,581,o),
(-44,529,o),
(-19,522,c)
);
},
{
ref = D;
}
);
width = 779;
},
{
layerId = "48DAC09D-95D4-4D70-8D14-87ABECD8575B";
shapes = (
{
closed = 1;
nodes = (
(25,553,l),
(-1,572,o),
(-18,599,o),
(-18,626,cs),
(-18,655,o),
(6,670,o),
(35,670,cs),
(84,670,o),
(100,670,o),
(125,670,c),
(125,750,l),
(31,750,ls),
(-49,750,o),
(-108,706,o),
(-108,627,cs),
(-108,561,o),
(-66,522,o),
(-35,496,c)
);
},
{
ref = D;
}
);
width = 727;
},
{
layerId = m01;
shapes = (
{
closed = 1;
nodes = (
(13,538,l),
(-3,553,o),
(-30,586,o),
(-30,615,cs),
(-30,651,o),
(1,680,o),
(50,680,cs),
(89,680,o),
(130,662,o),
(130,624,c),
(130,750,l),
(46,750,ls),
(-24,750,o),
(-103,713,o),
(-103,642,cs),
(-103,581,o),
(-39,529,o),
(-14,522,c)
);
},
{
ref = D;
}
);
width = 822;
},
{
layerId = "BABFB3A0-9CFA-45ED-BD0F-DD711F12EEFF";
shapes = (
{
closed = 1;
nodes = (
(30,553,l),
(4,572,o),
(-13,599,o),
(-13,626,cs),
(-13,655,o),
(11,670,o),
(40,670,cs),
(89,670,o),
(105,670,o),
(130,670,c),
(130,750,l),
(36,750,ls),
(-44,750,o),
(-103,706,o),
(-103,627,cs),
(-103,561,o),
(-61,522,o),
(-30,496,c)
);
},
{
ref = D;
}
);
width = 712;
},
{
layerId = "C36E42DF-D6E4-4FAF-B5BA-99700BA29EB5";
shapes = (
{
closed = 1;
nodes = (
(23,538,l),
(7,553,o),
(-20,586,o),
(-20,615,cs),
(-20,651,o),
(11,680,o),
(60,680,cs),
(99,680,o),
(140,662,o),
(140,624,c),
(140,750,l),
(56,750,ls),
(-14,750,o),
(-93,713,o),
(-93,642,cs),
(-93,581,o),
(-29,529,o),
(-4,522,c)
);
},
{
ref = D;
}
);
width = 855;
},
{
layerId = "C8CD87A0-2407-4F05-BADA-4D8336545B60";
shapes = (
{
closed = 1;
nodes = (
(40,553,l),
(14,572,o),
(-3,599,o),
(-3,626,cs),
(-3,655,o),
(21,670,o),
(50,670,cs),
(99,670,o),
(115,670,o),
(140,670,c),
(140,750,l),
(46,750,ls),
(-34,750,o),
(-93,706,o),
(-93,627,cs),
(-93,561,o),
(-51,522,o),
(-20,496,c)
);
},
{
ref = D;
}
);
width = 762;
}
);
metricRight = "=D";
unicode = 394;
},
{
glyphname = E;
lastChange = "2025-08-15 17:48:19 +0000";
layers = (
{
anchors = (
{
name = bottom;
pos = (329,0);
},
{
name = ogonek;
pos = (545,10);
},
{
name = top;
pos = (329,750);
},
{
name = topleft;
pos = (10,750);
}
);
layerId = m01;
metricLeft = "=H";
metricRight = "=O-10";
shapes = (
{
closed = 1;
nodes = (
(235,411,l),
(235,680,l),
(453,680,ls),
(517,680,o),
(522,608,o),
(522,575,c),
(575,563,l),
(597,739,l),
(582,750,l),
(47,750,l),
(41,712,l),
(101,693,o),
(130,669,o),
(130,638,cs),
(130,123,ls),
(130,78,o),
(100,56,o),
(40,38,c),
(40,0,l),
(572,0,l),
(627,174,l),
(577,192,l),
(553,119,o),
(503,70,o),
(434,70,cs),
(235,70,l),
(235,341,l),
(467,341,l),
(467,411,l)
);
}
);
width = 657;
},
{
anchors = (
{
name = bottom;
pos = (384,0);
},
{
name = ogonek;
pos = (691,10);
},
{
name = top;
pos = (384,750);
},
{
name = topleft;
pos = (20,750);
}
);
layerId = "C36E42DF-D6E4-4FAF-B5BA-99700BA29EB5";
metricLeft = "=H";
metricRight = "=O-10";
shapes = (
{
closed = 1;
nodes = (
(330,469,l),
(330,546,l),
(494,546,ls),
(555,546,o),
(579,528,o),
(573,485,c),
(706,463,l),
(742,700,l),
(693,750,l),
(52,750,l),
(36,602,l),
(61,583,o),
(90,559,o),
(90,498,cs),
(90,262,ls),
(90,178,o),
(71,164,o),
(30,148,c),
(30,0,l),
(696,0,l),
(748,244,l),
(618,266,l),
(600,211,o),
(557,204,o),
(488,204,cs),
(330,204,l),
(330,285,l),
(510,285,l),
(510,469,l)
);
}
);
width = 768;
},
{
anchors = (
{
name = bottom;
pos = (303,0);
},
{
name = ogonek;
pos = (557,10);
},
{
name = top;
pos = (303,750);
},
{
name = topleft;
pos = (5,750);
}
);
layerId = "9E464B93-4987-4E25-B327-76BD95426741";
metricLeft = "=H";
metricRight = "=O-10";
shapes = (
{
closed = 1;
nodes = (
(175,383,l),
(175,739,l),
(467,739,ls),
(532,739,o),
(540,739,o),
(527,629,c),
(538,625,l),
(552,739,l),
(537,750,l),
(59,750,l),
(55,742,l),
(105,742,o),
(155,742,o),
(155,712,cs),
(155,38,ls),
(155,8,o),
(105,8,o),
(55,8,c),
(55,0,l),
(524,0,l),
(561,116,l),
(551,119,l),
(512,11,o),
(512,11,o),
(442,11,cs),
(175,11,l),
(175,372,l),
(420,372,l),
(420,383,l)
);
}
);
width = 606;
},
{
anchors = (
{
name = bottom;
pos = (294,0);
},
{
name = ogonek;
pos = (495,10);
},
{
name = top;
pos = (294,750);
},
{
name = topleft;
pos = (10,750);
}
);
layerId = "BABFB3A0-9CFA-45ED-BD0F-DD711F12EEFF";
metricLeft = "=N";
metricRight = "=N-20";
shapes = (
{
closed = 1;
nodes = (
(160,416,l),
(160,670,l),
(267,670,ls),
(417,670,o),
(487,670,o),
(517,670,c),
(517,670,l),
(517,750,l),
(517,750,l),
(70,750,l),
(70,750,l),
(70,720,o),
(70,650,o),
(70,500,cs),
(70,250,ls),
(70,100,o),
(70,30,o),
(70,0,c),
(70,0,l),
(517,0,l),
(517,80,l),
(517,80,l),
(487,80,o),
(417,80,o),
(267,80,cs),
(160,80,l),
(160,336,l),
(392,336,l),
(392,416,l)
);
}
);
width = 567;
},
{
anchors = (
{
name = bottom;
pos = (338,0);
},
{
name = ogonek;
pos = (608,10);
},
{
name = top;
pos = (338,750);
},
{
name = topleft;
pos = (20,750);
}
);
layerId = "C8CD87A0-2407-4F05-BADA-4D8336545B60";
metricLeft = "=N";
metricRight = "=N-20";
shapes = (
{
closed = 1;
nodes = (
(290,470,l),
(290,540,l),
(396,540,ls),
(546,540,o),
(616,540,o),
(646,540,c),
(646,540,l),
(646,750,l),
(646,750,l),
(50,750,l),
(50,750,l),
(50,720,o),
(50,650,o),
(50,500,cs),
(50,250,ls),
(50,100,o),
(50,30,o),
(50,0,c),
(50,0,l),
(646,0,l),
(646,210,l),
(646,210,l),
(616,210,o),
(546,210,o),
(396,210,cs),
(290,210,l),
(290,280,l),
(470,280,l),
(470,470,l)
);
}
);
width = 676;
},
{
anchors = (
{
name = bottom;
pos = (277,0);
},
{
name = ogonek;
pos = (510,10);
},
{
name = top;
pos = (277,750);
},
{
name = topleft;
pos = (5,750);
}
);
layerId = "48DAC09D-95D4-4D70-8D14-87ABECD8575B";
metricLeft = "=N";
metricRight = "=N-20";
shapes = (
{
closed = 1;
nodes = (
(101,382,l),
(101,736,l),
(388,736,ls),
(438,736,o),
(458,736,o),
(488,736,c),
(488,736,l),
(488,750,l),
(488,750,l),
(85,750,l),
(85,750,l),
(85,720,o),
(85,700,o),
(85,650,cs),
(85,100,ls),
(85,50,o),
(85,30,o),
(85,0,c),
(85,0,l),
(488,0,l),
(488,14,l),
(488,14,l),
(458,14,o),
(438,14,o),
(388,14,cs),
(101,14,l),
(101,368,l),
(363,368,l),
(363,382,l)
);
}
);
width = 553;
}
);
metricLeft = "=N";
metricRight = "=N-20";
unicode = 69;
},
{
glyphname = Schwa;
lastChange = "2025-08-15 17:48:19 +0000";
layers = (
{
layerId = "9E464B93-4987-4E25-B327-76BD95426741";
shapes = (
{
closed = 1;
nodes = (
(210,760,o),
(91,656,o),
(55,603,c),
(81,572,l),
(147,641,o),
(274,690,o),
(366,690,cs),
(521,690,o),
(618,556,o),
(637,450,c),
(494,425,o),
(217,355,o),
(68,301,c),
(58,287,l),
(86,115,o),
(221,-10,o),
(384,-10,cs),
(561,-10,o),
(750,159,o),
(750,375,cs),
(750,584,o),
(615,760,o),
(392,760,cs)
);
},
{
closed = 1;
nodes = (
(642,194,o),
(546,62,o),
(415,62,cs),
(266,62,o),
(201,168,o),
(173,260,c),
(336,312,o),
(480,355,o),
(638,375,c)
);
}
);
width = 805;
},
{
layerId = "48DAC09D-95D4-4D70-8D14-87ABECD8575B";
shapes = (
{
closed = 1;
nodes = (
(224,759,o),
(116,622,o),
(78,565,c),
(148,521,l),
(204,602,o),
(300,675,o),
(435,675,cs),
(618,675,o),
(724,537,o),
(724,413,c),
(567,413,o),
(212,413,o),
(55,413,c),
(55,395,l),
(55,159,o),
(216,-10,o),
(435,-10,cs),
(641,-10,o),
(811,164,o),
(811,375,cs),
(811,588,o),
(641,759,o),
(435,759,cs)
);
},
{
closed = 1;
nodes = (
(724,205,o),
(599,74,o),
(435,74,cs),
(270,74,o),
(144,205,o),
(144,333,c),
(301,333,o),
(568,333,o),
(724,333,c)
);
}
);
width = 866;
},
{
layerId = m01;
shapes = (
{
closed = 1;
nodes = (
(195,760,o),
(76,656,o),
(40,603,c),
(66,572,l),
(132,641,o),
(259,690,o),
(351,690,cs),
(506,690,o),
(603,556,o),
(622,450,c),
(479,425,o),
(202,355,o),
(53,301,c),
(43,287,l),
(71,115,o),
(206,-10,o),
(369,-10,cs),
(546,-10,o),
(735,159,o),
(735,375,cs),
(735,584,o),
(600,760,o),
(377,760,cs)
);
},
{
closed = 1;
nodes = (
(627,194,o),
(531,62,o),
(400,62,cs),
(251,62,o),
(186,168,o),
(158,260,c),
(321,312,o),
(465,355,o),
(623,375,c)
);
}
);
width = 775;
},
{
layerId = "BABFB3A0-9CFA-45ED-BD0F-DD711F12EEFF";
shapes = (
{
closed = 1;
nodes = (
(209,759,o),
(101,622,o),
(63,565,c),
(133,521,l),
(189,602,o),
(285,675,o),
(420,675,cs),
(603,675,o),
(709,537,o),
(709,413,c),
(552,413,o),
(197,413,o),
(40,413,c),
(40,395,l),
(40,159,o),
(201,-10,o),
(420,-10,cs),
(626,-10,o),
(796,164,o),
(796,375,cs),
(796,588,o),
(626,759,o),
(420,759,cs)
);
},
{
closed = 1;
nodes = (
(709,205,o),
(584,74,o),
(420,74,cs),
(255,74,o),
(129,205,o),
(129,333,c),
(286,333,o),
(553,333,o),
(709,333,c)
);
}
);
width = 836;
},
{
layerId = "C36E42DF-D6E4-4FAF-B5BA-99700BA29EB5";
shapes = (
{
closed = 1;
nodes = (
(185,760,o),
(66,656,o),
(30,603,c),
(56,572,l),
(122,641,o),
(249,690,o),
(341,690,cs),
(496,690,o),
(593,556,o),
(612,450,c),
(469,425,o),
(192,355,o),
(43,301,c),
(33,287,l),
(61,115,o),
(196,-10,o),
(359,-10,cs),
(536,-10,o),
(725,159,o),
(725,375,cs),
(725,584,o),
(590,760,o),
(367,760,cs)
);
},
{
closed = 1;
nodes = (
(617,194,o),
(521,62,o),
(390,62,cs),
(241,62,o),
(176,168,o),
(148,260,c),
(311,312,o),
(455,355,o),
(613,375,c)
);
}
);
width = 755;
},
{
layerId = "C8CD87A0-2407-4F05-BADA-4D8336545B60";
shapes = (
{
closed = 1;
nodes = (
(189,759,o),
(81,622,o),
(43,565,c),
(113,521,l),
(169,602,o),
(265,675,o),
(400,675,cs),
(583,675,o),
(689,537,o),
(689,413,c),
(532,413,o),
(177,413,o),
(20,413,c),
(20,395,l),
(20,159,o),
(181,-10,o),
(400,-10,cs),
(606,-10,o),
(776,164,o),
(776,375,cs),
(776,588,o),
(606,759,o),
(400,759,cs)
);
},
{
closed = 1;
nodes = (
(689,205,o),
(564,74,o),
(400,74,cs),
(235,74,o),
(109,205,o),
(109,333,c),
(266,333,o),
(533,333,o),
(689,333,c)
);
}
);
width = 796;
}
);
metricLeft = "=O";
metricRight = "=O";
unicode = 399;
},
{
glyphname = Ezh;
lastChange = "2025-08-15 17:48:19 +0000";
layers = (
{
anchors = (
{
name = bottom;
pos = (298,0);
},
{
name = top;
pos = (298,750);
}
);
layerId = "9E464B93-4987-4E25-B327-76BD95426741";
shapes = (
{
closed = 1;
nodes = (
(410,-10,o),
(541,90,o),
(541,241,cs),
(541,354,o),
(411,433,o),
(317,428,c),
(529,719,l),
(515,750,l),
(74,750,l),
(52,586,l),
(101,576,l),
(120,641,o),
(171,680,o),
(238,680,cs),
(402,680,l),
(205,391,l),
(233,357,l),
(351,365,o),
(437,291,o),
(437,209,cs),
(437,124,o),
(382,68,o),
(288,68,cs),
(217,68,o),
(154,126,o),
(122,167,c),
(45,89,l),
(91,42,o),
(173,-10,o),
(261,-10,cs)
);
}
);
width = 596;
},
{
anchors = (
{
name = bottom;
pos = (307,0);
},
{
name = top;
pos = (307,750);
}
);
layerId = "48DAC09D-95D4-4D70-8D14-87ABECD8575B";
shapes = (
{
closed = 1;
nodes = (
(443,-10,o),
(558,73,o),
(558,208,cs),
(558,334,o),
(478,414,o),
(339,425,c),
(524,670,l),
(524,750,l),
(90,750,l),
(90,670,l),
(90,670,l),
(120,670,o),
(190,670,o),
(340,670,cs),
(417,670,l),
(238,430,l),
(238,359,l),
(414,359,o),
(466,299,o),
(466,217,cs),
(466,140,o),
(403,74,o),
(306,74,cs),
(207,74,o),
(159,132,o),
(138,207,c),
(55,172,l),
(78,60,o),
(170,-10,o),
(306,-10,cs)
);
}
);
width = 613;
},
{
anchors = (
{
name = bottom;
pos = (283,0);
},
{
name = top;
pos = (283,750);
}
);
layerId = m01;
shapes = (
{
closed = 1;
nodes = (
(395,-10,o),
(526,90,o),
(526,241,cs),
(526,354,o),
(396,433,o),
(302,428,c),
(514,719,l),
(500,750,l),
(59,750,l),
(37,586,l),
(86,576,l),
(105,641,o),
(156,680,o),
(223,680,cs),
(387,680,l),
(190,391,l),
(218,357,l),
(336,365,o),
(422,291,o),
(422,209,cs),
(422,124,o),
(367,68,o),
(273,68,cs),
(202,68,o),
(139,126,o),
(107,167,c),
(30,89,l),
(76,42,o),
(158,-10,o),
(246,-10,cs)
);
}
);
width = 566;
},
{
anchors = (
{
name = bottom;
pos = (292,0);
},
{
name = top;
pos = (292,750);
}
);
layerId = "BABFB3A0-9CFA-45ED-BD0F-DD711F12EEFF";
shapes = (
{
closed = 1;
nodes = (
(428,-10,o),
(543,73,o),
(543,208,cs),
(543,334,o),
(463,414,o),
(324,425,c),
(509,670,l),
(509,750,l),
(75,750,l),
(75,670,l),
(75,670,l),
(105,670,o),
(175,670,o),
(325,670,cs),
(402,670,l),
(223,430,l),
(223,359,l),
(399,359,o),
(451,299,o),
(451,217,cs),
(451,140,o),
(388,74,o),
(291,74,cs),
(192,74,o),
(144,132,o),
(123,207,c),
(40,172,l),
(63,60,o),
(155,-10,o),
(291,-10,cs)
);
}
);
width = 583;
},
{
anchors = (
{
name = bottom;
pos = (273,0);
},
{
name = top;
pos = (273,750);
}
);
layerId = "C36E42DF-D6E4-4FAF-B5BA-99700BA29EB5";
shapes = (
{
closed = 1;
nodes = (
(385,-10,o),
(516,90,o),
(516,241,cs),
(516,354,o),
(386,433,o),
(292,428,c),
(504,719,l),
(490,750,l),
(49,750,l),
(27,586,l),
(76,576,l),
(95,641,o),
(146,680,o),
(213,680,cs),
(377,680,l),
(180,391,l),
(208,357,l),
(326,365,o),
(412,291,o),
(412,209,cs),
(412,124,o),
(357,68,o),
(263,68,cs),
(192,68,o),
(129,126,o),
(97,167,c),
(20,89,l),
(66,42,o),
(148,-10,o),
(236,-10,cs)
);
}
);
width = 546;
},
{
anchors = (
{
name = bottom;
pos = (292,0);
},
{
name = top;
pos = (292,750);
}
);
layerId = "C8CD87A0-2407-4F05-BADA-4D8336545B60";
shapes = (
{
closed = 1;
nodes = (
(428,-10,o),
(543,73,o),
(543,208,cs),
(543,334,o),
(463,414,o),
(324,425,c),
(509,670,l),
(509,750,l),
(75,750,l),
(75,670,l),
(75,670,l),
(105,670,o),
(175,670,o),
(325,670,cs),
(402,670,l),
(223,430,l),
(223,359,l),
(399,359,o),
(451,299,o),
(451,217,cs),
(451,140,o),
(388,74,o),
(291,74,cs),
(192,74,o),
(144,132,o),
(123,207,c),
(40,172,l),
(63,60,o),
(155,-10,o),
(291,-10,cs)
);
}
);
width = 583;
}
);
metricLeft = "=three";
metricRight = "=three";
unicode = 439;
},
{
glyphname = F;
kernRight = F;
lastChange = "2025-08-15 17:48:19 +0000";
layers = (
{
anchors = (
{
name = bottom;
pos = (314,0);
},
{
name = top;
pos = (314,750);
}
);
layerId = m01;
metricLeft = "=H";
metricRight = "=E-10";
shapes = (
{
closed = 1;
nodes = (
(235,401,l),
(235,680,l),
(463,680,ls),
(527,680,o),
(532,608,o),
(532,575,c),
(585,563,l),
(607,739,l),
(592,750,l),
(47,750,l),
(41,712,l),
(101,693,o),
(130,669,o),
(130,638,cs),
(130,123,ls),
(130,78,o),
(100,56,o),
(40,38,c),
(40,0,l),
(319,0,l),
(325,38,l),
(261,58,o),
(235,65,o),
(235,100,c),
(235,331,l),
(467,331,l),
(467,401,l)
);
}
);
width = 627;
},
{
anchors = (
{
name = bottom;
pos = (376,0);
},
{
name = top;
pos = (376,750);
}
);
layerId = "C36E42DF-D6E4-4FAF-B5BA-99700BA29EB5";
metricLeft = "=H";
metricRight = "=E-10";
shapes = (
{
closed = 1;
nodes = (
(330,459,l),
(330,546,l),
(494,546,ls),
(555,546,o),
(576,528,o),
(573,485,c),
(706,463,l),
(742,700,l),
(693,750,l),
(52,750,l),
(36,602,l),
(61,583,o),
(90,559,o),
(90,498,cs),
(90,262,ls),
(90,178,o),
(71,164,o),
(30,148,c),
(30,0,l),
(394,0,l),
(410,148,l),
(355,166,o),
(330,194,o),
(330,269,c),
(330,275,l),
(510,275,l),
(510,459,l)
);
}
);
width = 752;
},
{
anchors = (
{
name = bottom;
pos = (295,0);
},
{
name = top;
pos = (295,750);
}
);
layerId = "9E464B93-4987-4E25-B327-76BD95426741";
metricLeft = "=H";
metricRight = "=E-10";
shapes = (
{
closed = 1;
nodes = (
(175,373,l),
(175,739,l),
(470,739,ls),
(535,739,o),
(543,739,o),
(530,629,c),
(541,625,l),
(555,739,l),
(540,750,l),
(59,750,l),
(55,742,l),
(105,742,o),
(155,742,o),
(155,712,cs),
(155,38,ls),
(155,8,o),
(105,8,o),
(55,8,c),
(55,0,l),
(271,0,l),
(275,8,l),
(225,8,o),
(175,8,o),
(175,38,c),
(175,362,l),
(430,362,l),
(430,373,l)
);
}
);
width = 590;
},
{
anchors = (
{
name = bottom;
pos = (264,0);
},
{
name = top;
pos = (264,750);
}
);
layerId = "BABFB3A0-9CFA-45ED-BD0F-DD711F12EEFF";
metricLeft = "=N";
metricRight = "=N-60";
shapes = (
{
closed = 1;
nodes = (
(160,406,l),
(160,670,l),
(267,670,ls),
(417,670,o),
(487,670,o),
(517,670,c),
(517,670,l),
(517,750,l),
(517,750,l),
(70,750,l),
(70,750,l),
(70,720,o),
(70,650,o),
(70,500,cs),
(70,250,ls),
(70,100,o),
(70,30,o),
(70,0,c),
(70,0,l),
(160,0,l),
(160,0,l),
(160,30,o),
(160,100,o),
(160,250,c),
(160,326,l),
(392,326,l),
(392,406,l)
);
}
);
width = 527;
},
{
anchors = (
{
name = bottom;
pos = (319,0);
},
{
name = top;
pos = (319,750);
}
);
layerId = "C8CD87A0-2407-4F05-BADA-4D8336545B60";
metricLeft = "=N";
metricRight = "=N-60";
shapes = (
{
closed = 1;
nodes = (
(290,460,l),
(290,540,l),
(397,540,ls),
(547,540,o),
(617,540,o),
(647,540,c),
(647,540,l),
(647,750,l),
(647,750,l),
(50,750,l),
(50,750,l),
(50,720,o),
(50,650,o),
(50,500,cs),
(50,250,ls),
(50,100,o),
(50,30,o),
(50,0,c),
(50,0,l),
(290,0,l),
(290,0,l),
(290,30,o),
(290,100,o),
(290,250,c),
(290,270,l),
(522,270,l),
(522,460,l)
);
}
);
width = 637;
},
{
anchors = (
{
name = bottom;
pos = (242,0);
},
{
name = top;
pos = (242,750);
}
);
layerId = "48DAC09D-95D4-4D70-8D14-87ABECD8575B";
metricLeft = "=N";
metricRight = "=N-60";
shapes = (
{
closed = 1;
nodes = (
(101,373,l),
(101,736,l),
(358,736,ls),
(408,736,o),
(428,736,o),
(458,736,c),
(458,736,l),
(458,750,l),
(458,750,l),
(85,750,l),
(85,750,l),
(85,720,o),
(85,700,o),
(85,650,cs),
(85,60,ls),
(85,30,o),
(85,10,o),
(85,0,c),
(85,0,l),
(101,0,l),
(101,0,l),
(101,10,o),
(101,30,o),
(101,60,c),
(101,359,l),
(363,359,l),
(363,373,l)
);
}
);
width = 483;
}
);
metricLeft = "=N";
metricRight = "=N-60";
unicode = 70;
},
{
glyphname = G;
lastChange = "2025-08-15 17:48:19 +0000";
layers = (
{
anchors = (
{
name = bottom;
pos = (406,0);
},
{
name = center;
pos = (624,179);
},
{
name = top;
pos = (406,750);
}
);
layerId = m01;
metricLeft = "=O";
metricRight = "=E-10";
shapes = (
{
closed = 1;
nodes = (
(469,-10,o),
(548,4,o),
(612,35,c),
(693,0,l),
(707,11,l),
(707,236,l),
(719,268,o),
(746,284,o),
(791,304,c),
(791,342,l),
(509,342,l),
(498,299,l),
(526,294,o),
(595,278,o),
(612,242,c),
(612,111,l),
(582,88,o),
(549,67,o),
(440,67,cs),
(254,67,o),
(156,219,o),
(156,409,cs),
(156,574,o),
(259,685,o),
(407,682,cs),
(572,679,o),
(602,630,o),
(649,471,c),
(704,483,l),
(686,670,l),
(633,723,o),
(548,760,o),
(427,760,cs),
(244,760,o),
(40,588,o),
(40,354,cs),
(40,156,o),
(160,-10,o),
(398,-10,cs)
);
}
);
width = 811;
},
{
anchors = (
{
name = bottom;
pos = (430,0);
},
{
name = center;
pos = (634,179);
},
{
name = top;
pos = (430,750);
}
);
layerId = "C36E42DF-D6E4-4FAF-B5BA-99700BA29EB5";
metricLeft = "=O";
shapes = (
{
closed = 1;
nodes = (
(485,-10,o),
(569,16,o),
(633,47,c),
(718,0,l),
(770,41,l),
(770,196,l),
(779,257,o),
(793,275,o),
(830,296,c),
(830,424,l),
(436,424,l),
(420,296,l),
(508,291,o),
(525,274,o),
(530,238,c),
(530,238,l),
(506,220,o),
(482,198,o),
(439,198,cs),
(361,198,o),
(300,271,o),
(300,399,cs),
(300,482,o),
(347,552,o),
(420,552,cs),
(482,552,o),
(534,503,o),
(536,457,c),
(767,481,l),
(740,681,l),
(652,736,o),
(556,760,o),
(435,760,cs),
(203,760,o),
(30,588,o),
(30,354,cs),
(30,156,o),
(170,-10,o),
(424,-10,cs)
);
}
);
width = 860;
},
{
anchors = (
{
name = bottom;
pos = (395,0);
},
{
name = center;
pos = (619,179);
},
{
name = top;
pos = (395,750);
}
);
layerId = "9E464B93-4987-4E25-B327-76BD95426741";
metricLeft = "=O";
metricRight = "=E-10";
shapes = (
{
closed = 1;
nodes = (
(508,-10,o),
(596,10,o),
(669,76,c),
(671,0,l),
(685,11,l),
(685,299,ls),
(685,329,o),
(705,329,o),
(755,329,c),
(755,342,l),
(522,342,l),
(518,329,l),
(608,329,o),
(668,329,o),
(668,299,cs),
(668,117,l),
(638,64,o),
(561,5,o),
(432,5,cs),
(220,5,o),
(76,185,o),
(76,386,cs),
(76,577,o),
(236,745,o),
(422,745,cs),
(615,745,o),
(686,667,o),
(699,569,c),
(709,570,l),
(701,660,l),
(648,723,o),
(558,760,o),
(437,760,cs),
(234,760,o),
(55,588,o),
(55,354,cs),
(55,166,o),
(210,-10,o),
(421,-10,cs)
);
}
);
width = 790;
},
{
anchors = (
{
name = bottom;
pos = (417,0);
},
{
name = center;
pos = (663,211);
},
{
name = top;
pos = (417,750);
}
);
layerId = "BABFB3A0-9CFA-45ED-BD0F-DD711F12EEFF";
metricLeft = "=O";
metricRight = "=N-20";
shapes = (
{
closed = 1;
nodes = (
(539,-10,o),
(643,61,o),
(677,119,c),
(695,0,l),
(755,0,l),
(755,122,l),
(755,272,o),
(755,342,o),
(755,372,c),
(755,372,l),
(394,372,l),
(394,292,l),
(394,292,o),
(665,292,o),
(665,292,c),
(665,203,l),
(602,130,o),
(536,72,o),
(417,72,cs),
(256,72,o),
(130,214,o),
(130,375,cs),
(130,540,o),
(256,678,o),
(417,678,cs),
(553,678,o),
(626,595,o),
(672,512,c),
(672,512,l),
(749,559,l),
(679,684,o),
(578,760,o),
(417,760,cs),
(204,760,o),
(40,588,o),
(40,374,cs),
(40,162,o),
(204,-10,o),
(417,-10,cs)
);
}
);
width = 805;
},
{
anchors = (
{
name = bottom;
pos = (390,0);
},
{
name = center;
pos = (653,211);
},
{
name = top;
pos = (390,750);
}
);
layerId = "C8CD87A0-2407-4F05-BADA-4D8336545B60";
metricLeft = "=O";
shapes = (
{
closed = 1;
nodes = (
(497,-10,o),
(570,25,o),
(617,60,c),
(653,0,l),
(755,0,l),
(755,122,l),
(755,292,o),
(755,419,o),
(755,449,c),
(755,449,l),
(352,449,l),
(351,282,l),
(351,282,o),
(525,282,o),
(525,282,c),
(525,257,l),
(493,225,o),
(458,210,o),
(407,210,cs),
(332,210,o),
(263,274,o),
(263,375,cs),
(263,475,o),
(327,537,o),
(411,537,cs),
(458,537,o),
(506,510,o),
(525,464,c),
(525,464,l),
(744,585,l),
(689,668,o),
(579,760,o),
(415,760,cs),
(202,760,o),
(20,598,o),
(20,375,cs),
(20,152,o),
(202,-10,o),
(405,-10,cs)
);
}
);
width = 800;
},
{
anchors = (
{
name = bottom;
pos = (407,0);
},
{
name = center;
pos = (658,211);
},
{
name = top;
pos = (407,750);
}
);
layerId = "48DAC09D-95D4-4D70-8D14-87ABECD8575B";
metricLeft = "=O";
metricRight = "=N-20";
shapes = (
{
closed = 1;
nodes = (
(613,-10,o),
(699,108,o),
(732,164,c),
(734,0,l),
(748,0,l),
(748,142,l),
(748,297,o),
(748,323,o),
(748,353,c),
(748,353,l),
(397,353,l),
(397,338,l),
(397,338,o),
(732,338,o),
(732,338,c),
(732,192,l),
(699,128,o),
(606,5,o),
(432,5,cs),
(227,5,o),
(71,172,o),
(71,375,cs),
(71,578,o),
(227,745,o),
(432,745,cs),
(625,745,o),
(723,594,o),
(731,578,c),
(731,578,l),
(745,586,l),
(728,614,o),
(636,760,o),
(430,760,cs),
(217,760,o),
(55,588,o),
(55,374,cs),
(55,162,o),
(217,-10,o),
(430,-10,cs)
);
}
);
width = 813;
}
);
metricLeft = "=O";
unicode = 71;
},
{
glyphname = H;
lastChange = "2025-08-15 17:48:19 +0000";
layers = (
{
anchors = (
{
name = bottom;
pos = (426,0);
},
{
name = center;
pos = (426,545);
},
{
name = top;
pos = (426,750);
},
{
name = topleft;
pos = (10,750);
}
);
layerId = m01;
shapes = (
{
closed = 1;
nodes = (
(720,667,l),
(736,689,o),
(751,699,o),
(812,712,c),
(812,750,l),
(527,750,l),
(521,712,l),
(576,693,o),
(615,669,o),
(615,638,cs),
(615,421,l),
(239,421,l),
(239,667,l),
(255,689,o),
(270,699,o),
(331,712,c),
(331,750,l),
(46,750,l),
(40,712,l),
(95,693,o),
(134,669,o),
(134,638,cs),
(134,123,ls),
(134,78,o),
(94,56,o),
(44,38,c),
(44,0,l),
(323,0,l),
(329,38,l),
(275,55,o),
(239,70,o),
(239,103,cs),
(239,351,l),
(615,351,l),
(615,123,ls),
(615,78,o),
(575,56,o),
(525,38,c),
(525,0,l),
(804,0,l),
(810,38,l),
(756,55,o),
(720,70,o),
(720,103,cs)
);
}
);
width = 852;
},
{
anchors = (
{
name = bottom;
pos = (460,0);
},
{
name = center;
pos = (460,375);
},
{
name = top;
pos = (460,750);
},
{
name = topleft;
pos = (20,750);
}
);
layerId = "C36E42DF-D6E4-4FAF-B5BA-99700BA29EB5";
shapes = (
{
closed = 1;
nodes = (
(810,502,l),
(819,563,o),
(833,581,o),
(870,602,c),
(870,750,l),
(506,750,l),
(490,602,l),
(535,583,o),
(570,554,o),
(570,471,cs),
(570,453,l),
(330,453,l),
(330,512,ls),
(330,564,o),
(353,581,o),
(390,602,c),
(390,750,l),
(52,750,l),
(36,602,l),
(61,583,o),
(90,559,o),
(90,498,cs),
(90,262,ls),
(90,178,o),
(71,164,o),
(30,148,c),
(30,0,l),
(394,0,l),
(410,148,l),
(355,166,o),
(330,194,o),
(330,269,cs),
(330,289,l),
(570,289,l),
(570,252,ls),
(570,178,o),
(551,164,o),
(510,148,c),
(510,0,l),
(874,0,l),
(890,148,l),
(835,166,o),
(810,196,o),
(810,311,cs)
);
}
);
width = 920;
},
{
anchors = (
{
name = bottom;
pos = (407,0);
},
{
name = center;
pos = (407,375);
},
{
name = top;
pos = (407,750);
},
{
name = topleft;
pos = (5,750);
}
);
layerId = "9E464B93-4987-4E25-B327-76BD95426741";
shapes = (
{
closed = 1;
nodes = (
(659,712,l),
(659,742,o),
(709,742,o),
(759,742,c),
(759,750,l),
(543,750,l),
(539,742,l),
(589,742,o),
(639,742,o),
(639,712,cs),
(639,393,l),
(175,393,l),
(175,712,l),
(175,742,o),
(225,742,o),
(275,742,c),
(275,750,l),
(59,750,l),
(55,742,l),
(105,742,o),
(155,742,o),
(155,712,cs),
(155,38,ls),
(155,8,o),
(105,8,o),
(55,8,c),
(55,0,l),
(271,0,l),
(275,8,l),
(225,8,o),
(175,8,o),
(175,38,cs),
(175,382,l),
(639,382,l),
(639,38,ls),
(639,8,o),
(589,8,o),
(539,8,c),
(539,0,l),
(755,0,l),
(759,8,l),
(709,8,o),
(659,8,o),
(659,38,cs)
);
}
);
width = 814;
},
{
anchors = (
{
name = bottom;
pos = (355,0);
},
{
name = center;
pos = (355,545);
},
{
name = top;
pos = (355,750);
},
{
name = topleft;
pos = (10,750);
}
);
layerId = "BABFB3A0-9CFA-45ED-BD0F-DD711F12EEFF";
metricLeft = "=N";
metricRight = "=N";
shapes = (
{
closed = 1;
nodes = (
(640,500,l),
(640,650,o),
(640,720,o),
(640,750,c),
(640,750,l),
(550,750,l),
(550,750,l),
(550,720,o),
(550,650,o),
(550,500,cs),
(550,426,l),
(160,426,l),
(160,500,l),
(160,650,o),
(160,720,o),
(160,750,c),
(160,750,l),
(70,750,l),
(70,750,l),
(70,720,o),
(70,650,o),
(70,500,cs),
(70,250,ls),
(70,100,o),
(70,30,o),
(70,0,c),
(70,0,l),
(160,0,l),
(160,0,l),
(160,30,o),
(160,100,o),
(160,250,cs),
(160,346,l),
(550,346,l),
(550,250,ls),
(550,100,o),
(550,30,o),
(550,0,c),
(550,0,l),
(640,0,l),
(640,0,l),
(640,100,o),
(640,30,o),
(640,250,cs)
);
}
);
width = 710;
},
{
anchors = (
{
name = bottom;
pos = (410,0);
},
{
name = center;
pos = (410,375);
},
{
name = top;
pos = (410,750);
},
{
name = topleft;
pos = (20,750);
}
);
layerId = "C8CD87A0-2407-4F05-BADA-4D8336545B60";
metricLeft = "=N";
metricRight = "=N";
shapes = (
{
closed = 1;
nodes = (
(770,500,l),
(770,650,o),
(770,720,o),
(770,750,c),
(770,750,l),
(530,750,l),
(530,750,l),
(530,720,o),
(530,650,o),
(530,500,cs),
(530,481,l),
(290,481,l),
(290,500,l),
(290,650,o),
(290,720,o),
(290,750,c),
(290,750,l),
(50,750,l),
(50,750,l),
(50,720,o),
(50,650,o),
(50,500,cs),
(50,250,ls),
(50,100,o),
(50,30,o),
(50,0,c),
(50,0,l),
(290,0,l),
(290,0,l),
(290,30,o),
(290,100,o),
(290,250,cs),
(290,271,l),
(530,271,l),
(530,250,ls),
(530,100,o),
(530,30,o),
(530,0,c),
(530,0,l),
(770,0,l),
(770,0,l),
(770,100,o),
(770,30,o),
(770,250,cs)
);
}
);
width = 820;
},
{
anchors = (
{
name = bottom;
pos = (331,0);
},
{
name = center;
pos = (331,375);
},
{
name = top;
pos = (331,750);
},
{
name = topleft;
pos = (5,750);
}
);
layerId = "48DAC09D-95D4-4D70-8D14-87ABECD8575B";
metricLeft = "=N";
metricRight = "=N";
shapes = (
{
closed = 1;
nodes = (
(577,690,l),
(577,720,o),
(577,740,o),
(577,750,c),
(577,750,l),
(561,750,l),
(561,750,l),
(561,740,o),
(561,720,o),
(561,690,cs),
(561,394,l),
(101,394,l),
(101,690,l),
(101,720,o),
(101,740,o),
(101,750,c),
(101,750,l),
(85,750,l),
(85,750,l),
(85,740,o),
(85,720,o),
(85,690,cs),
(85,60,ls),
(85,30,o),
(85,10,o),
(85,0,c),
(85,0,l),
(101,0,l),
(101,0,l),
(101,10,o),
(101,30,o),
(101,60,cs),
(101,380,l),
(561,380,l),
(561,60,ls),
(561,30,o),
(561,10,o),
(561,0,c),
(561,0,l),
(577,0,l),
(577,0,l),
(578,10,o),
(577,30,o),
(577,60,cs)
);
}
);
width = 662;
}
);
unicode = 72;
},
{
glyphname = I;
lastChange = "2025-08-15 17:48:19 +0000";
layers = (
{
anchors = (
{
name = bottom;
pos = (184,0);
},
{
name = center;
pos = (186,384);
},
{
name = ogonek;
pos = (266,10);
},
{
name = top;
pos = (184,750);
},
{
name = topleft;
pos = (10,750);
}
);
layerId = m01;
metricLeft = "=H";
metricRight = "=H";
shapes = (
{
closed = 1;
nodes = (
(319,0,l),
(325,38,l),
(261,58,o),
(235,65,o),
(235,100,c),
(235,657,l),
(251,679,o),
(286,699,o),
(327,712,c),
(327,750,l),
(46,750,l),
(40,712,l),
(89,695,o),
(130,669,o),
(130,638,cs),
(130,123,ls),
(130,78,o),
(90,56,o),
(40,38,c),
(40,0,l)
);
}
);
width = 367;
},
{
anchors = (
{
name = bottom;
pos = (212,0);
},
{
name = center;
pos = (196,384);
},
{
name = ogonek;
pos = (381,10);
},
{
name = top;
pos = (212,750);
},
{
name = topleft;
pos = (20,750);
}
);
layerId = "C36E42DF-D6E4-4FAF-B5BA-99700BA29EB5";
metricLeft = "=H";
metricRight = "=H";
shapes = (
{
closed = 1;
nodes = (
(377,0,l),
(393,148,l),
(355,166,o),
(330,196,o),
(330,311,c),
(330,502,l),
(339,563,o),
(353,581,o),
(390,602,c),
(390,750,l),
(52,750,l),
(36,602,l),
(61,583,o),
(90,559,o),
(90,498,cs),
(90,262,ls),
(90,178,o),
(71,164,o),
(30,148,c),
(30,0,l)
);
}
);
width = 423;
},
{
anchors = (
{
name = bottom;
pos = (165,0);
},
{
name = center;
pos = (181,384);
},
{
name = ogonek;
pos = (309,10);
},
{
name = top;
pos = (165,750);
},
{
name = topleft;
pos = (5,750);
}
);
layerId = "9E464B93-4987-4E25-B327-76BD95426741";
metricLeft = "=H";
metricRight = "=H";
shapes = (
{
closed = 1;
nodes = (
(271,0,l),
(275,8,l),
(225,8,o),
(175,8,o),
(175,38,cs),
(175,712,ls),
(175,742,o),
(222,742,o),
(275,742,c),
(275,750,l),
(59,750,l),
(55,742,l),
(105,742,o),
(155,742,o),
(155,712,cs),
(155,38,ls),
(155,8,o),
(105,8,o),
(55,8,c),
(55,0,l)
);
}
);
width = 330;
},
{
anchors = (
{
name = bottom;
pos = (115,0);
},
{
name = center;
pos = (115,384);
},
{
name = ogonek;
pos = (138,10);
},
{
name = top;
pos = (115,750);
},
{
name = topleft;
pos = (10,750);
}
);
layerId = "BABFB3A0-9CFA-45ED-BD0F-DD711F12EEFF";
metricLeft = "=N";
metricRight = "=N";
shapes = (
{
closed = 1;
nodes = (
(160,0,l),
(160,0,l),
(160,30,o),
(160,100,o),
(160,250,c),
(160,500,l),
(160,650,o),
(160,720,o),
(160,750,c),
(160,750,l),
(70,750,l),
(70,750,l),
(70,720,o),
(70,650,o),
(70,500,cs),
(70,250,ls),
(70,100,o),
(70,30,o),
(70,0,c),
(70,0,l)
);
}
);
width = 230;
},
{
anchors = (
{
name = bottom;
pos = (170,0);
},
{
name = center;
pos = (125,384);
},
{
name = ogonek;
pos = (306,10);
},
{
name = top;
pos = (170,750);
},
{
name = topleft;
pos = (20,750);
}
);
layerId = "C8CD87A0-2407-4F05-BADA-4D8336545B60";
metricLeft = "=N";
metricRight = "=N";
shapes = (
{
closed = 1;
nodes = (
(290,0,l),
(290,0,l),
(290,30,o),
(290,100,o),
(290,250,c),
(290,500,l),
(290,650,o),
(290,720,o),
(290,750,c),
(290,750,l),
(50,750,l),
(50,750,l),
(50,720,o),
(50,650,o),
(50,500,cs),
(50,250,ls),
(50,100,o),
(50,30,o),
(50,0,c),
(50,0,l)
);
}
);
width = 340;
},
{
anchors = (
{
name = bottom;
pos = (93,0);
},
{
name = center;
pos = (110,384);
},
{
name = ogonek;
pos = (179,10);
},
{
name = top;
pos = (93,750);
},
{
name = topleft;
pos = (5,750);
}
);
layerId = "48DAC09D-95D4-4D70-8D14-87ABECD8575B";
metricLeft = "=N";
metricRight = "=N";
shapes = (
{
closed = 1;
nodes = (
(101,0,l),
(101,0,l),
(101,10,o),
(101,30,o),
(101,60,c),
(101,690,l),
(101,720,o),
(101,740,o),
(101,750,c),
(101,750,l),
(85,750,l),
(85,750,l),
(85,740,o),
(85,720,o),
(85,690,cs),
(85,60,ls),
(85,30,o),
(85,10,o),
(85,0,c),
(85,0,l)
);
}
);
width = 186;
}
);
metricLeft = "=N";
metricRight = "=N";
unicode = 73;
},
{
glyphname = J;
kernRight = J;
lastChange = "2025-08-15 17:48:19 +0000";
layers = (
{
anchors = (
{
name = bottom;
pos = (253,0);
},
{
name = top;
pos = (330,750);
}
);
layerId = m01;
metricRight = "=N";
shapes = (
{
closed = 1;
nodes = (
(475,750,l),
(475,712,l),
(436,699,o),
(401,679,o),
(385,657,c),
(385,167,ls),
(385,53,o),
(279,-10,o),
(173,-10,cs),
(89,-10,o),
(27,30,o),
(0,55,c),
(56,141,l),
(78,123,o),
(140,60,o),
(203,60,cs),
(274,60,o),
(280,118,o),
(280,195,cs),
(280,638,l),
(270,669,o),
(219,698,o),
(190,712,c),
(196,750,l)
);
}
);
width = 505;
},
{
anchors = (
{
name = bottom;
pos = (337,0);
},
{
name = top;
pos = (337,750);
}
);
layerId = "C36E42DF-D6E4-4FAF-B5BA-99700BA29EB5";
metricRight = "=N";
shapes = (
{
closed = 1;
nodes = (
(654,750,l),
(654,602,l),
(617,581,o),
(603,563,o),
(594,502,c),
(594,281,ls),
(594,93,o),
(425,-10,o),
(260,-10,cs),
(123,-10,o),
(34,52,o),
(0,84,c),
(125,280,l),
(164,228,o),
(220,185,o),
(277,185,cs),
(348,185,o),
(354,263,o),
(354,340,cs),
(354,498,l),
(354,559,o),
(325,583,o),
(300,602,c),
(316,750,l)
);
}
);
width = 674;
},
{
anchors = (
{
name = bottom;
pos = (242,0);
},
{
name = top;
pos = (242,750);
}
);
layerId = "9E464B93-4987-4E25-B327-76BD95426741";
metricRight = "=N";
shapes = (
{
closed = 1;
nodes = (
(433,750,l),
(433,742,l),
(380,742,o),
(333,742,o),
(333,712,c),
(333,147,ls),
(333,33,o),
(240,-10,o),
(183,-10,cs),
(99,-10,o),
(40,35,o),
(15,63,c),
(33,86,l),
(60,49,o),
(117,5,o),
(188,5,cs),
(245,5,o),
(313,38,o),
(313,165,cs),
(313,712,l),
(313,742,o),
(263,742,o),
(213,742,c),
(217,750,l)
);
}
);
width = 483;
},
{
anchors = (
{
name = bottom;
pos = (244,0);
},
{
name = top;
pos = (372,750);
}
);
layerId = "BABFB3A0-9CFA-45ED-BD0F-DD711F12EEFF";
metricRight = "=N";
shapes = (
{
closed = 1;
nodes = (
(417,750,l),
(417,750,l),
(417,720,o),
(417,650,o),
(417,500,c),
(417,235,ls),
(417,99,o),
(307,-10,o),
(173,-10,cs),
(84,-10,o),
(17,38,o),
(0,65,c),
(66,129,l),
(85,104,o),
(126,74,o),
(173,74,cs),
(257,74,o),
(327,150,o),
(327,235,cs),
(327,500,l),
(327,650,o),
(327,720,o),
(327,750,c),
(327,750,l)
);
}
);
width = 487;
},
{
anchors = (
{
name = bottom;
pos = (335,0);
},
{
name = top;
pos = (335,750);
}
);
layerId = "C8CD87A0-2407-4F05-BADA-4D8336545B60";
metricRight = "=N";
shapes = (
{
closed = 1;
nodes = (
(620,750,l),
(620,750,l),
(620,720,o),
(620,650,o),
(620,500,c),
(620,281,ls),
(620,120,o),
(483,-10,o),
(286,-10,cs),
(133,-10,o),
(36,71,o),
(-7,131,c),
(192,273,l),
(205,242,o),
(234,210,o),
(283,210,cs),
(345,210,o),
(380,260,o),
(380,312,cs),
(380,500,l),
(380,650,o),
(380,720,o),
(380,750,c),
(380,750,l)
);
}
);
width = 670;
},
{
anchors = (
{
name = bottom;
pos = (244,0);
},
{
name = top;
pos = (244,750);
}
);
layerId = "48DAC09D-95D4-4D70-8D14-87ABECD8575B";
metricRight = "=N";
shapes = (
{
closed = 1;
nodes = (
(403,750,l),
(403,750,l),
(403,740,o),
(403,720,o),
(403,690,c),
(403,209,ls),
(403,87,o),
(304,-10,o),
(184,-10,cs),
(84,-10,o),
(33,47,o),
(15,68,c),
(27,81,l),
(46,53,o),
(102,5,o),
(184,5,cs),
(296,5,o),
(387,96,o),
(387,209,cs),
(387,690,l),
(387,720,o),
(387,740,o),
(387,750,c),
(387,750,l)
);
}
);
width = 488;
}
);
metricRight = "=N-20";
unicode = 74;
},
{
glyphname = K;
lastChange = "2025-08-15 17:48:19 +0000";
layers = (
{
anchors = (
{
name = bottom;
pos = (403,0);
},
{
name = top;
pos = (403,750);
}
);
layerId = m01;
metricLeft = "=H";
metricRight = "=E";
shapes = (
{
closed = 1;
nodes = (
(643,662,ls),
(668,692,o),
(710,704,o),
(730,704,c),
(730,750,l),
(467,750,l),
(461,712,l),
(498,706,o),
(534,689,o),
(541,673,c),
(365,439,l),
(235,430,l),
(235,667,l),
(251,689,o),
(286,699,o),
(332,712,c),
(332,750,l),
(47,750,l),
(41,712,l),
(101,693,o),
(130,669,o),
(130,638,cs),
(130,123,ls),
(130,78,o),
(100,56,o),
(40,38,c),
(40,0,l),
(319,0,l),
(325,38,l),
(271,58,o),
(235,68,o),
(235,103,cs),
(235,364,l),
(336,360,l),
(565,80,l),
(558,64,o),
(542,44,o),
(490,38,c),
(490,0,l),
(770,0,l),
(776,38,l),
(751,38,o),
(710,60,o),
(692,81,cs),
(424,394,l)
);
}
);
width = 806;
},
{
anchors = (
{
name = bottom;
pos = (451,0);
},
{
name = top;
pos = (451,750);
}
);
layerId = "C36E42DF-D6E4-4FAF-B5BA-99700BA29EB5";
metricLeft = "=H";
metricRight = "=E";
shapes = (
{
closed = 1;
nodes = (
(778,560,ls),
(802,589,o),
(845,602,o),
(865,602,c),
(865,750,l),
(462,750,l),
(438,601,l),
(475,595,o),
(509,568,o),
(516,552,c),
(460,469,l),
(330,460,l),
(330,512,l),
(330,564,o),
(344,589,o),
(390,602,c),
(390,750,l),
(52,750,l),
(36,602,l),
(61,583,o),
(90,559,o),
(90,498,cs),
(90,262,ls),
(90,178,o),
(71,164,o),
(30,148,c),
(30,0,l),
(394,0,l),
(410,148,l),
(355,166,o),
(330,194,o),
(330,269,cs),
(330,307,l),
(441,303,l),
(510,190,l),
(503,174,o),
(487,154,o),
(455,148,c),
(455,0,l),
(875,0,l),
(881,148,l),
(856,148,o),
(814,170,o),
(797,191,cs),
(639,394,l)
);
}
);
width = 901;
},
{
anchors = (
{
name = bottom;
pos = (400,0);
},
{
name = top;
pos = (400,750);
}
);
layerId = "9E464B93-4987-4E25-B327-76BD95426741";
metricLeft = "=H";
metricRight = "=E";
shapes = (
{
closed = 1;
nodes = (
(606,716,ls),
(625,742,o),
(658,742,o),
(708,742,c),
(708,750,l),
(490,750,l),
(486,742,l),
(536,742,o),
(606,742,o),
(587,716,cs),
(354,403,l),
(175,399,l),
(175,712,ls),
(175,742,o),
(222,742,o),
(275,742,c),
(272,750,l),
(59,750,l),
(55,742,l),
(105,742,o),
(155,742,o),
(155,712,cs),
(155,38,ls),
(155,8,o),
(105,8,o),
(55,8,c),
(55,0,l),
(271,0,l),
(275,8,l),
(225,8,o),
(175,8,o),
(175,38,cs),
(175,387,l),
(351,387,l),
(630,34,ls),
(651,8,o),
(579,8,o),
(529,8,c),
(529,0,l),
(751,0,l),
(755,8,l),
(705,8,o),
(673,8,o),
(653,34,cs),
(365,395,l)
);
}
);
width = 800;
},
{
anchors = (
{
name = bottom;
pos = (322,0);
},
{
name = top;
pos = (322,750);
}
);
background = {
shapes = (
{
closed = 1;
nodes = (
(604,750,ls),
(676,825,o),
(575,720,o),
(604,750,c),
(604,750,l),
(487,750,l),
(487,750,l),
(458,720,o),
(416,675,o),
(343,600,cs),
(207,459,l),
(170,421,l),
(170,500,l),
(170,650,o),
(170,720,o),
(170,750,c),
(170,750,l),
(80,750,l),
(80,750,l),
(80,720,o),
(80,650,o),
(80,500,cs),
(80,250,ls),
(80,100,o),
(80,30,o),
(80,0,c),
(80,0,l),
(170,0,l),
(170,0,l),
(170,30,o),
(170,100,o),
(170,250,cs),
(170,297,l),
(252,382,l),
(516,0,ls),
(568,-75,o),
(495,30,o),
(516,0,c),
(516,0,l),
(626,0,l),
(626,0,l),
(605,30,o),
(677,-75,o),
(626,0,cs),
(316,450,l)
);
},
{
closed = 0;
nodes = (
(170,297,l),
(604,750,l)
);
}
);
};
layerId = "BABFB3A0-9CFA-45ED-BD0F-DD711F12EEFF";
metricLeft = "=N";
metricRight = "=N-60";
shapes = (
{
closed = 1;
nodes = (
(450,600,ls),
(523,676,o),
(565,720,o),
(594,750,c),
(594,750,l),
(477,750,l),
(477,750,l),
(448,720,o),
(406,675,o),
(333,600,cs),
(197,459,l),
(160,421,l),
(160,500,l),
(160,650,o),
(160,720,o),
(160,750,c),
(160,750,l),
(70,750,l),
(70,750,l),
(70,720,o),
(70,650,o),
(70,500,cs),
(70,250,ls),
(70,100,o),
(70,30,o),
(70,0,c),
(70,0,l),
(160,0,l),
(160,0,l),
(160,30,o),
(160,100,o),
(160,250,cs),
(160,297,l),
(242,382,l),
(402,150,ls),
(454,75,o),
(485,30,o),
(506,0,c),
(506,0,l),
(616,0,l),
(616,0,l),
(595,30,o),
(565,74,o),
(513,150,cs),
(306,450,l)
);
}
);
width = 626;
},
{
anchors = (
{
name = bottom;
pos = (424,0);
},
{
name = top;
pos = (424,750);
}
);
layerId = "C8CD87A0-2407-4F05-BADA-4D8336545B60";
metricLeft = "=N";
metricRight = "=N-60";
shapes = (
{
closed = 1;
nodes = (
(688,600,ls),
(763,677,o),
(804,720,o),
(833,750,c),
(833,750,l),
(520,750,l),
(520,750,l),
(490,720,o),
(449,679,o),
(370,600,cs),
(290,521,l),
(290,521,l),
(290,521,l),
(290,650,o),
(290,720,o),
(290,750,c),
(290,750,l),
(50,750,l),
(50,750,l),
(50,720,o),
(50,650,o),
(50,500,cs),
(50,250,ls),
(50,100,o),
(50,30,o),
(50,0,c),
(50,0,l),
(290,0,l),
(290,0,l),
(290,30,o),
(290,100,o),
(290,190,cs),
(290,190,l),
(369,271,l),
(453,150,ls),
(505,75,o),
(536,30,o),
(557,0,c),
(557,0,l),
(857,0,l),
(857,0,l),
(837,30,o),
(806,75,o),
(755,150,cs),
(548,456,l)
);
}
);
width = 847;
},
{
anchors = (
{
name = bottom;
pos = (276,0);
},
{
name = top;
pos = (276,750);
}
);
layerId = "48DAC09D-95D4-4D70-8D14-87ABECD8575B";
metricLeft = "=N";
metricRight = "=N-60";
shapes = (
{
closed = 1;
nodes = (
(444,701,ls),
(464,721,o),
(478,735,o),
(493,750,c),
(493,750,l),
(471,750,l),
(471,750,l),
(456,735,o),
(442,721,o),
(422,701,cs),
(176,449,l),
(101,373,l),
(101,690,l),
(101,720,o),
(101,740,o),
(101,750,c),
(101,750,l),
(85,750,l),
(85,750,l),
(85,740,o),
(85,720,o),
(85,690,cs),
(85,60,ls),
(85,30,o),
(85,10,o),
(85,0,c),
(85,0,l),
(101,0,l),
(101,0,l),
(101,10,o),
(101,30,o),
(101,60,cs),
(101,350,l),
(186,437,l),
(471,50,ls),
(485,30,o),
(496,15,o),
(507,0,c),
(507,0,l),
(527,0,l),
(527,0,l),
(516,15,o),
(505,30,o),
(490,50,cs),
(197,448,l)
);
}
);
width = 552;
}
);
metricLeft = "=N";
metricRight = "=N-60";
unicode = 75;
},
{
glyphname = L;
kernRight = L;
lastChange = "2025-08-15 17:48:19 +0000";
layers = (
{
anchors = (
{
name = bottom;
pos = (345,0);
},
{
name = center;
pos = (181,375);
},
{
name = top;
pos = (180,750);
},
{
name = topright;
pos = (680,750);
}
);
layerId = m01;
metricLeft = "=H";
metricRight = "=E";
shapes = (
{
closed = 1;
nodes = (
(613,0,l),
(660,212,l),
(609,220,l),
(574,86,o),
(566,70,o),
(447,70,cs),
(235,70,l),
(235,657,l),
(251,679,o),
(286,699,o),
(327,712,c),
(327,750,l),
(47,750,l),
(41,712,l),
(101,693,o),
(130,669,o),
(130,638,cs),
(130,123,ls),
(130,78,o),
(100,56,o),
(40,38,c),
(40,0,l)
);
}
);
width = 690;
},
{
anchors = (
{
name = bottom;
pos = (381,0);
},
{
name = center;
pos = (381,375);
},
{
name = top;
pos = (381,750);
},
{
name = topright;
pos = (741,750);
}
);
layerId = "C36E42DF-D6E4-4FAF-B5BA-99700BA29EB5";
metricLeft = "=H";
metricRight = "=E";
shapes = (
{
closed = 1;
nodes = (
(696,0,l),
(741,224,l),
(621,246,l),
(599,203,o),
(557,184,o),
(488,184,cs),
(330,184,l),
(330,512,l),
(330,564,o),
(353,581,o),
(390,602,c),
(390,750,l),
(52,750,l),
(36,602,l),
(61,583,o),
(90,559,o),
(90,498,cs),
(90,262,ls),
(90,178,o),
(71,164,o),
(30,148,c),
(30,0,l)
);
}
);
width = 761;
},
{
anchors = (
{
name = bottom;
pos = (321,0);
},
{
name = center;
pos = (321,375);
},
{
name = top;
pos = (321,750);
},
{
name = topright;
pos = (636,750);
}
);
layerId = "9E464B93-4987-4E25-B327-76BD95426741";
metricLeft = "=H";
metricRight = "=E";
shapes = (
{
closed = 1;
nodes = (
(559,0,l),
(596,116,l),
(586,119,l),
(547,11,o),
(547,11,o),
(477,11,cs),
(175,11,l),
(175,712,l),
(175,742,o),
(222,742,o),
(275,742,c),
(275,750,l),
(59,750,l),
(55,742,l),
(105,742,o),
(155,742,o),
(155,712,cs),
(155,38,ls),
(155,8,o),
(105,8,o),
(55,8,c),
(55,0,l)
);
}
);
width = 641;
},
{
anchors = (
{
name = bottom;
pos = (290,0);
},
{
name = center;
pos = (118,375);
},
{
name = top;
pos = (290,750);
},
{
name = topright;
pos = (515,750);
}
);
layerId = "BABFB3A0-9CFA-45ED-BD0F-DD711F12EEFF";
metricLeft = "=N";
metricRight = "=N-60";
shapes = (
{
closed = 1;
nodes = (
(515,0,l),
(515,85,l),
(515,85,l),
(485,85,o),
(415,85,o),
(265,85,cs),
(160,85,l),
(160,500,l),
(160,650,o),
(160,720,o),
(160,750,c),
(160,750,l),
(70,750,l),
(70,750,l),
(70,720,o),
(70,650,o),
(70,500,cs),
(70,250,ls),
(70,100,o),
(70,30,o),
(70,0,c),
(70,0,l)
);
}
);
width = 525;
},
{
anchors = (
{
name = bottom;
pos = (318,0);
},
{
name = center;
pos = (318,375);
},
{
name = top;
pos = (318,750);
},
{
name = topright;
pos = (615,750);
}
);
layerId = "C8CD87A0-2407-4F05-BADA-4D8336545B60";
metricLeft = "=N";
metricRight = "=N-60";
shapes = (
{
closed = 1;
nodes = (
(645,0,l),
(645,210,l),
(645,210,l),
(615,210,o),
(545,210,o),
(395,210,cs),
(290,210,l),
(290,500,l),
(290,650,o),
(290,720,o),
(290,750,c),
(290,750,l),
(50,750,l),
(50,750,l),
(50,720,o),
(50,650,o),
(50,500,cs),
(50,250,ls),
(50,100,o),
(50,30,o),
(50,0,c),
(50,0,l)
);
}
);
width = 635;
},
{
anchors = (
{
name = bottom;
pos = (255,0);
},
{
name = center;
pos = (255,375);
},
{
name = top;
pos = (255,750);
},
{
name = topright;
pos = (505,750);
}
);
layerId = "48DAC09D-95D4-4D70-8D14-87ABECD8575B";
metricLeft = "=N";
metricRight = "=N-60";
shapes = (
{
closed = 1;
nodes = (
(485,0,l),
(485,14,l),
(485,14,l),
(455,14,o),
(435,14,o),
(385,14,cs),
(101,14,l),
(101,690,l),
(101,720,o),
(101,740,o),
(101,750,c),
(101,750,l),
(85,750,l),
(85,750,l),
(85,740,o),
(85,720,o),
(85,690,cs),
(85,100,ls),
(85,50,o),
(85,30,o),
(85,0,c),
(85,0,l)
);
}
);
width = 510;
}
);
metricLeft = "=N";
metricRight = "=N-60";
unicode = 76;
},
{
glyphname = M;
lastChange = "2025-08-15 17:48:19 +0000";
layers = (
{
anchors = (
{
name = bottom;
pos = (503,0);
},
{
name = top;
pos = (503,750);
}
);
layerId = m01;
metricLeft = "=H";
metricRight = "=H";
shapes = (
{
closed = 1;
nodes = (
(544,0,l),
(775,617,l),
(775,122,l),
(775,78,o),
(745,56,o),
(690,38,c),
(690,0,l),
(959,0,l),
(965,38,l),
(911,57,o),
(875,68,o),
(875,103,c),
(875,667,l),
(891,689,o),
(905,699,o),
(958,712,c),
(958,750,l),
(737,750,l),
(510,116,l),
(284,750,l),
(47,750,l),
(41,712,l),
(101,693,o),
(130,669,o),
(130,638,cs),
(130,123,ls),
(130,78,o),
(100,56,o),
(40,38,c),
(40,0,l),
(290,0,l),
(296,38,l),
(247,57,o),
(211,68,o),
(211,103,cs),
(211,638,l),
(456,0,l)
);
}
);
width = 1005;
},
{
anchors = (
{
name = bottom;
pos = (535,0);
},
{
name = top;
pos = (535,750);
}
);
layerId = "C36E42DF-D6E4-4FAF-B5BA-99700BA29EB5";
metricLeft = "=H";
metricRight = "=H";
shapes = (
{
closed = 1;
nodes = (
(582,0,l),
(724,427,l),
(724,252,l),
(724,178,o),
(705,164,o),
(664,148,c),
(664,0,l),
(1023,0,l),
(1039,148,l),
(985,167,o),
(959,196,o),
(959,311,c),
(959,502,l),
(968,563,o),
(982,581,o),
(1019,602,c),
(1019,750,l),
(676,750,l),
(519,356,l),
(363,750,l),
(52,750,l),
(36,602,l),
(61,583,o),
(90,559,o),
(90,498,cs),
(90,262,ls),
(90,178,o),
(71,164,o),
(30,148,c),
(30,0,l),
(314,0,l),
(330,148,l),
(275,166,o),
(250,194,o),
(250,269,cs),
(250,448,l),
(425,0,l)
);
}
);
width = 1069;
},
{
anchors = (
{
name = bottom;
pos = (493,0);
},
{
name = top;
pos = (493,750);
}
);
layerId = "9E464B93-4987-4E25-B327-76BD95426741";
metricLeft = "=H";
metricRight = "=H";
shapes = (
{
closed = 1;
nodes = (
(504,0,l),
(811,727,l),
(811,38,l),
(811,8,o),
(764,8,o),
(711,8,c),
(711,0,l),
(926,0,l),
(930,8,l),
(880,8,o),
(830,8,o),
(830,38,c),
(830,712,l),
(830,742,o),
(880,742,o),
(930,742,c),
(930,750,l),
(803,750,l),
(495,20,l),
(180,750,l),
(59,750,l),
(55,742,l),
(105,742,o),
(155,742,o),
(155,712,cs),
(155,38,l),
(155,8,o),
(105,8,o),
(55,8,c),
(55,0,l),
(265,0,l),
(269,8,l),
(219,8,o),
(169,8,o),
(169,38,c),
(169,727,l),
(483,0,l)
);
}
);
width = 985;
},
{
anchors = (
{
name = bottom;
pos = (444,0);
},
{
name = top;
pos = (444,750);
}
);
layerId = "BABFB3A0-9CFA-45ED-BD0F-DD711F12EEFF";
metricLeft = "=N";
metricRight = "=N";
shapes = (
{
closed = 1;
nodes = (
(486,0,l),
(728,638,l),
(728,250,l),
(728,100,o),
(728,30,o),
(728,0,c),
(728,0,l),
(818,0,l),
(818,0,l),
(818,30,o),
(818,100,o),
(818,250,c),
(818,500,l),
(818,650,o),
(818,720,o),
(818,750,c),
(818,750,l),
(678,750,l),
(444,130,l),
(210,750,l),
(70,750,l),
(70,750,l),
(70,720,o),
(70,650,o),
(70,500,cs),
(70,250,ls),
(70,100,o),
(70,30,o),
(70,0,c),
(70,0,l),
(160,0,l),
(160,0,l),
(160,30,o),
(160,100,o),
(160,250,cs),
(160,638,l),
(402,0,l)
);
}
);
width = 888;
},
{
anchors = (
{
name = bottom;
pos = (527,0);
},
{
name = top;
pos = (527,750);
}
);
layerId = "C8CD87A0-2407-4F05-BADA-4D8336545B60";
metricLeft = "=N";
metricRight = "=N";
shapes = (
{
closed = 1;
nodes = (
(622,0,l),
(764,418,l),
(764,250,l),
(764,100,o),
(764,30,o),
(764,0,c),
(764,0,l),
(1004,0,l),
(1004,0,l),
(1004,30,o),
(1004,100,o),
(1004,250,c),
(1004,500,l),
(1004,650,o),
(1004,720,o),
(1004,750,c),
(1004,750,l),
(681,750,l),
(529,344,l),
(375,750,l),
(50,750,l),
(50,750,l),
(50,720,o),
(50,650,o),
(50,500,cs),
(50,250,ls),
(50,100,o),
(50,30,o),
(50,0,c),
(50,0,l),
(290,0,l),
(290,0,l),
(290,30,o),
(290,100,o),
(290,250,cs),
(290,418,l),
(432,0,l)
);
}
);
width = 1054;
},
{
anchors = (
{
name = bottom;
pos = (425,0);
},
{
name = top;
pos = (425,750);
}
);
layerId = "48DAC09D-95D4-4D70-8D14-87ABECD8575B";
metricLeft = "=N";
metricRight = "=N";
shapes = (
{
closed = 1;
nodes = (
(430,0,l),
(749,728,l),
(749,60,l),
(749,30,o),
(749,10,o),
(749,0,c),
(749,0,l),
(765,0,l),
(765,0,l),
(765,10,o),
(765,30,o),
(765,60,c),
(765,650,l),
(765,700,o),
(765,720,o),
(765,750,c),
(765,750,l),
(741,750,l),
(425,29,l),
(109,750,l),
(85,750,l),
(85,750,l),
(85,720,o),
(85,700,o),
(85,650,cs),
(85,60,ls),
(85,30,o),
(85,10,o),
(85,0,c),
(85,0,l),
(101,0,l),
(101,0,l),
(101,10,o),
(101,30,o),
(101,60,cs),
(101,728,l),
(420,0,l)
);
}
);
width = 850;
}
);
metricLeft = "=N";
metricRight = "=N";
unicode = 77;
},
{
glyphname = N;
kernRight = N;
lastChange = "2025-08-15 17:48:19 +0000";
layers = (
{
anchors = (
{
name = bottom;
pos = (431,0);
},
{
name = top;
pos = (431,750);
}
);
layerId = m01;
metricLeft = "=H";
metricRight = "=H-10";
shapes = (
{
closed = 1;
nodes = (
(750,667,l),
(766,689,o),
(781,702,o),
(832,715,c),
(832,750,l),
(587,750,l),
(581,712,l),
(626,693,o),
(665,669,o),
(665,638,cs),
(665,133,l),
(269,750,l),
(62,750,l),
(56,712,l),
(101,693,o),
(130,669,o),
(130,638,cs),
(130,123,ls),
(130,78,o),
(100,56,o),
(40,38,c),
(40,0,l),
(300,0,l),
(306,38,l),
(252,57,o),
(216,68,o),
(216,103,cs),
(216,638,l),
(642,0,l),
(750,0,l)
);
}
);
width = 862;
},
{
anchors = (
{
name = bottom;
pos = (465,0);
},
{
name = top;
pos = (465,750);
}
);
layerId = "C36E42DF-D6E4-4FAF-B5BA-99700BA29EB5";
metricLeft = "=H";
metricRight = "=H-10";
shapes = (
{
closed = 1;
nodes = (
(850,502,l),
(859,563,o),
(873,581,o),
(910,602,c),
(910,750,l),
(586,750,l),
(570,602,l),
(615,583,o),
(650,554,o),
(650,439,cs),
(650,350,l),
(353,750,l),
(52,750,l),
(36,602,l),
(61,583,o),
(90,559,o),
(90,498,cs),
(90,262,ls),
(90,178,o),
(71,164,o),
(30,148,c),
(30,0,l),
(354,0,l),
(370,148,l),
(315,166,o),
(290,196,o),
(290,311,cs),
(290,380,l),
(574,0,l),
(850,0,l)
);
}
);
width = 930;
},
{
anchors = (
{
name = bottom;
pos = (424,0);
},
{
name = top;
pos = (424,750);
}
);
layerId = "9E464B93-4987-4E25-B327-76BD95426741";
metricLeft = "=H";
metricRight = "=H-5";
shapes = (
{
closed = 1;
nodes = (
(698,712,l),
(698,742,o),
(748,742,o),
(798,742,c),
(798,750,l),
(588,750,l),
(584,742,l),
(634,742,o),
(684,742,o),
(684,712,cs),
(684,28,l),
(180,750,l),
(59,750,l),
(55,742,l),
(105,742,o),
(155,742,o),
(155,712,cs),
(155,38,ls),
(155,8,o),
(105,8,o),
(55,8,c),
(55,0,l),
(262,0,l),
(266,8,l),
(216,8,o),
(169,8,o),
(169,38,cs),
(169,732,l),
(680,0,l),
(698,0,l)
);
}
);
width = 848;
},
{
anchors = (
{
name = bottom;
pos = (370,0);
},
{
name = top;
pos = (370,750);
}
);
layerId = "BABFB3A0-9CFA-45ED-BD0F-DD711F12EEFF";
shapes = (
{
closed = 1;
nodes = (
(669,500,l),
(669,650,o),
(669,720,o),
(669,750,c),
(669,750,l),
(579,750,l),
(579,750,l),
(579,720,o),
(579,650,o),
(579,500,cs),
(579,135,l),
(197,750,l),
(70,750,l),
(70,750,l),
(70,720,o),
(70,650,o),
(70,500,cs),
(70,250,ls),
(70,100,o),
(70,30,o),
(70,0,c),
(70,0,l),
(160,0,l),
(160,0,l),
(160,30,o),
(160,100,o),
(160,250,cs),
(160,637,l),
(557,0,l),
(669,0,l)
);
}
);
width = 739;
},
{
anchors = (
{
name = bottom;
pos = (430,0);
},
{
name = top;
pos = (430,750);
}
);
layerId = "C8CD87A0-2407-4F05-BADA-4D8336545B60";
shapes = (
{
closed = 1;
nodes = (
(810,500,l),
(810,650,o),
(810,720,o),
(810,750,c),
(810,750,l),
(570,750,l),
(570,750,l),
(570,720,o),
(570,650,o),
(570,500,cs),
(570,365,l),
(300,750,l),
(50,750,l),
(50,750,l),
(50,720,o),
(50,650,o),
(50,500,cs),
(50,250,ls),
(50,100,o),
(50,30,o),
(50,0,c),
(50,0,l),
(290,0,l),
(290,0,l),
(290,30,o),
(290,100,o),
(290,250,cs),
(290,375,l),
(560,0,l),
(810,0,l)
);
}
);
width = 860;
},
{
anchors = (
{
name = bottom;
pos = (350,0);
},
{
name = top;
pos = (350,750);
}
);
layerId = "48DAC09D-95D4-4D70-8D14-87ABECD8575B";
shapes = (
{
closed = 1;
nodes = (
(614,690,l),
(614,720,o),
(614,740,o),
(614,750,c),
(614,750,l),
(598,750,l),
(598,750,l),
(598,740,o),
(598,720,o),
(598,690,cs),
(598,28,l),
(110,750,l),
(85,750,l),
(85,750,l),
(85,720,o),
(85,700,o),
(85,650,cs),
(85,60,ls),
(85,30,o),
(85,10,o),
(85,0,c),
(85,0,l),
(101,0,l),
(101,0,l),
(101,10,o),
(101,30,o),
(101,60,cs),
(101,734,l),
(597,0,l),
(614,0,l)
);
}
);
width = 699;
}
);
unicode = 78;
},
{
glyphname = Eng;
lastChange = "2025-08-15 17:48:19 +0000";
layers = (
{
layerId = "9E464B93-4987-4E25-B327-76BD95426741";
shapes = (
{
closed = 1;
nodes = (
(315,0,l),
(321,38,l),
(267,57,o),
(231,68,o),
(231,103,cs),
(231,638,l),
(657,0,l),
(657,-25,ls),
(657,-102,o),
(647,-149,o),
(594,-149,cs),
(561,-149,o),
(509,-113,o),
(490,-101,c),
(443,-165,l),
(470,-190,o),
(517,-220,o),
(570,-220,cs),
(689,-220,o),
(765,-137,o),
(765,-53,cs),
(765,667,l),
(781,689,o),
(796,702,o),
(847,715,c),
(847,750,l),
(602,750,l),
(596,712,l),
(641,693,o),
(680,669,o),
(680,638,cs),
(680,133,l),
(284,750,l),
(77,750,l),
(71,712,l),
(116,693,o),
(145,669,o),
(145,638,cs),
(145,123,ls),
(145,78,o),
(115,56,o),
(55,38,c),
(55,0,l)
);
}
);
width = 897;
},
{
layerId = "48DAC09D-95D4-4D70-8D14-87ABECD8575B";
shapes = (
{
closed = 1;
nodes = (
(175,0,l),
(175,0,l),
(175,30,o),
(175,100,o),
(175,250,cs),
(175,637,l),
(594,-28,l),
(594,-45,ls),
(594,-98,o),
(555,-136,o),
(508,-136,cs),
(462,-136,o),
(443,-114,o),
(422,-88,c),
(359,-139,l),
(376,-163,o),
(424,-220,o),
(507,-220,cs),
(605,-220,o),
(684,-142,o),
(684,-45,cs),
(684,500,l),
(684,650,o),
(684,720,o),
(684,750,c),
(684,750,l),
(594,750,l),
(594,750,l),
(594,720,o),
(594,650,o),
(594,500,cs),
(594,142,l),
(212,750,l),
(85,750,l),
(85,750,l),
(85,720,o),
(85,650,o),
(85,500,cs),
(85,250,ls),
(85,100,o),
(85,30,o),
(85,0,c),
(85,0,l)
);
}
);
width = 769;
},
{
layerId = m01;
shapes = (
{
closed = 1;
nodes = (
(300,0,l),
(306,38,l),
(252,57,o),
(216,68,o),
(216,103,cs),
(216,638,l),
(642,0,l),
(642,-25,ls),
(642,-102,o),
(632,-149,o),
(579,-149,cs),
(546,-149,o),
(494,-113,o),
(475,-101,c),
(428,-165,l),
(455,-190,o),
(502,-220,o),
(555,-220,cs),
(674,-220,o),
(750,-137,o),
(750,-53,cs),
(750,667,l),
(766,689,o),
(781,702,o),
(832,715,c),
(832,750,l),
(587,750,l),
(581,712,l),
(626,693,o),
(665,669,o),
(665,638,cs),
(665,133,l),
(269,750,l),
(62,750,l),
(56,712,l),
(101,693,o),
(130,669,o),
(130,638,cs),
(130,123,ls),
(130,78,o),
(100,56,o),
(40,38,c),
(40,0,l)
);
}
);
width = 862;
},
{
layerId = "BABFB3A0-9CFA-45ED-BD0F-DD711F12EEFF";
shapes = (
{
closed = 1;
nodes = (
(160,0,l),
(160,0,l),
(160,30,o),
(160,100,o),
(160,250,cs),
(160,637,l),
(579,-28,l),
(579,-45,ls),
(579,-98,o),
(540,-136,o),
(493,-136,cs),
(447,-136,o),
(428,-114,o),
(407,-88,c),
(344,-139,l),
(361,-163,o),
(409,-220,o),
(492,-220,cs),
(590,-220,o),
(669,-142,o),
(669,-45,cs),
(669,500,l),
(669,650,o),
(669,720,o),
(669,750,c),
(669,750,l),
(579,750,l),
(579,750,l),
(579,720,o),
(579,650,o),
(579,500,cs),
(579,142,l),
(197,750,l),
(70,750,l),
(70,750,l),
(70,720,o),
(70,650,o),
(70,500,cs),
(70,250,ls),
(70,100,o),
(70,30,o),
(70,0,c),
(70,0,l)
);
}
);
width = 739;
},
{
layerId = "C36E42DF-D6E4-4FAF-B5BA-99700BA29EB5";
shapes = (
{
closed = 1;
nodes = (
(290,0,l),
(296,38,l),
(242,57,o),
(206,68,o),
(206,103,cs),
(206,638,l),
(632,0,l),
(632,-25,ls),
(632,-102,o),
(622,-149,o),
(569,-149,cs),
(536,-149,o),
(484,-113,o),
(465,-101,c),
(418,-165,l),
(445,-190,o),
(492,-220,o),
(545,-220,cs),
(664,-220,o),
(740,-137,o),
(740,-53,cs),
(740,667,l),
(756,689,o),
(771,702,o),
(822,715,c),
(822,750,l),
(577,750,l),
(571,712,l),
(616,693,o),
(655,669,o),
(655,638,cs),
(655,133,l),
(259,750,l),
(52,750,l),
(46,712,l),
(91,693,o),
(120,669,o),
(120,638,cs),
(120,123,ls),
(120,78,o),
(90,56,o),
(30,38,c),
(30,0,l)
);
}
);
width = 842;
},
{
layerId = "C8CD87A0-2407-4F05-BADA-4D8336545B60";
shapes = (
{
closed = 1;
nodes = (
(140,0,l),
(140,0,l),
(140,30,o),
(140,100,o),
(140,250,cs),
(140,637,l),
(559,-28,l),
(559,-45,ls),
(559,-98,o),
(520,-136,o),
(473,-136,cs),
(427,-136,o),
(408,-114,o),
(387,-88,c),
(324,-139,l),
(341,-163,o),
(389,-220,o),
(472,-220,cs),
(570,-220,o),
(649,-142,o),
(649,-45,cs),
(649,500,l),
(649,650,o),
(649,720,o),
(649,750,c),
(649,750,l),
(559,750,l),
(559,750,l),
(559,720,o),
(559,650,o),
(559,500,cs),
(559,142,l),
(177,750,l),
(50,750,l),
(50,750,l),
(50,720,o),
(50,650,o),
(50,500,cs),
(50,250,ls),
(50,100,o),
(50,30,o),
(50,0,c),
(50,0,l)
);
}
);
width = 699;
}
);
metricLeft = "=N";
metricRight = "=N";
unicode = 330;
},
{
glyphname = O;
kernLeft = O;
kernRight = O;
lastChange = "2025-08-15 17:48:19 +0000";
layers = (
{
anchors = (
{
name = bottom;
pos = (413,0);
},
{
name = center;
pos = (413,375);
},
{
name = ogonek;
pos = (751,10);
},
{
name = top;
pos = (413,750);
},
{
name = topleft;
pos = (10,750);
},
{
name = topright;
pos = (686,610);
}
);
layerId = m01;
shapes = (
{
closed = 1;
nodes = (
(239,67,o),
(161,230,o),
(161,420,cs),
(161,585,o),
(258,683,o),
(405,683,cs),
(586,683,o),
(664,520,o),
(664,330,cs),
(664,165,o),
(567,67,o),
(420,67,cs)
);
},
{
closed = 1;
nodes = (
(581,-10,o),
(785,162,o),
(785,396,cs),
(785,594,o),
(665,760,o),
(427,760,cs),
(244,760,o),
(40,588,o),
(40,354,cs),
(40,156,o),
(160,-10,o),
(398,-10,cs)
);
}
);
width = 825;
},
{
anchors = (
{
name = bottom;
pos = (430,0);
},
{
name = center;
pos = (430,375);
},
{
name = ogonek;
pos = (773,10);
},
{
name = top;
pos = (430,750);
},
{
name = topleft;
pos = (20,750);
},
{
name = topright;
pos = (839,750);
}
);
layerId = "C36E42DF-D6E4-4FAF-B5BA-99700BA29EB5";
shapes = (
{
closed = 1;
nodes = (
(361,198,o),
(300,271,o),
(300,399,cs),
(300,482,o),
(347,552,o),
(420,552,cs),
(498,552,o),
(559,480,o),
(559,352,cs),
(559,268,o),
(512,198,o),
(439,198,cs)
);
},
{
closed = 1;
nodes = (
(656,-10,o),
(829,162,o),
(829,396,cs),
(829,594,o),
(689,760,o),
(435,760,cs),
(203,760,o),
(30,588,o),
(30,354,cs),
(30,156,o),
(170,-10,o),
(424,-10,cs)
);
}
);
width = 859;
},
{
anchors = (
{
name = bottom;
pos = (423,0);
},
{
name = center;
pos = (423,375);
},
{
name = ogonek;
pos = (773,10);
},
{
name = top;
pos = (423,750);
},
{
name = topleft;
pos = (5,750);
},
{
name = topright;
pos = (840,750);
}
);
layerId = "9E464B93-4987-4E25-B327-76BD95426741";
shapes = (
{
closed = 1;
nodes = (
(220,5,o),
(76,185,o),
(76,386,cs),
(76,577,o),
(246,745,o),
(422,745,cs),
(660,745,o),
(769,565,o),
(769,364,cs),
(769,173,o),
(635,5,o),
(432,5,cs)
);
},
{
closed = 1;
nodes = (
(641,-10,o),
(790,162,o),
(790,396,cs),
(790,584,o),
(665,760,o),
(437,760,cs),
(234,760,o),
(55,588,o),
(55,354,cs),
(55,166,o),
(210,-10,o),
(421,-10,cs)
);
}
);
width = 845;
},
{
anchors = (
{
name = bottom;
pos = (417,0);
},
{
name = center;
pos = (417,375);
},
{
name = ogonek;
pos = (731,10);
},
{
name = top;
pos = (417,750);
},
{
name = topleft;
pos = (10,750);
},
{
name = topright;
pos = (666,610);
}
);
layerId = "BABFB3A0-9CFA-45ED-BD0F-DD711F12EEFF";
shapes = (
{
closed = 1;
nodes = (
(256,74,o),
(130,212,o),
(130,375,cs),
(130,538,o),
(256,676,o),
(417,676,cs),
(578,676,o),
(704,538,o),
(704,375,cs),
(704,212,o),
(578,74,o),
(417,74,cs)
);
},
{
closed = 1;
nodes = (
(630,-10,o),
(794,162,o),
(794,375,cs),
(794,588,o),
(630,760,o),
(417,760,cs),
(204,760,o),
(40,588,o),
(40,375,cs),
(40,162,o),
(204,-10,o),
(417,-10,cs)
);
}
);
width = 834;
},
{
anchors = (
{
name = bottom;
pos = (415,0);
},
{
name = center;
pos = (415,375);
},
{
name = ogonek;
pos = (763,10);
},
{
name = top;
pos = (415,750);
},
{
name = topleft;
pos = (0,750);
},
{
name = topright;
pos = (830,750);
}
);
layerId = "C8CD87A0-2407-4F05-BADA-4D8336545B60";
shapes = (
{
closed = 1;
nodes = (
(337,213,o),
(283,275,o),
(283,375,cs),
(283,475,o),
(337,537,o),
(415,537,cs),
(493,537,o),
(547,475,o),
(547,375,cs),
(547,275,o),
(493,213,o),
(415,213,cs)
);
},
{
closed = 1;
nodes = (
(627,-10,o),
(810,152,o),
(810,375,cs),
(810,598,o),
(627,760,o),
(415,760,cs),
(203,760,o),
(20,598,o),
(20,375,cs),
(20,152,o),
(203,-10,o),
(415,-10,cs)
);
}
);
width = 830;
},
{
anchors = (
{
name = bottom;
pos = (430,0);
},
{
name = center;
pos = (430,375);
},
{
name = ogonek;
pos = (786,10);
},
{
name = top;
pos = (430,750);
},
{
name = topleft;
pos = (5,750);
},
{
name = topright;
pos = (855,750);
}
);
layerId = "48DAC09D-95D4-4D70-8D14-87ABECD8575B";
shapes = (
{
closed = 1;
nodes = (
(227,5,o),
(71,172,o),
(71,375,cs),
(71,578,o),
(227,745,o),
(430,745,cs),
(633,745,o),
(789,578,o),
(789,375,cs),
(789,172,o),
(633,5,o),
(430,5,cs)
);
},
{
closed = 1;
nodes = (
(643,-10,o),
(805,162,o),
(805,375,cs),
(805,588,o),
(643,760,o),
(430,760,cs),
(217,760,o),
(55,588,o),
(55,375,cs),
(55,162,o),
(217,-10,o),
(430,-10,cs)
);
}
);
width = 860;
}
);
unicode = 79;
},
{
glyphname = OE;
lastChange = "2025-08-15 17:48:19 +0000";
layers = (
{
layerId = "9E464B93-4987-4E25-B327-76BD95426741";
shapes = (
{
closed = 1;
nodes = (
(653,411,l),
(653,680,l),
(871,680,ls),
(935,680,o),
(940,608,o),
(940,575,c),
(993,563,l),
(1015,739,l),
(1000,750,l),
(442,750,ls),
(259,750,o),
(55,588,o),
(55,354,cs),
(55,156,o),
(175,0,o),
(413,0,cs),
(990,0,l),
(1045,174,l),
(995,192,l),
(971,119,o),
(921,70,o),
(852,70,cs),
(653,70,l),
(653,341,l),
(885,341,l),
(885,411,l)
);
},
{
closed = 1;
nodes = (
(176,585,o),
(273,686,o),
(420,683,cs),
(548,680,l),
(548,70,l),
(435,67,ls),
(254,62,o),
(176,230,o),
(176,420,cs)
);
}
);
width = 1090;
},
{
layerId = "48DAC09D-95D4-4D70-8D14-87ABECD8575B";
shapes = (
{
closed = 1;
nodes = (
(638,416,l),
(638,670,l),
(745,670,ls),
(895,670,o),
(965,670,o),
(995,670,c),
(995,670,l),
(995,750,l),
(995,750,l),
(412,750,ls),
(209,750,o),
(55,588,o),
(55,375,cs),
(55,162,o),
(209,0,o),
(412,0,cs),
(995,0,l),
(995,80,l),
(995,80,l),
(965,80,o),
(895,80,o),
(745,80,cs),
(638,80,l),
(638,336,l),
(870,336,l),
(870,416,l)
);
},
{
closed = 1;
nodes = (
(145,540,o),
(271,677,o),
(432,673,cs),
(548,670,l),
(548,80,l),
(432,77,ls),
(271,73,o),
(145,212,o),
(145,375,cs)
);
}
);
width = 1060;
},
{
layerId = m01;
shapes = (
{
closed = 1;
nodes = (
(638,411,l),
(638,680,l),
(856,680,ls),
(920,680,o),
(925,608,o),
(925,575,c),
(978,563,l),
(1000,739,l),
(985,750,l),
(427,750,ls),
(244,750,o),
(40,588,o),
(40,354,cs),
(40,156,o),
(160,0,o),
(398,0,cs),
(975,0,l),
(1030,174,l),
(980,192,l),
(956,119,o),
(906,70,o),
(837,70,cs),
(638,70,l),
(638,341,l),
(870,341,l),
(870,411,l)
);
},
{
closed = 1;
nodes = (
(161,585,o),
(258,686,o),
(405,683,cs),
(533,680,l),
(533,70,l),
(420,67,ls),
(239,62,o),
(161,230,o),
(161,420,cs)
);
}
);
width = 1060;
},
{
layerId = "BABFB3A0-9CFA-45ED-BD0F-DD711F12EEFF";
shapes = (
{
closed = 1;
nodes = (
(623,416,l),
(623,670,l),
(730,670,ls),
(880,670,o),
(950,670,o),
(980,670,c),
(980,670,l),
(980,750,l),
(980,750,l),
(397,750,ls),
(194,750,o),
(40,588,o),
(40,375,cs),
(40,162,o),
(194,0,o),
(397,0,cs),
(980,0,l),
(980,80,l),
(980,80,l),
(950,80,o),
(880,80,o),
(730,80,cs),
(623,80,l),
(623,336,l),
(855,336,l),
(855,416,l)
);
},
{
closed = 1;
nodes = (
(130,540,o),
(256,677,o),
(417,673,cs),
(533,670,l),
(533,80,l),
(417,77,ls),
(256,73,o),
(130,212,o),
(130,375,cs)
);
}
);
width = 1030;
},
{
layerId = "C36E42DF-D6E4-4FAF-B5BA-99700BA29EB5";
shapes = (
{
closed = 1;
nodes = (
(628,411,l),
(628,680,l),
(846,680,ls),
(910,680,o),
(915,608,o),
(915,575,c),
(968,563,l),
(990,739,l),
(975,750,l),
(417,750,ls),
(234,750,o),
(30,588,o),
(30,354,cs),
(30,156,o),
(150,0,o),
(388,0,cs),
(965,0,l),
(1020,174,l),
(970,192,l),
(946,119,o),
(896,70,o),
(827,70,cs),
(628,70,l),
(628,341,l),
(860,341,l),
(860,411,l)
);
},
{
closed = 1;
nodes = (
(151,585,o),
(248,686,o),
(395,683,cs),
(523,680,l),
(523,70,l),
(410,67,ls),
(229,62,o),
(151,230,o),
(151,420,cs)
);
}
);
width = 1040;
},
{
layerId = "C8CD87A0-2407-4F05-BADA-4D8336545B60";
shapes = (
{
closed = 1;
nodes = (
(753,470,l),
(753,540,l),
(859,540,ls),
(1009,540,o),
(1079,540,o),
(1109,540,c),
(1109,540,l),
(1109,750,l),
(1109,750,l),
(395,750,ls),
(202,750,o),
(20,598,o),
(20,375,cs),
(20,152,o),
(202,0,o),
(395,0,cs),
(1109,0,l),
(1109,210,l),
(1109,210,l),
(1079,210,o),
(1009,210,o),
(859,210,cs),
(753,210,l),
(753,280,l),
(933,280,l),
(933,470,l)
);
},
{
closed = 1;
nodes = (
(263,475,o),
(337,540,o),
(415,540,cs),
(513,540,l),
(513,210,l),
(415,210,ls),
(337,210,o),
(263,275,o),
(263,375,cs)
);
}
);
width = 1139;
}
);
metricLeft = "=O";
metricRight = "=E";
unicode = 338;
},
{
glyphname = P;
kernRight = P;
lastChange = "2025-08-15 17:48:19 +0000";
layers = (
{
anchors = (
{
name = bottom;
pos = (315,0);
},
{
name = top;
pos = (315,750);
}
);
layerId = m01;
metricLeft = "=H";
metricRight = "=E";
shapes = (
{
closed = 1;
nodes = (
(319,0,l),
(325,38,l),
(271,58,o),
(235,68,o),
(235,103,cs),
(235,311,l),
(302,311,ls),
(462,311,o),
(599,417,o),
(599,555,cs),
(599,679,o),
(496,750,o),
(375,750,cs),
(52,750,l),
(46,712,l),
(91,693,o),
(130,669,o),
(130,638,cs),
(130,123,ls),
(130,78,o),
(100,67,o),
(40,38,c),
(40,0,l)
);
},
{
closed = 1;
nodes = (
(235,680,l),
(325,680,ls),
(432,680,o),
(488,613,o),
(488,530,cs),
(488,452,o),
(443,391,o),
(326,391,cs),
(235,391,l)
);
}
);
width = 629;
},
{
anchors = (
{
name = bottom;
pos = (389,0);
},
{
name = top;
pos = (389,750);
}
);
layerId = "C36E42DF-D6E4-4FAF-B5BA-99700BA29EB5";
metricLeft = "=H";
metricRight = "=E";
shapes = (
{
closed = 1;
nodes = (
(394,0,l),
(410,132,l),
(355,147,o),
(330,166,o),
(330,221,cs),
(330,221,l),
(450,221,ls),
(624,221,o),
(758,351,o),
(758,501,cs),
(758,616,o),
(679,750,o),
(508,750,cs),
(52,750,l),
(36,602,l),
(61,583,o),
(90,559,o),
(90,498,cs),
(90,262,ls),
(90,178,o),
(71,164,o),
(30,148,c),
(30,0,l)
);
},
{
closed = 1;
nodes = (
(330,560,l),
(437,560,ls),
(481,560,o),
(516,527,o),
(516,486,cs),
(516,447,o),
(484,411,o),
(412,411,cs),
(330,411,l)
);
}
);
width = 778;
},
{
anchors = (
{
name = bottom;
pos = (291,0);
},
{
name = top;
pos = (291,750);
}
);
layerId = "9E464B93-4987-4E25-B327-76BD95426741";
metricLeft = "=H";
metricRight = "=E";
shapes = (
{
closed = 1;
nodes = (
(271,0,l),
(275,8,l),
(209,18,o),
(175,15,o),
(175,38,cs),
(175,341,l),
(279,341,ls),
(432,341,o),
(537,428,o),
(537,554,cs),
(537,660,o),
(446,750,o),
(315,750,cs),
(59,750,l),
(55,742,l),
(105,742,o),
(155,742,o),
(155,712,cs),
(155,38,ls),
(155,15,o),
(125,17,o),
(55,8,c),
(55,0,l)
);
},
{
closed = 1;
nodes = (
(175,739,l),
(305,739,ls),
(431,739,o),
(519,639,o),
(519,537,cs),
(519,439,o),
(429,352,o),
(286,352,cs),
(175,352,l)
);
}
);
width = 582;
},
{
anchors = (
{
name = bottom;
pos = (288,0);
},
{
name = top;
pos = (288,750);
}
);
layerId = "BABFB3A0-9CFA-45ED-BD0F-DD711F12EEFF";
metricLeft = "=N";
metricRight = "=N-30";
shapes = (
{
closed = 1;
nodes = (
(160,0,l),
(160,0,l),
(160,30,o),
(160,100,o),
(160,250,cs),
(160,311,l),
(317,311,ls),
(437,311,o),
(536,408,o),
(536,530,cs),
(536,651,o),
(437,750,o),
(317,750,cs),
(70,750,l),
(70,750,l),
(70,720,o),
(70,650,o),
(70,500,cs),
(70,250,ls),
(70,100,o),
(70,30,o),
(70,0,c),
(70,0,l)
);
},
{
closed = 1;
nodes = (
(160,670,l),
(310,670,ls),
(388,670,o),
(449,606,o),
(449,530,cs),
(449,454,o),
(388,391,o),
(310,391,cs),
(160,391,l)
);
}
);
width = 576;
},
{
anchors = (
{
name = bottom;
pos = (368,0);
},
{
name = top;
pos = (368,750);
}
);
layerId = "C8CD87A0-2407-4F05-BADA-4D8336545B60";
metricLeft = "=N";
metricRight = "=N-30";
shapes = (
{
closed = 1;
nodes = (
(290,0,l),
(290,0,l),
(290,30,o),
(290,100,o),
(290,159,cs),
(290,219,l),
(451,219,ls),
(597,219,o),
(716,338,o),
(716,485,cs),
(716,631,o),
(597,750,o),
(451,750,cs),
(50,750,l),
(50,750,l),
(50,720,o),
(50,650,o),
(50,500,cs),
(50,250,ls),
(50,100,o),
(50,30,o),
(50,0,c),
(50,0,l)
);
},
{
closed = 1;
nodes = (
(290,559,l),
(402,559,ls),
(446,559,o),
(481,526,o),
(481,485,cs),
(481,444,o),
(446,410,o),
(402,410,cs),
(290,410,l)
);
}
);
width = 736;
},
{
anchors = (
{
name = bottom;
pos = (261,0);
},
{
name = top;
pos = (261,750);
}
);
layerId = "48DAC09D-95D4-4D70-8D14-87ABECD8575B";
metricLeft = "=N";
metricRight = "=N-30";
shapes = (
{
closed = 1;
nodes = (
(101,6,l),
(101,6,l),
(101,16,o),
(101,35,o),
(101,65,cs),
(101,338,l),
(259,338,ls),
(376,338,o),
(466,429,o),
(466,544,cs),
(466,660,o),
(376,750,o),
(259,750,cs),
(85,750,l),
(85,750,l),
(85,720,o),
(85,700,o),
(85,651,cs),
(85,65,ls),
(85,35,o),
(85,16,o),
(85,6,c),
(85,6,l)
);
},
{
closed = 1;
nodes = (
(101,736,l),
(259,736,ls),
(365,736,o),
(450,650,o),
(450,545,cs),
(450,439,o),
(365,352,o),
(259,352,cs),
(101,352,l)
);
}
);
width = 521;
}
);
metricLeft = "=N";
metricRight = "=N-30";
unicode = 80;
},
{
glyphname = Thorn;
lastChange = "2025-08-15 17:48:19 +0000";
layers = (
{
layerId = "9E464B93-4987-4E25-B327-76BD95426741";
shapes = (
{
closed = 1;
nodes = (
(334,0,l),
(340,38,l),
(276,58,o),
(250,65,o),
(250,100,cs),
(250,181,l),
(338,181,ls),
(491,181,o),
(613,275,o),
(613,398,cs),
(613,509,o),
(521,572,o),
(403,572,cs),
(250,572,l),
(250,657,l),
(266,679,o),
(301,699,o),
(342,712,c),
(342,750,l),
(61,750,l),
(55,712,l),
(104,695,o),
(145,669,o),
(145,638,cs),
(145,123,ls),
(145,78,o),
(105,56,o),
(55,38,c),
(55,0,l)
);
},
{
closed = 1;
nodes = (
(250,510,l),
(359,510,ls),
(454,510,o),
(504,450,o),
(504,376,cs),
(504,307,o),
(464,252,o),
(360,252,cs),
(250,252,l)
);
}
);
width = 658;
},
{
layerId = "48DAC09D-95D4-4D70-8D14-87ABECD8575B";
shapes = (
{
closed = 1;
nodes = (
(175,0,l),
(175,0,l),
(175,30,o),
(175,100,o),
(175,181,cs),
(175,181,l),
(343,181,ls),
(449,181,o),
(538,269,o),
(538,377,cs),
(538,484,o),
(449,572,o),
(343,572,cs),
(175,572,l),
(175,572,l),
(175,650,o),
(175,720,o),
(175,750,c),
(175,750,l),
(85,750,l),
(85,750,l),
(85,720,o),
(85,650,o),
(85,500,cs),
(85,250,ls),
(85,100,o),
(85,30,o),
(85,0,c),
(85,0,l)
);
},
{
closed = 1;
nodes = (
(175,489,l),
(343,489,ls),
(401,489,o),
(450,438,o),
(450,377,cs),
(450,315,o),
(401,264,o),
(343,264,cs),
(175,264,l)
);
}
);
width = 593;
},
{
layerId = m01;
shapes = (
{
closed = 1;
nodes = (
(319,0,l),
(325,38,l),
(261,58,o),
(235,65,o),
(235,100,cs),
(235,181,l),
(323,181,ls),
(476,181,o),
(598,275,o),
(598,398,cs),
(598,509,o),
(506,572,o),
(388,572,cs),
(235,572,l),
(235,657,l),
(251,679,o),
(286,699,o),
(327,712,c),
(327,750,l),
(46,750,l),
(40,712,l),
(89,695,o),
(130,669,o),
(130,638,cs),
(130,123,ls),
(130,78,o),
(90,56,o),
(40,38,c),
(40,0,l)
);
},
{
closed = 1;
nodes = (
(235,510,l),
(344,510,ls),
(439,510,o),
(489,450,o),
(489,376,cs),
(489,307,o),
(449,252,o),
(345,252,cs),
(235,252,l)
);
}
);
width = 628;
},
{
layerId = "BABFB3A0-9CFA-45ED-BD0F-DD711F12EEFF";
shapes = (
{
closed = 1;
nodes = (
(160,0,l),
(160,0,l),
(160,30,o),
(160,100,o),
(160,181,cs),
(160,181,l),
(328,181,ls),
(434,181,o),
(523,269,o),
(523,377,cs),
(523,484,o),
(434,572,o),
(328,572,cs),
(160,572,l),
(160,572,l),
(160,650,o),
(160,720,o),
(160,750,c),
(160,750,l),
(70,750,l),
(70,750,l),
(70,720,o),
(70,650,o),
(70,500,cs),
(70,250,ls),
(70,100,o),
(70,30,o),
(70,0,c),
(70,0,l)
);
},
{
closed = 1;
nodes = (
(160,489,l),
(328,489,ls),
(386,489,o),
(435,438,o),
(435,377,cs),
(435,315,o),
(386,264,o),
(328,264,cs),
(160,264,l)
);
}
);
width = 563;
},
{
layerId = "C36E42DF-D6E4-4FAF-B5BA-99700BA29EB5";
shapes = (
{
closed = 1;
nodes = (
(309,0,l),
(315,38,l),
(251,58,o),
(225,65,o),
(225,100,cs),
(225,181,l),
(313,181,ls),
(466,181,o),
(588,275,o),
(588,398,cs),
(588,509,o),
(496,572,o),
(378,572,cs),
(225,572,l),
(225,657,l),
(241,679,o),
(276,699,o),
(317,712,c),
(317,750,l),
(36,750,l),
(30,712,l),
(79,695,o),
(120,669,o),
(120,638,cs),
(120,123,ls),
(120,78,o),
(80,56,o),
(30,38,c),
(30,0,l)
);
},
{
closed = 1;
nodes = (
(225,510,l),
(334,510,ls),
(429,510,o),
(479,450,o),
(479,376,cs),
(479,307,o),
(439,252,o),
(335,252,cs),
(225,252,l)
);
}
);
width = 608;
},
{
layerId = "C8CD87A0-2407-4F05-BADA-4D8336545B60";
shapes = (
{
closed = 1;
nodes = (
(140,0,l),
(140,0,l),
(140,30,o),
(140,100,o),
(140,181,cs),
(140,181,l),
(308,181,ls),
(414,181,o),
(503,269,o),
(503,377,cs),
(503,484,o),
(414,572,o),
(308,572,cs),
(140,572,l),
(140,572,l),
(140,650,o),
(140,720,o),
(140,750,c),
(140,750,l),
(50,750,l),
(50,750,l),
(50,720,o),
(50,650,o),
(50,500,cs),
(50,250,ls),
(50,100,o),
(50,30,o),
(50,0,c),
(50,0,l)
);
},
{
closed = 1;
nodes = (
(140,489,l),
(308,489,ls),
(366,489,o),
(415,438,o),
(415,377,cs),
(415,315,o),
(366,264,o),
(308,264,cs),
(140,264,l)
);
}
);
width = 523;
}
);
metricLeft = "=I";
metricRight = "=P";
unicode = 222;
},
{
glyphname = Q;
kernLeft = Q;
lastChange = "2025-08-15 17:48:19 +0000";
layers = (
{
anchors = (
{
name = bottom;
pos = (413,0);
},
{
name = top;
pos = (413,750);
}
);
layerId = m01;
metricLeft = "=O";
shapes = (
{
closed = 1;
nodes = (
(913,-220,o),
(976,-159,o),
(1006,-74,c),
(975,-50,l),
(952,-94,o),
(892,-125,o),
(850,-125,cs),
(754,-125,o),
(586,0,o),
(458,-24,c),
(686,87,o),
(785,225,o),
(785,396,cs),
(785,594,o),
(665,760,o),
(427,760,cs),
(244,760,o),
(40,588,o),
(40,354,cs),
(40,156,o),
(154,-10,o),
(415,-10,c),
(361,-52,o),
(297,-81,o),
(237,-111,c),
(275,-163,l),
(325,-114,o),
(385,-90,o),
(430,-90,cs),
(602,-90,o),
(701,-220,o),
(829,-220,cs)
);
},
{
closed = 1;
nodes = (
(239,67,o),
(161,230,o),
(161,420,cs),
(161,585,o),
(258,683,o),
(405,683,cs),
(586,683,o),
(664,520,o),
(664,330,cs),
(664,165,o),
(567,67,o),
(420,67,cs)
);
}
);
width = 826;
},
{
anchors = (
{
name = bottom;
pos = (422,0);
},
{
name = top;
pos = (422,750);
}
);
layerId = "C36E42DF-D6E4-4FAF-B5BA-99700BA29EB5";
metricLeft = "=o";
shapes = (
{
closed = 1;
nodes = (
(910,-220,o),
(992,-183,o),
(1043,-102,c),
(952,0,l),
(937,-28,o),
(897,-46,o),
(826,-46,cs),
(709,-46,o),
(640,28,o),
(461,-15,c),
(616,26,o),
(819,122,o),
(819,396,cs),
(819,594,o),
(679,760,o),
(425,760,cs),
(193,760,o),
(20,588,o),
(20,354,cs),
(20,136,o),
(189,13,o),
(336,-4,c),
(301,-28,o),
(244,-52,o),
(199,-61,c),
(291,-207,l),
(339,-175,o),
(409,-147,o),
(499,-147,cs),
(641,-147,o),
(698,-220,o),
(826,-220,cs)
);
},
{
closed = 1;
nodes = (
(351,198,o),
(290,271,o),
(290,399,cs),
(290,482,o),
(337,552,o),
(410,552,cs),
(488,552,o),
(549,480,o),
(549,352,cs),
(549,268,o),
(502,198,o),
(429,198,cs)
);
}
);
width = 843;
},
{
anchors = (
{
name = bottom;
pos = (423,0);
},
{
name = top;
pos = (423,750);
}
);
layerId = "9E464B93-4987-4E25-B327-76BD95426741";
metricLeft = "=O";
shapes = (
{
closed = 1;
nodes = (
(929,-177,o),
(970,-148,o),
(1010,-70,c),
(1005,-64,l),
(982,-108,o),
(935,-156,o),
(853,-156,cs),
(717,-156,o),
(593,-20,o),
(384,-64,c),
(630,36,o),
(790,147,o),
(790,396,cs),
(790,584,o),
(665,760,o),
(437,760,cs),
(234,760,o),
(55,588,o),
(55,354,cs),
(55,166,o),
(194,-53,o),
(487,-2,c),
(374,-54,o),
(315,-90,o),
(253,-115,c),
(265,-133,l),
(322,-97,o),
(367,-70,o),
(462,-70,cs),
(614,-70,o),
(737,-177,o),
(845,-177,cs)
);
},
{
closed = 1;
nodes = (
(190,5,o),
(76,185,o),
(76,386,cs),
(76,577,o),
(246,745,o),
(422,745,cs),
(660,745,o),
(769,565,o),
(769,364,cs),
(769,173,o),
(605,5,o),
(419,5,cs)
);
}
);
width = 845;
},
{
anchors = (
{
name = bottom;
pos = (414,0);
},
{
name = top;
pos = (414,750);
}
);
layerId = "BABFB3A0-9CFA-45ED-BD0F-DD711F12EEFF";
metricLeft = "=O";
shapes = (
{
closed = 1;
nodes = (
(921,-212,o),
(987,-167,o),
(1038,-116,c),
(986,-55,l),
(964,-78,o),
(909,-128,o),
(832,-128,cs),
(708,-128,o),
(620,0,o),
(467,-5,c),
(636,13,o),
(794,162,o),
(794,375,cs),
(794,588,o),
(630,760,o),
(417,760,cs),
(204,760,o),
(40,588,o),
(40,375,cs),
(40,177,o),
(194,-21,o),
(428,-8,c),
(344,-16,o),
(271,-64,o),
(228,-101,c),
(274,-168,l),
(332,-121,o),
(394,-87,o),
(473,-87,cs),
(623,-87,o),
(704,-212,o),
(839,-212,cs)
);
},
{
closed = 1;
nodes = (
(254,74,o),
(130,212,o),
(130,375,cs),
(130,538,o),
(254,676,o),
(417,676,cs),
(580,676,o),
(704,538,o),
(704,375,cs),
(704,212,o),
(580,74,o),
(417,74,cs)
);
}
);
width = 828;
},
{
anchors = (
{
name = bottom;
pos = (408,0);
},
{
name = top;
pos = (408,750);
}
);
layerId = "C8CD87A0-2407-4F05-BADA-4D8336545B60";
metricLeft = "=O";
shapes = (
{
closed = 1;
nodes = (
(916,-220,o),
(986,-204,o),
(1050,-173,c),
(931,-4,l),
(883,-23,o),
(829,-36,o),
(770,-36,cs),
(670,-36,o),
(626,1,o),
(543,12,c),
(654,47,o),
(810,164,o),
(810,375,cs),
(810,598,o),
(628,760,o),
(415,760,cs),
(202,760,o),
(20,598,o),
(20,375,cs),
(20,175,o),
(179,35,o),
(303,5,c),
(259,-4,o),
(208,-22,o),
(169,-51,c),
(288,-220,l),
(353,-185,o),
(420,-163,o),
(502,-163,cs),
(631,-163,o),
(702,-220,o),
(843,-220,cs)
);
},
{
closed = 1;
nodes = (
(337,213,o),
(283,275,o),
(283,375,cs),
(283,475,o),
(337,537,o),
(415,537,cs),
(493,537,o),
(547,475,o),
(547,375,cs),
(547,275,o),
(493,213,o),
(415,213,cs)
);
}
);
width = 836;
},
{
anchors = (
{
name = bottom;
pos = (421,0);
},
{
name = top;
pos = (421,750);
}
);
layerId = "48DAC09D-95D4-4D70-8D14-87ABECD8575B";
metricLeft = "=O";
shapes = (
{
closed = 1;
nodes = (
(907,-142,o),
(960,-107,o),
(1007,-63,c),
(998,-52,l),
(964,-87,o),
(909,-128,o),
(828,-128,cs),
(692,-128,o),
(627,-2,o),
(479,-4,c),
(658,17,o),
(805,167,o),
(805,375,cs),
(805,588,o),
(643,760,o),
(430,760,cs),
(217,760,o),
(55,588,o),
(55,375,cs),
(55,181,o),
(202,-21,o),
(443,-6,c),
(355,-19,o),
(284,-64,o),
(241,-101,c),
(249,-112,l),
(298,-72,o),
(384,-17,o),
(481,-17,cs),
(618,-17,o),
(690,-142,o),
(828,-142,cs)
);
},
{
closed = 1;
nodes = (
(227,6,o),
(71,172,o),
(71,375,cs),
(71,578,o),
(227,745,o),
(430,745,cs),
(633,745,o),
(789,578,o),
(789,375,cs),
(789,172,o),
(633,6,o),
(430,6,cs)
);
}
);
width = 842;
}
);
metricLeft = O;
unicode = 81;
},
{
glyphname = R;
kernRight = R;
lastChange = "2025-08-15 17:48:19 +0000";
layers = (
{
anchors = (
{
name = bottom;
pos = (378,0);
},
{
name = center;
pos = (184,354);
},
{
name = top;
pos = (378,750);
}
);
layerId = m01;
metricLeft = "=H";
metricRight = "=E-20";
shapes = (
{
closed = 1;
nodes = (
(319,0,l),
(325,38,l),
(271,58,o),
(235,68,o),
(235,103,cs),
(235,311,l),
(351,311,l),
(535,80,l),
(528,64,o),
(512,44,o),
(460,38,c),
(460,0,l),
(740,0,l),
(746,38,l),
(721,38,o),
(679,60,o),
(662,81,cs),
(448,343,l),
(537,384,o),
(599,462,o),
(599,555,cs),
(599,679,o),
(496,750,o),
(375,750,cs),
(47,750,l),
(41,712,l),
(91,693,o),
(130,669,o),
(130,638,cs),
(130,123,ls),
(130,78,o),
(90,56,o),
(40,38,c),
(40,0,l)
);
},
{
closed = 1;
nodes = (
(235,680,l),
(325,680,ls),
(432,680,o),
(488,613,o),
(488,530,cs),
(488,452,o),
(443,391,o),
(326,391,cs),
(235,391,l)
);
}
);
width = 756;
},
{
anchors = (
{
name = bottom;
pos = (416,0);
},
{
name = center;
pos = (194,354);
},
{
name = top;
pos = (416,750);
}
);
layerId = "C36E42DF-D6E4-4FAF-B5BA-99700BA29EB5";
metricLeft = "=H";
shapes = (
{
closed = 1;
nodes = (
(379,0,l),
(395,132,l),
(365,147,o),
(330,166,o),
(330,201,cs),
(330,258,l),
(463,251,l),
(497,166,l),
(478,147,o),
(464,138,o),
(438,132,c),
(440,0,l),
(805,0,l),
(811,148,l),
(786,151,o),
(742,159,o),
(726,189,cs),
(667,304,l),
(714,343,o),
(758,408,o),
(758,501,cs),
(758,616,o),
(679,750,o),
(508,750,cs),
(52,750,l),
(36,602,l),
(61,583,o),
(90,559,o),
(90,498,cs),
(90,262,ls),
(90,178,o),
(71,164,o),
(30,148,c),
(30,0,l)
);
},
{
closed = 1;
nodes = (
(330,567,l),
(437,567,ls),
(481,567,o),
(516,534,o),
(516,493,cs),
(516,454,o),
(484,418,o),
(412,418,cs),
(330,418,l)
);
}
);
width = 831;
},
{
anchors = (
{
name = bottom;
pos = (368,0);
},
{
name = center;
pos = (179,354);
},
{
name = top;
pos = (368,750);
}
);
layerId = "9E464B93-4987-4E25-B327-76BD95426741";
metricLeft = "=H";
metricRight = "=E-20";
shapes = (
{
closed = 1;
nodes = (
(271,0,l),
(275,8,l),
(227,8,o),
(175,8,o),
(175,38,cs),
(175,345,l),
(354,345,l),
(586,34,ls),
(606,7,o),
(535,8,o),
(485,8,c),
(485,0,l),
(706,0,l),
(710,8,l),
(660,8,o),
(629,7,o),
(609,34,cs),
(374,349,l),
(462,368,o),
(546,438,o),
(546,554,cs),
(546,659,o),
(455,750,o),
(324,750,cs),
(59,750,l),
(55,742,l),
(105,742,o),
(155,742,o),
(155,712,cs),
(155,38,ls),
(155,8,o),
(105,8,o),
(55,8,c),
(55,0,l)
);
},
{
closed = 1;
nodes = (
(175,739,l),
(314,739,ls),
(440,739,o),
(528,639,o),
(528,537,cs),
(528,443,o),
(446,356,o),
(334,356,cs),
(175,356,l)
);
}
);
width = 735;
},
{
anchors = (
{
name = bottom;
pos = (298,0);
},
{
name = center;
pos = (119,362);
},
{
name = top;
pos = (298,750);
}
);
layerId = "BABFB3A0-9CFA-45ED-BD0F-DD711F12EEFF";
metricLeft = "=N";
metricRight = "=N/2";
shapes = (
{
closed = 1;
nodes = (
(160,0,l),
(160,0,l),
(160,30,o),
(160,100,o),
(160,250,cs),
(160,322,l),
(283,322,l),
(380,150,ls),
(436,51,o),
(447,30,o),
(463,0,c),
(463,0,l),
(570,0,l),
(570,0,l),
(553,30,o),
(542,49,o),
(484,150,cs),
(380,331,l),
(461,358,o),
(534,429,o),
(534,547,cs),
(534,649,o),
(447,750,o),
(321,750,cs),
(70,750,l),
(70,750,l),
(70,720,o),
(70,650,o),
(70,500,cs),
(70,250,ls),
(70,100,o),
(70,30,o),
(70,0,c),
(70,0,l)
);
},
{
closed = 1;
nodes = (
(160,670,l),
(313,670,ls),
(386,670,o),
(447,611,o),
(447,538,cs),
(447,462,o),
(386,402,o),
(313,402,cs),
(160,402,l)
);
}
);
width = 610;
},
{
anchors = (
{
name = bottom;
pos = (381,0);
},
{
name = center;
pos = (129,362);
},
{
name = top;
pos = (381,750);
}
);
layerId = "C8CD87A0-2407-4F05-BADA-4D8336545B60";
metricLeft = "=N";
metricRight = "=N/2";
shapes = (
{
closed = 1;
nodes = (
(290,0,l),
(290,0,l),
(290,30,o),
(290,100,o),
(290,250,cs),
(290,250,l),
(290,250,l),
(350,150,ls),
(394,76,o),
(422,30,o),
(440,0,c),
(440,0,l),
(736,0,l),
(736,0,l),
(716,30,o),
(685,75,o),
(634,150,cs),
(560,259,l),
(637,290,o),
(725,369,o),
(725,493,cs),
(725,625,o),
(623,750,o),
(461,750,cs),
(50,750,l),
(50,750,l),
(50,720,o),
(50,650,o),
(50,500,cs),
(50,250,ls),
(50,100,o),
(50,30,o),
(50,0,c),
(50,0,l)
);
},
{
closed = 1;
nodes = (
(290,557,l),
(402,557,ls),
(447,557,o),
(481,524,o),
(481,483,cs),
(481,442,o),
(447,408,o),
(402,408,cs),
(290,408,l)
);
}
);
width = 766;
},
{
anchors = (
{
name = bottom;
pos = (274,0);
},
{
name = center;
pos = (114,362);
},
{
name = top;
pos = (274,750);
}
);
layerId = "48DAC09D-95D4-4D70-8D14-87ABECD8575B";
metricLeft = "=N";
metricRight = "=N/2";
shapes = (
{
closed = 1;
nodes = (
(101,0,l),
(101,0,l),
(101,10,o),
(101,30,o),
(101,60,cs),
(101,343,l),
(294,343,l),
(464,53,ls),
(478,30,o),
(486,15,o),
(494,0,c),
(494,0,l),
(513,0,l),
(513,0,l),
(505,15,o),
(495,31,o),
(482,54,cs),
(311,347,l),
(389,363,o),
(472,437,o),
(472,547,cs),
(472,659,o),
(378,750,o),
(266,750,cs),
(85,750,l),
(85,750,l),
(85,720,o),
(85,700,o),
(85,650,cs),
(85,60,ls),
(85,30,o),
(85,10,o),
(85,0,c),
(85,0,l)
);
},
{
closed = 1;
nodes = (
(101,736,l),
(267,736,ls),
(370,736,o),
(456,651,o),
(456,547,cs),
(456,443,o),
(370,357,o),
(267,357,cs),
(101,357,l)
);
}
);
width = 561;
}
);
metricLeft = "=N";
unicode = 82;
},
{
glyphname = S;
lastChange = "2025-08-15 17:48:19 +0000";
layers = (
{
anchors = (
{
name = bottom;
pos = (319,0);
},
{
name = top;
pos = (309,750);
}
);
layerId = m01;
metricLeft = "=O+5";
metricRight = "=O+5";
shapes = (
{
closed = 1;
nodes = (
(451,-10,o),
(572,103,o),
(572,213,cs),
(572,353,o),
(453,398,o),
(333,438,cs),
(218,476,o),
(184,517,o),
(184,578,cs),
(184,627,o),
(235,677,o),
(318,677,cs),
(433,677,o),
(467,623,o),
(485,558,c),
(544,562,l),
(532,706,l),
(494,740,o),
(436,760,o),
(348,760,cs),
(226,760,o),
(81,654,o),
(81,530,cs),
(81,441,o),
(162,381,o),
(259,347,cs),
(361,311,o),
(468,262,o),
(468,181,cs),
(468,113,o),
(429,71,o),
(326,71,cs),
(212,71,o),
(140,112,o),
(110,238,c),
(45,237,l),
(74,31,l),
(123,19,o),
(190,-10,o),
(290,-10,cs)
);
}
);
width = 617;
},
{
anchors = (
{
name = bottom;
pos = (362,0);
},
{
name = top;
pos = (362,750);
}
);
background = {
shapes = (
{
closed = 1;
nodes = (
(494,478,l),
(494,478,l),
(468,530,o),
(423,577,o),
(348,577,cs),
(302,577,o),
(283,559,o),
(283,540,cs),
(283,519,o),
(306,504,o),
(407,471,cs),
(539,428,o),
(674,358,o),
(674,206,cs),
(674,70,o),
(539,-10,o),
(356,-10,cs),
(213,-10,o),
(98,34,o),
(26,150,c),
(213,288,l),
(213,288,l),
(253,216,o),
(304,185,o),
(367,185,cs),
(408,185,o),
(434,198,o),
(434,219,cs),
(434,241,o),
(406,258,o),
(328,284,cs),
(177,334,o),
(58,404,o),
(58,545,cs),
(58,678,o),
(197,760,o),
(356,760,cs),
(496,760,o),
(606,701,o),
(671,602,c)
);
}
);
};
layerId = "C36E42DF-D6E4-4FAF-B5BA-99700BA29EB5";
metricLeft = "=O+5";
metricRight = "=O+5";
shapes = (
{
closed = 1;
nodes = (
(587,-10,o),
(688,103,o),
(688,203,cs),
(688,373,o),
(506,437,o),
(389,483,cs),
(292,521,o),
(280,535,o),
(280,553,cs),
(280,565,o),
(293,580,o),
(340,580,cs),
(419,580,o),
(471,535,o),
(503,458,c),
(650,472,l),
(650,679,l),
(578,721,o),
(492,760,o),
(354,760,cs),
(202,760,o),
(57,674,o),
(57,540,cs),
(57,401,o),
(215,320,o),
(324,283,cs),
(417,251,o),
(439,235,o),
(439,218,cs),
(439,203,o),
(427,188,o),
(369,188,cs),
(298,188,o),
(228,241,o),
(186,328,c),
(35,318,l),
(64,54,l),
(149,22,o),
(246,-10,o),
(366,-10,cs)
);
}
);
width = 723;
},
{
anchors = (
{
name = bottom;
pos = (295,0);
},
{
name = top;
pos = (295,750);
}
);
layerId = "9E464B93-4987-4E25-B327-76BD95426741";
metricLeft = "=O+5";
metricRight = "=O+5";
shapes = (
{
closed = 1;
nodes = (
(460,-10,o),
(529,103,o),
(529,213,cs),
(529,293,o),
(448,364,o),
(323,399,cs),
(203,433,o),
(115,490,o),
(115,578,cs),
(115,649,o),
(184,745,o),
(291,745,cs),
(412,745,o),
(499,668,o),
(507,593,c),
(515,594,l),
(510,671,l),
(472,715,o),
(405,760,o),
(312,760,cs),
(189,760,o),
(97,665,o),
(97,561,cs),
(97,486,o),
(179,422,o),
(283,393,cs),
(430,352,o),
(515,285,o),
(515,191,cs),
(515,116,o),
(470,11,o),
(302,11,cs),
(193,11,o),
(85,62,o),
(68,158,c),
(60,157,l),
(76,71,l),
(128,28,o),
(189,-10,o),
(294,-10,cs)
);
}
);
width = 589;
},
{
anchors = (
{
name = bottom;
pos = (334,0);
},
{
name = top;
pos = (334,750);
}
);
layerId = "BABFB3A0-9CFA-45ED-BD0F-DD711F12EEFF";
metricLeft = "=O";
metricRight = "=O+10";
shapes = (
{
closed = 1;
nodes = (
(504,-10,o),
(599,82,o),
(599,196,cs),
(599,311,o),
(503,373,o),
(392,413,cs),
(279,454,o),
(183,490,o),
(183,568,cs),
(183,637,o),
(257,676,o),
(330,676,cs),
(431,676,o),
(492,604,o),
(523,554,c),
(523,554,l),
(596,607,l),
(539,693,o),
(462,760,o),
(338,760,cs),
(207,760,o),
(93,699,o),
(93,565,cs),
(93,445,o),
(182,401,o),
(313,352,cs),
(439,305,o),
(509,271,o),
(509,196,cs),
(509,114,o),
(424,74,o),
(339,74,cs),
(249,74,o),
(171,119,o),
(111,205,c),
(111,205,l),
(40,153,l),
(116,37,o),
(218,-10,o),
(341,-10,cs)
);
}
);
width = 649;
},
{
anchors = (
{
name = bottom;
pos = (349,0);
},
{
name = top;
pos = (349,750);
}
);
layerId = "C8CD87A0-2407-4F05-BADA-4D8336545B60";
metricLeft = "=O";
metricRight = "=O+10";
shapes = (
{
closed = 1;
nodes = (
(533,-10,o),
(668,70,o),
(668,206,cs),
(668,358,o),
(533,428,o),
(401,471,cs),
(300,504,o),
(277,519,o),
(277,540,cs),
(277,559,o),
(296,577,o),
(342,577,cs),
(417,577,o),
(462,530,o),
(488,478,c),
(488,478,l),
(665,602,l),
(600,701,o),
(490,760,o),
(350,760,cs),
(191,760,o),
(52,678,o),
(52,545,cs),
(52,404,o),
(171,334,o),
(322,284,cs),
(400,258,o),
(428,241,o),
(428,219,cs),
(428,198,o),
(402,185,o),
(361,185,cs),
(298,185,o),
(247,216,o),
(207,288,c),
(207,288,l),
(20,150,l),
(92,34,o),
(207,-10,o),
(350,-10,cs)
);
}
);
width = 698;
},
{
anchors = (
{
name = bottom;
pos = (302,0);
},
{
name = top;
pos = (302,750);
}
);
layerId = "48DAC09D-95D4-4D70-8D14-87ABECD8575B";
metricLeft = "=O";
metricRight = "=O+10";
shapes = (
{
closed = 1;
nodes = (
(447,-10,o),
(538,72,o),
(538,181,cs),
(538,297,o),
(438,352,o),
(321,393,cs),
(199,435,o),
(109,467,o),
(109,575,cs),
(109,687,o),
(215,745,o),
(313,745,cs),
(422,745,o),
(490,672,o),
(516,608,c),
(516,608,l),
(529,617,l),
(494,694,o),
(426,760,o),
(313,760,cs),
(200,760,o),
(93,694,o),
(93,575,cs),
(93,461,o),
(184,422,o),
(297,385,cs),
(424,343,o),
(522,289,o),
(522,181,cs),
(522,79,o),
(434,5,o),
(317,5,cs),
(191,5,o),
(116,74,o),
(68,160,c),
(68,160,l),
(55,151,l),
(111,51,o),
(191,-10,o),
(317,-10,cs)
);
}
);
width = 603;
}
);
metricLeft = "=O";
metricRight = "=O+10";
unicode = 83;
},
{
glyphname = Germandbls;
lastChange = "2025-08-15 17:48:19 +0000";
layers = (
{
layerId = "9E464B93-4987-4E25-B327-76BD95426741";
shapes = (
{
closed = 1;
nodes = (
(256,680,l),
(553,680,l),
(366,362,l),
(388,328,l),
(447,359,o),
(509,362,o),
(563,351,cs),
(638,335,o),
(695,285,o),
(695,197,cs),
(695,115,o),
(639,61,o),
(574,61,cs),
(497,61,o),
(437,97,o),
(424,155,c),
(376,154,l),
(400,23,l),
(424,12,o),
(463,-10,o),
(538,-10,cs),
(690,-10,o),
(802,113,o),
(802,231,cs),
(802,346,o),
(696,428,o),
(567,428,cs),
(528,428,o),
(501,418,o),
(481,409,c),
(688,687,l),
(688,738,l),
(671,750,l),
(61,750,l),
(55,712,l),
(110,693,o),
(149,669,o),
(149,638,cs),
(149,123,ls),
(149,78,o),
(109,56,o),
(59,38,c),
(59,0,l),
(338,0,l),
(344,38,l),
(290,55,o),
(254,70,o),
(254,103,cs)
);
}
);
width = 847;
},
{
layerId = "48DAC09D-95D4-4D70-8D14-87ABECD8575B";
shapes = (
{
closed = 1;
nodes = (
(176,670,l),
(528,670,l),
(308,399,l),
(308,328,l),
(362,346,o),
(410,354,o),
(466,354,cs),
(558,354,o),
(626,299,o),
(626,217,cs),
(626,140,o),
(563,74,o),
(466,74,cs),
(367,74,o),
(319,132,o),
(298,207,c),
(298,207,l),
(215,172,l),
(238,60,o),
(330,-10,o),
(466,-10,cs),
(618,-10,o),
(718,90,o),
(718,208,cs),
(718,334,o),
(616,427,o),
(507,427,cs),
(468,427,o),
(446,423,o),
(428,417,c),
(634,670,l),
(634,750,l),
(634,750,l),
(85,750,l),
(85,750,l),
(85,720,o),
(85,650,o),
(85,500,cs),
(85,250,ls),
(85,100,o),
(85,30,o),
(85,0,c),
(85,0,l),
(175,0,l),
(175,0,l),
(175,30,o),
(175,100,o),
(175,250,cs)
);
}
);
width = 763;
},
{
layerId = m01;
shapes = (
{
closed = 1;
nodes = (
(241,680,l),
(538,680,l),
(351,362,l),
(373,328,l),
(432,359,o),
(494,362,o),
(548,351,cs),
(623,335,o),
(680,285,o),
(680,197,cs),
(680,115,o),
(624,61,o),
(559,61,cs),
(482,61,o),
(422,97,o),
(409,155,c),
(361,154,l),
(385,23,l),
(409,12,o),
(448,-10,o),
(523,-10,cs),
(675,-10,o),
(787,113,o),
(787,231,cs),
(787,346,o),
(681,428,o),
(552,428,cs),
(513,428,o),
(486,418,o),
(466,409,c),
(673,687,l),
(673,738,l),
(656,750,l),
(46,750,l),
(40,712,l),
(95,693,o),
(134,669,o),
(134,638,cs),
(134,123,ls),
(134,78,o),
(94,56,o),
(44,38,c),
(44,0,l),
(323,0,l),
(329,38,l),
(275,55,o),
(239,70,o),
(239,103,cs)
);
}
);
width = 817;
},
{
layerId = "BABFB3A0-9CFA-45ED-BD0F-DD711F12EEFF";
shapes = (
{
closed = 1;
nodes = (
(161,670,l),
(513,670,l),
(293,399,l),
(293,328,l),
(347,346,o),
(395,354,o),
(451,354,cs),
(543,354,o),
(611,299,o),
(611,217,cs),
(611,140,o),
(548,74,o),
(451,74,cs),
(352,74,o),
(304,132,o),
(283,207,c),
(283,207,l),
(200,172,l),
(223,60,o),
(315,-10,o),
(451,-10,cs),
(603,-10,o),
(703,90,o),
(703,208,cs),
(703,334,o),
(601,427,o),
(492,427,cs),
(453,427,o),
(431,423,o),
(413,417,c),
(619,670,l),
(619,750,l),
(619,750,l),
(70,750,l),
(70,750,l),
(70,720,o),
(70,650,o),
(70,500,cs),
(70,250,ls),
(70,100,o),
(70,30,o),
(70,0,c),
(70,0,l),
(160,0,l),
(160,0,l),
(160,30,o),
(160,100,o),
(160,250,cs)
);
}
);
width = 733;
},
{
layerId = "C36E42DF-D6E4-4FAF-B5BA-99700BA29EB5";
shapes = (
{
closed = 1;
nodes = (
(330,576,l),
(599,576,l),
(472,362,l),
(520,289,l),
(548,315,o),
(590,343,o),
(647,329,cs),
(691,318,o),
(726,285,o),
(726,241,cs),
(726,202,o),
(698,167,o),
(648,167,cs),
(620,167,o),
(589,178,o),
(563,215,c),
(446,214,l),
(459,55,l),
(523,19,o),
(576,-10,o),
(654,-10,cs),
(804,-10,o),
(962,98,o),
(962,252,cs),
(962,365,o),
(880,428,o),
(791,428,cs),
(765,428,o),
(739,424,o),
(710,415,c),
(831,590,l),
(831,710,l),
(781,750,l),
(52,750,l),
(36,602,l),
(61,583,o),
(90,559,o),
(90,498,cs),
(90,262,ls),
(90,178,o),
(71,164,o),
(30,148,c),
(30,0,l),
(394,0,l),
(410,148,l),
(356,165,o),
(330,194,o),
(330,269,cs)
);
}
);
width = 982;
},
{
background = {
shapes = (
{
closed = 1;
nodes = (
(292,576,l),
(561,576,l),
(434,362,l),
(482,289,l),
(510,315,o),
(552,343,o),
(609,329,cs),
(653,318,o),
(688,285,o),
(688,241,cs),
(688,202,o),
(660,167,o),
(610,167,cs),
(582,167,o),
(551,178,o),
(525,215,c),
(408,214,l),
(421,55,l),
(485,19,o),
(538,-10,o),
(616,-10,cs),
(766,-10,o),
(924,98,o),
(924,252,cs),
(924,365,o),
(842,428,o),
(753,428,cs),
(727,428,o),
(701,424,o),
(672,415,c),
(793,590,l),
(793,710,l),
(743,750,l),
(14,750,l),
(-2,602,l),
(23,583,o),
(52,559,o),
(52,498,cs),
(52,262,ls),
(52,178,o),
(33,164,o),
(-8,148,c),
(-8,0,l),
(356,0,l),
(372,148,l),
(318,165,o),
(292,194,o),
(292,269,cs)
);
}
);
};
layerId = "C8CD87A0-2407-4F05-BADA-4D8336545B60";
shapes = (
{
closed = 1;
nodes = (
(290,540,l),
(542,540,l),
(454,400,l),
(454,289,l),
(496,303,o),
(544,314,o),
(593,314,cs),
(654,314,o),
(693,296,o),
(693,253,cs),
(693,212,o),
(656,176,o),
(598,176,cs),
(548,176,o),
(512,203,o),
(503,254,c),
(503,254,l),
(319,190,l),
(356,58,o),
(458,-10,o),
(598,-10,cs),
(793,-10,o),
(928,77,o),
(928,208,cs),
(928,314,o),
(860,427,o),
(743,427,cs),
(732,427,o),
(722,426,o),
(714,425,c),
(789,540,l),
(789,750,l),
(789,750,l),
(50,750,l),
(50,750,l),
(50,720,o),
(50,650,o),
(50,500,cs),
(50,250,ls),
(50,100,o),
(50,30,o),
(50,0,c),
(50,0,l),
(289,0,l),
(289,0,l),
(289,30,o),
(288,100,o),
(289,250,cs)
);
}
);
width = 948;
}
);
metricLeft = "=H";
metricRight = "=o";
unicode = 7838;
},
{
glyphname = T;
kernLeft = T;
kernRight = T;
lastChange = "2025-08-15 17:48:19 +0000";
layers = (
{
anchors = (
{
name = bottom;
pos = (340,0);
},
{
name = center;
pos = (340,375);
},
{
name = top;
pos = (340,750);
}
);
layerId = m01;
metricLeft = "=E-20";
metricRight = "=E-20";
shapes = (
{
closed = 1;
nodes = (
(475,0,l),
(481,38,l),
(427,58,o),
(391,68,o),
(391,103,cs),
(391,680,l),
(509,680,ls),
(563,680,o),
(578,598,o),
(578,565,c),
(631,553,l),
(653,739,l),
(638,750,l),
(35,750,l),
(20,739,l),
(42,553,l),
(95,565,l),
(95,598,o),
(110,680,o),
(164,680,cs),
(286,680,l),
(286,123,ls),
(286,78,o),
(246,62,o),
(196,38,c),
(196,0,l)
);
}
);
width = 663;
},
{
anchors = (
{
name = bottom;
pos = (412,0);
},
{
name = center;
pos = (412,375);
},
{
name = top;
pos = (412,750);
}
);
layerId = "C36E42DF-D6E4-4FAF-B5BA-99700BA29EB5";
metricLeft = "=E-20";
metricRight = "=E-20";
shapes = (
{
closed = 1;
nodes = (
(585,0,l),
(601,148,l),
(563,166,o),
(538,184,o),
(538,269,cs),
(538,546,l),
(565,546,ls),
(626,546,o),
(647,528,o),
(644,475,c),
(787,453,l),
(823,700,l),
(774,750,l),
(59,750,l),
(10,700,l),
(46,453,l),
(189,475,l),
(186,528,o),
(207,546,o),
(268,546,cs),
(298,546,l),
(298,262,ls),
(298,178,o),
(279,164,o),
(238,148,c),
(238,0,l)
);
}
);
width = 823;
},
{
anchors = (
{
name = bottom;
pos = (302,0);
},
{
name = center;
pos = (302,375);
},
{
name = top;
pos = (302,750);
}
);
layerId = "9E464B93-4987-4E25-B327-76BD95426741";
metricLeft = "=E-20";
metricRight = "=E-20";
shapes = (
{
closed = 1;
nodes = (
(413,0,l),
(417,8,l),
(367,8,o),
(317,8,o),
(317,38,cs),
(317,739,l),
(494,739,ls),
(559,739,o),
(567,739,o),
(554,629,c),
(565,625,l),
(579,739,l),
(564,750,l),
(50,750,l),
(35,739,l),
(49,625,l),
(60,629,l),
(47,739,o),
(55,739,o),
(120,739,cs),
(297,739,l),
(297,38,ls),
(297,8,o),
(247,8,o),
(197,8,c),
(197,0,l)
);
}
);
width = 604;
},
{
anchors = (
{
name = bottom;
pos = (305,0);
},
{
name = center;
pos = (305,375);
},
{
name = top;
pos = (305,750);
}
);
layerId = "BABFB3A0-9CFA-45ED-BD0F-DD711F12EEFF";
shapes = (
{
closed = 1;
nodes = (
(350,0,l),
(350,0,l),
(350,30,o),
(350,100,o),
(350,250,cs),
(350,670,l),
(350,670,ls),
(500,670,o),
(570,670,o),
(600,670,c),
(600,670,l),
(600,750,l),
(600,750,l),
(10,750,l),
(10,750,l),
(10,670,l),
(10,670,l),
(40,670,o),
(100,670,o),
(260,670,c),
(260,670,l),
(260,250,ls),
(260,100,o),
(260,30,o),
(260,0,c),
(260,0,l)
);
}
);
width = 610;
},
{
anchors = (
{
name = bottom;
pos = (355,0);
},
{
name = center;
pos = (355,375);
},
{
name = top;
pos = (355,750);
}
);
layerId = "C8CD87A0-2407-4F05-BADA-4D8336545B60";
shapes = (
{
closed = 1;
nodes = (
(475,0,l),
(475,0,l),
(475,30,o),
(475,100,o),
(475,250,cs),
(475,530,l),
(475,530,ls),
(625,530,o),
(670,530,o),
(700,530,c),
(700,530,l),
(700,750,l),
(700,750,l),
(10,750,l),
(10,750,l),
(10,530,l),
(10,530,l),
(40,530,o),
(85,530,o),
(235,530,cs),
(235,530,l),
(235,250,ls),
(235,100,o),
(235,30,o),
(235,0,c),
(235,0,l)
);
}
);
width = 710;
},
{
anchors = (
{
name = bottom;
pos = (298,0);
},
{
name = center;
pos = (298,375);
},
{
name = top;
pos = (298,750);
}
);
layerId = "48DAC09D-95D4-4D70-8D14-87ABECD8575B";
shapes = (
{
closed = 1;
nodes = (
(306,0,l),
(306,0,l),
(306,10,o),
(306,30,o),
(306,60,cs),
(306,736,l),
(471,736,ls),
(521,736,o),
(541,736,o),
(571,736,c),
(571,736,l),
(571,750,l),
(571,750,l),
(25,750,l),
(25,750,l),
(25,736,l),
(25,736,l),
(55,736,o),
(75,736,o),
(125,736,cs),
(290,736,l),
(290,60,ls),
(290,30,o),
(290,10,o),
(290,0,c),
(290,0,l)
);
}
);
width = 596;
}
);
unicode = 84;
},
{
glyphname = U;
kernLeft = U;
kernRight = U;
lastChange = "2025-08-15 17:48:19 +0000";
layers = (
{
anchors = (
{
name = bottom;
pos = (428,0);
},
{
name = center;
pos = (432,399);
},
{
name = ogonek;
pos = (527,10);
},
{
name = top;
pos = (428,750);
},
{
name = topright;
pos = (845,750);
}
);
layerId = m01;
metricLeft = "=H-5";
metricRight = "=H-5";
shapes = (
{
closed = 1;
nodes = (
(298,67,o),
(233,188,o),
(233,315,cs),
(233,675,l),
(246,695,o),
(278,704,o),
(327,712,c),
(327,750,l),
(41,750,l),
(35,712,l),
(86,707,o),
(114,693,o),
(124,675,c),
(124,264,ls),
(124,112,o),
(243,-10,o),
(406,-10,cs),
(588,-10,o),
(731,110,o),
(731,315,cs),
(731,673,l),
(743,695,o),
(777,709,o),
(820,712,c),
(820,750,l),
(552,750,l),
(546,712,l),
(590,705,o),
(627,691,o),
(640,673,c),
(640,295,ls),
(640,165,o),
(577,67,o),
(440,67,cs)
);
}
);
width = 855;
},
{
anchors = (
{
name = bottom;
pos = (411,0);
},
{
name = center;
pos = (442,399);
},
{
name = ogonek;
pos = (740,10);
},
{
name = top;
pos = (411,750);
},
{
name = topright;
pos = (802,750);
}
);
layerId = "C36E42DF-D6E4-4FAF-B5BA-99700BA29EB5";
metricLeft = "=H-5";
metricRight = "=H-5";
shapes = (
{
closed = 1;
nodes = (
(374,190,o),
(329,236,o),
(329,301,cs),
(329,502,l),
(338,563,o),
(352,581,o),
(389,602,c),
(389,750,l),
(41,750,l),
(25,602,l),
(50,583,o),
(79,559,o),
(79,498,c),
(79,264,ls),
(79,92,o),
(242,-10,o),
(395,-10,cs),
(557,-10,o),
(737,69,o),
(737,335,cs),
(737,502,l),
(746,563,o),
(760,581,o),
(797,602,c),
(797,750,l),
(494,750,l),
(478,602,l),
(503,583,o),
(532,559,o),
(532,498,c),
(532,281,ls),
(532,231,o),
(491,190,o),
(434,190,cs)
);
}
);
width = 822;
},
{
anchors = (
{
name = bottom;
pos = (424,0);
},
{
name = center;
pos = (427,399);
},
{
name = ogonek;
pos = (774,10);
},
{
name = top;
pos = (424,750);
},
{
name = topright;
pos = (842,750);
}
);
layerId = "9E464B93-4987-4E25-B327-76BD95426741";
metricLeft = "=H-5";
metricRight = "=H-5";
shapes = (
{
closed = 1;
nodes = (
(280,5,o),
(170,114,o),
(170,289,cs),
(170,712,l),
(170,742,o),
(217,742,o),
(270,742,c),
(270,750,l),
(54,750,l),
(50,742,l),
(100,742,o),
(150,742,o),
(150,712,c),
(150,264,ls),
(150,108,o),
(253,-10,o),
(418,-10,cs),
(574,-10,o),
(697,90,o),
(697,285,cs),
(697,712,l),
(697,742,o),
(744,742,o),
(797,742,c),
(797,750,l),
(585,750,l),
(581,742,l),
(631,742,o),
(681,742,o),
(681,712,c),
(681,265,ls),
(681,98,o),
(569,5,o),
(432,5,cs)
);
}
);
width = 847;
},
{
anchors = (
{
name = bottom;
pos = (364,0);
},
{
name = center;
pos = (364,399);
},
{
name = ogonek;
pos = (418,10);
},
{
name = top;
pos = (364,750);
},
{
name = topright;
pos = (717,750);
}
);
layerId = "BABFB3A0-9CFA-45ED-BD0F-DD711F12EEFF";
metricLeft = "=N";
metricRight = "=N";
shapes = (
{
closed = 1;
nodes = (
(251,74,o),
(160,169,o),
(160,281,cs),
(160,500,l),
(160,650,o),
(160,720,o),
(160,750,c),
(160,750,l),
(70,750,l),
(70,750,l),
(70,720,o),
(70,650,o),
(70,500,c),
(70,281,ls),
(70,120,o),
(202,-10,o),
(364,-10,cs),
(525,-10,o),
(657,120,o),
(657,281,cs),
(657,500,l),
(657,650,o),
(657,720,o),
(657,750,c),
(657,750,l),
(567,750,l),
(567,750,l),
(567,720,o),
(567,650,o),
(567,500,c),
(567,281,ls),
(567,169,o),
(476,74,o),
(364,74,cs)
);
}
);
width = 727;
},
{
anchors = (
{
name = bottom;
pos = (385,0);
},
{
name = center;
pos = (374,399);
},
{
name = ogonek;
pos = (428,10);
},
{
name = top;
pos = (385,750);
},
{
name = topright;
pos = (749,750);
}
);
layerId = "C8CD87A0-2407-4F05-BADA-4D8336545B60";
metricLeft = "=N";
metricRight = "=N";
shapes = (
{
closed = 1;
nodes = (
(320,210,o),
(290,260,o),
(290,312,cs),
(290,500,l),
(290,650,o),
(290,720,o),
(290,750,c),
(290,750,l),
(50,750,l),
(50,750,l),
(50,720,o),
(50,650,o),
(50,500,c),
(50,281,ls),
(50,120,o),
(187,-10,o),
(385,-10,cs),
(582,-10,o),
(719,120,o),
(719,281,cs),
(719,500,l),
(719,650,o),
(719,720,o),
(719,750,c),
(719,750,l),
(479,750,l),
(479,750,l),
(479,720,o),
(479,650,o),
(479,500,c),
(479,312,ls),
(479,260,o),
(444,210,o),
(382,210,cs)
);
}
);
width = 769;
},
{
anchors = (
{
name = bottom;
pos = (355,0);
},
{
name = center;
pos = (359,399);
},
{
name = ogonek;
pos = (413,10);
},
{
name = top;
pos = (355,750);
},
{
name = topright;
pos = (704,750);
}
);
background = {
shapes = (
{
closed = 1;
nodes = (
(261,79,o),
(170,171,o),
(170,283,cs),
(170,500,l),
(170,650,o),
(170,720,o),
(170,750,c),
(170,750,l),
(80,750,l),
(80,750,l),
(80,720,o),
(80,650,o),
(80,500,c),
(80,281,ls),
(80,120,o),
(212,-10,o),
(374,-10,cs),
(535,-10,o),
(667,120,o),
(667,281,cs),
(667,500,l),
(667,650,o),
(667,720,o),
(667,750,c),
(667,750,l),
(577,750,l),
(577,750,l),
(577,720,o),
(577,650,o),
(577,500,c),
(577,283,ls),
(577,171,o),
(486,79,o),
(374,79,cs)
);
}
);
};
layerId = "48DAC09D-95D4-4D70-8D14-87ABECD8575B";
metricLeft = "=N";
metricRight = "=N";
shapes = (
{
closed = 1;
nodes = (
(216,6,o),
(101,122,o),
(101,264,cs),
(101,690,l),
(101,720,o),
(101,740,o),
(101,750,c),
(101,750,l),
(85,750,l),
(85,750,l),
(85,740,o),
(85,720,o),
(85,690,c),
(85,264,ls),
(85,121,o),
(198,-10,o),
(355,-10,cs),
(511,-10,o),
(624,121,o),
(624,264,cs),
(624,690,l),
(624,720,o),
(624,740,o),
(624,750,c),
(624,750,l),
(608,750,l),
(608,750,l),
(608,740,o),
(608,720,o),
(608,690,c),
(608,264,ls),
(608,122,o),
(493,6,o),
(355,6,cs)
);
}
);
width = 709;
}
);
metricLeft = "=N";
metricRight = "=N";
unicode = 85;
},
{
glyphname = V;
kernLeft = V;
kernRight = V;
lastChange = "2025-08-15 17:48:19 +0000";
layers = (
{
anchors = (
{
name = bottom;
pos = (401,0);
},
{
name = top;
pos = (401,750);
}
);
layerId = m01;
shapes = (
{
closed = 1;
nodes = (
(199,675,l),
(212,695,o),
(235,701,o),
(291,712,c),
(291,750,l),
(1,750,l),
(-5,712,l),
(46,707,o),
(74,693,o),
(84,675,c),
(349,0,l),
(447,0,l),
(718,673,l),
(730,695,o),
(764,709,o),
(807,712,c),
(807,750,l),
(539,750,l),
(533,712,l),
(582,705,o),
(614,691,o),
(627,673,c),
(413,125,l)
);
}
);
width = 802;
},
{
anchors = (
{
name = bottom;
pos = (416,0);
},
{
name = top;
pos = (416,750);
}
);
background = {
shapes = (
{
closed = 1;
nodes = (
(144,552,ls),
(118,596,o),
(95,612,o),
(63,623,c),
(77,750,l),
(453,750,l),
(453,623,l),
(428,613,o),
(414,601,o),
(398,579,c),
(486,424,l),
(573,572,l),
(556,602,o),
(539,614,o),
(504,623,c),
(519,750,l),
(838,750,l),
(838,623,l),
(804,614,o),
(780,605,o),
(751,556,cs),
(570,250,l),
(321,250,l)
);
}
);
};
layerId = "C36E42DF-D6E4-4FAF-B5BA-99700BA29EB5";
shapes = (
{
closed = 1;
nodes = (
(318,559,l),
(331,579,o),
(346,596,o),
(383,603,c),
(381,750,l),
(-1,750,l),
(-15,602,l),
(36,597,o),
(59,550,o),
(66,531,cs),
(267,0,l),
(545,0,l),
(759,535,ls),
(772,567,o),
(803,599,o),
(846,602,c),
(846,750,l),
(489,750,l),
(474,603,l),
(513,597,o),
(540,570,o),
(553,552,c),
(432,242,l)
);
}
);
width = 831;
},
{
anchors = (
{
name = bottom;
pos = (405,0);
},
{
name = top;
pos = (405,750);
}
);
layerId = "9E464B93-4987-4E25-B327-76BD95426741";
shapes = (
{
closed = 1;
nodes = (
(130,716,ls),
(120,742,o),
(181,742,o),
(231,742,c),
(231,750,l),
(14,750,l),
(10,742,l),
(60,742,o),
(98,742,o),
(108,716,cs),
(394,0,l),
(416,0,l),
(698,716,ls),
(708,742,o),
(750,742,o),
(800,742,c),
(800,750,l),
(585,750,l),
(581,742,l),
(631,742,o),
(692,742,o),
(682,716,cs),
(408,20,l)
);
}
);
width = 810;
},
{
anchors = (
{
name = bottom;
pos = (334,0);
},
{
name = top;
pos = (334,750);
}
);
layerId = "BABFB3A0-9CFA-45ED-BD0F-DD711F12EEFF";
metricLeft = "=A";
metricRight = "=A";
shapes = (
{
closed = 1;
nodes = (
(150,600,ls),
(121,675,o),
(105,718,o),
(93,750,c),
(93,750,l),
(-5,750,l),
(-5,750,l),
(7,718,o),
(25,675,o),
(54,600,cs),
(289,0,l),
(379,0,l),
(614,600,ls),
(643,675,o),
(661,718,o),
(673,750,c),
(673,750,l),
(575,750,l),
(575,750,l),
(563,718,o),
(547,675,o),
(518,600,cs),
(334,120,l)
);
}
);
width = 668;
},
{
anchors = (
{
name = bottom;
pos = (414,0);
},
{
name = top;
pos = (414,750);
}
);
layerId = "C8CD87A0-2407-4F05-BADA-4D8336545B60";
metricLeft = "=A";
metricRight = "=A";
shapes = (
{
closed = 1;
nodes = (
(303,600,ls),
(278,675,o),
(264,720,o),
(254,750,c),
(254,750,l),
(-5,750,l),
(-5,750,l),
(5,720,o),
(21,675,o),
(47,600,cs),
(256,0,l),
(572,0,l),
(781,600,ls),
(807,675,o),
(823,720,o),
(833,750,c),
(833,750,l),
(574,750,l),
(574,750,l),
(564,720,o),
(550,675,o),
(525,600,cs),
(414,262,l)
);
}
);
width = 828;
},
{
anchors = (
{
name = bottom;
pos = (315,0);
},
{
name = top;
pos = (315,750);
}
);
layerId = "48DAC09D-95D4-4D70-8D14-87ABECD8575B";
metricLeft = "=A";
metricRight = "=A";
shapes = (
{
closed = 1;
nodes = (
(51,690,ls),
(39,720,o),
(31,740,o),
(27,750,c),
(27,750,l),
(10,750,l),
(10,750,l),
(14,740,o),
(22,720,o),
(34,690,cs),
(306,0,l),
(324,0,l),
(596,690,ls),
(608,720,o),
(616,740,o),
(620,750,c),
(620,750,l),
(603,750,l),
(603,750,l),
(599,740,o),
(591,720,o),
(579,690,cs),
(315,20,l)
);
}
);
width = 630;
}
);
unicode = 86;
},
{
glyphname = W;
kernLeft = W;
kernRight = W;
lastChange = "2025-08-15 17:48:19 +0000";
layers = (
{
anchors = (
{
name = bottom;
pos = (587,0);
},
{
name = top;
pos = (587,750);
}
);
layerId = m01;
shapes = (
{
closed = 1;
nodes = (
(202,675,l),
(214,695,o),
(245,701,o),
(279,712,c),
(279,750,l),
(1,750,l),
(-5,712,l),
(49,707,o),
(74,693,o),
(84,675,c),
(313,0,l),
(401,0,l),
(581,507,l),
(754,0,l),
(842,0,l),
(1090,673,l),
(1101,695,o),
(1132,709,o),
(1179,712,c),
(1179,750,l),
(906,750,l),
(901,712,l),
(944,705,o),
(983,691,o),
(995,673,c),
(814,156,l),
(618,737,l),
(561,737,l),
(373,156,l)
);
}
);
width = 1174;
},
{
anchors = (
{
name = bottom;
pos = (620,0);
},
{
name = top;
pos = (620,750);
}
);
layerId = "C36E42DF-D6E4-4FAF-B5BA-99700BA29EB5";
shapes = (
{
closed = 1;
nodes = (
(313,559,l),
(326,579,o),
(341,596,o),
(378,603,c),
(376,750,l),
(-1,750,l),
(-15,602,l),
(36,597,o),
(59,550,o),
(66,531,cs),
(258,0,l),
(517,0,l),
(617,347,l),
(729,0,l),
(984,0,l),
(1168,535,ls),
(1179,568,o),
(1212,599,o),
(1255,602,c),
(1255,750,l),
(897,750,l),
(882,603,l),
(921,597,o),
(949,570,o),
(961,552,c),
(880,312,l),
(739,737,l),
(536,737,l),
(397,312,l)
);
}
);
width = 1240;
},
{
anchors = (
{
name = bottom;
pos = (569,0);
},
{
name = top;
pos = (569,750);
}
);
layerId = "9E464B93-4987-4E25-B327-76BD95426741";
shapes = (
{
closed = 1;
nodes = (
(129,716,ls),
(121,742,o),
(180,742,o),
(230,742,c),
(230,750,l),
(14,750,l),
(10,742,l),
(60,742,o),
(100,742,o),
(108,716,cs),
(327,0,l),
(351,0,l),
(570,717,l),
(784,0,l),
(808,0,l),
(1025,716,ls),
(1033,742,o),
(1077,742,o),
(1127,742,c),
(1127,750,l),
(912,750,l),
(908,742,l),
(958,742,o),
(1017,742,o),
(1009,716,cs),
(799,21,l),
(585,737,l),
(560,737,l),
(342,21,l)
);
}
);
width = 1137;
},
{
anchors = (
{
name = bottom;
pos = (495,0);
},
{
name = top;
pos = (495,750);
}
);
layerId = "BABFB3A0-9CFA-45ED-BD0F-DD711F12EEFF";
metricLeft = "=A";
metricRight = "=A";
shapes = (
{
closed = 1;
nodes = (
(133,600,ls),
(111,675,o),
(99,720,o),
(90,750,c),
(90,750,l),
(-5,750,l),
(-5,750,l),
(4,720,o),
(17,675,o),
(39,600,cs),
(215,0,l),
(310,0,l),
(495,604,l),
(680,0,l),
(775,0,l),
(951,600,ls),
(973,675,o),
(986,720,o),
(995,750,c),
(995,750,l),
(900,750,l),
(900,750,l),
(891,720,o),
(879,675,o),
(857,600,cs),
(724,141,l),
(538,750,l),
(452,750,l),
(266,141,l)
);
}
);
width = 990;
},
{
anchors = (
{
name = bottom;
pos = (588,0);
},
{
name = top;
pos = (588,750);
}
);
layerId = "C8CD87A0-2407-4F05-BADA-4D8336545B60";
metricLeft = "=A";
metricRight = "=A";
shapes = (
{
closed = 1;
nodes = (
(288,600,ls),
(267,675,o),
(255,720,o),
(246,750,c),
(246,750,l),
(-5,750,l),
(-5,750,l),
(4,720,o),
(17,675,o),
(39,600,cs),
(215,0,l),
(463,0,l),
(588,394,l),
(713,0,l),
(961,0,l),
(1137,600,ls),
(1159,674,o),
(1172,720,o),
(1181,750,c),
(1181,750,l),
(930,750,l),
(930,750,l),
(921,720,o),
(909,675,o),
(888,600,cs),
(817,351,l),
(691,750,l),
(485,750,l),
(359,351,l)
);
}
);
width = 1176;
},
{
anchors = (
{
name = bottom;
pos = (467,0);
},
{
name = top;
pos = (467,750);
}
);
layerId = "48DAC09D-95D4-4D70-8D14-87ABECD8575B";
metricLeft = "=A";
metricRight = "=A";
shapes = (
{
closed = 1;
nodes = (
(43,697,ls),
(36,720,o),
(32,733,o),
(27,750,c),
(27,750,l),
(10,750,l),
(10,750,l),
(15,733,o),
(19,720,o),
(26,697,cs),
(230,0,l),
(250,0,l),
(467,728,l),
(684,0,l),
(704,0,l),
(908,697,ls),
(915,720,o),
(919,733,o),
(924,750,c),
(924,750,l),
(907,750,l),
(907,750,l),
(902,733,o),
(898,720,o),
(891,697,cs),
(694,24,l),
(477,750,l),
(457,750,l),
(240,24,l)
);
}
);
width = 934;
}
);
unicode = 87;
},
{
glyphname = X;
kernLeft = X;
lastChange = "2025-08-15 17:48:19 +0000";
layers = (
{
anchors = (
{
name = bottom;
pos = (424,0);
},
{
name = top;
pos = (424,750);
}
);
layerId = m01;
metricLeft = "=H-5";
metricRight = "=H-5";
shapes = (
{
closed = 1;
nodes = (
(59,750,l),
(53,712,l),
(83,704,o),
(144,673,o),
(160,652,cs),
(366,383,l),
(143,104,ls),
(108,61,o),
(73,49,o),
(35,38,c),
(35,0,l),
(331,0,l),
(339,38,l),
(306,43,o),
(273,65,o),
(258,100,c),
(414,320,l),
(570,100,l),
(553,68,o),
(540,47,o),
(489,38,c),
(489,0,l),
(804,0,l),
(813,38,l),
(793,46,o),
(717,75,o),
(699,100,cs),
(486,396,l),
(709,672,ls),
(725,692,o),
(757,701,o),
(785,709,c),
(783,750,l),
(511,750,l),
(504,714,l),
(529,709,o),
(560,688,o),
(576,652,c),
(436,462,l),
(294,652,l),
(311,685,o),
(337,696,o),
(371,714,c),
(369,750,l)
);
}
);
width = 848;
},
{
anchors = (
{
name = bottom;
pos = (482,0);
},
{
name = top;
pos = (482,750);
}
);
layerId = "C36E42DF-D6E4-4FAF-B5BA-99700BA29EB5";
metricLeft = "=H-5";
metricRight = "=H-5";
shapes = (
{
closed = 1;
nodes = (
(45,750,l),
(31,623,l),
(69,618,o),
(96,587,o),
(125,552,cs),
(281,363,l),
(132,194,ls),
(115,175,o),
(68,130,o),
(25,127,c),
(25,0,l),
(418,0,l),
(433,127,l),
(398,136,o),
(381,148,o),
(364,178,c),
(451,276,l),
(539,171,l),
(523,149,o),
(509,137,o),
(484,127,c),
(484,0,l),
(925,0,l),
(939,127,l),
(909,133,o),
(873,161,o),
(838,198,cs),
(649,396,l),
(817,556,ls),
(841,578,o),
(881,619,o),
(914,623,c),
(914,750,l),
(527,750,l),
(512,623,l),
(547,614,o),
(564,602,o),
(581,572,c),
(494,474,l),
(406,579,l),
(422,601,o),
(436,613,o),
(461,623,c),
(461,750,l)
);
}
);
width = 964;
},
{
anchors = (
{
name = bottom;
pos = (426,0);
},
{
name = top;
pos = (426,750);
}
);
layerId = "9E464B93-4987-4E25-B327-76BD95426741";
metricLeft = "=H-5";
metricRight = "=H-5";
shapes = (
{
closed = 1;
nodes = (
(74,750,l),
(70,742,l),
(120,742,o),
(148,742,o),
(168,716,cs),
(420,386,l),
(149,34,ls),
(129,8,o),
(100,8,o),
(50,8,c),
(50,0,l),
(266,0,l),
(270,8,l),
(220,8,o),
(149,9,o),
(169,34,cs),
(429,372,l),
(679,34,ls),
(698,8,o),
(628,8,o),
(578,8,c),
(578,0,l),
(798,0,l),
(802,8,l),
(757,8,o),
(723,8,o),
(704,34,cs),
(441,389,l),
(690,716,ls),
(710,742,o),
(739,742,o),
(789,742,c),
(789,750,l),
(573,750,l),
(569,742,l),
(619,742,o),
(690,742,o),
(670,716,cs),
(432,403,l),
(193,716,ls),
(172,743,o),
(244,742,o),
(294,742,c),
(294,750,l)
);
}
);
width = 852;
},
{
anchors = (
{
name = bottom;
pos = (323,0);
},
{
name = top;
pos = (323,750);
}
);
layerId = "BABFB3A0-9CFA-45ED-BD0F-DD711F12EEFF";
metricLeft = "=A";
metricRight = "=A";
shapes = (
{
closed = 1;
nodes = (
(32,750,l),
(32,750,l),
(52,720,o),
(82,675,o),
(131,600,cs),
(270,390,l),
(101,150,ls),
(48,75,o),
(16,30,o),
(-5,0,c),
(-5,0,l),
(105,0,l),
(105,0,l),
(126,30,o),
(157,75,o),
(208,150,cs),
(323,318,l),
(438,150,ls),
(489,75,o),
(520,30,o),
(541,0,c),
(541,0,l),
(651,0,l),
(651,0,l),
(630,30,o),
(598,75,o),
(545,150,cs),
(376,390,l),
(515,600,ls),
(564,675,o),
(594,720,o),
(614,750,c),
(614,750,l),
(507,750,l),
(507,750,l),
(488,720,o),
(458,673,o),
(411,600,cs),
(323,462,l),
(235,600,ls),
(188,673,o),
(158,720,o),
(139,750,c),
(139,750,l)
);
}
);
width = 646;
},
{
anchors = (
{
name = bottom;
pos = (393,0);
},
{
name = top;
pos = (393,750);
}
);
layerId = "C8CD87A0-2407-4F05-BADA-4D8336545B60";
metricLeft = "=A";
metricRight = "=A";
shapes = (
{
closed = 1;
nodes = (
(12,750,l),
(12,750,l),
(31,720,o),
(60,674,o),
(108,600,cs),
(249,382,l),
(95,150,ls),
(44,73,o),
(15,30,o),
(-5,0,c),
(-5,0,l),
(285,0,l),
(285,0,l),
(303,30,o),
(330,74,o),
(376,150,cs),
(393,178,l),
(410,150,ls),
(456,74,o),
(483,30,o),
(501,0,c),
(501,0,l),
(791,0,l),
(791,0,l),
(771,30,o),
(742,73,o),
(691,150,cs),
(537,382,l),
(678,600,ls),
(726,675,o),
(755,720,o),
(774,750,c),
(774,750,l),
(492,750,l),
(492,750,l),
(474,720,o),
(450,675,o),
(404,600,cs),
(393,582,l),
(382,600,ls),
(336,675,o),
(311,720,o),
(294,750,c),
(294,750,l)
);
}
);
width = 786;
},
{
anchors = (
{
name = bottom;
pos = (309,0);
},
{
name = top;
pos = (309,750);
}
);
layerId = "48DAC09D-95D4-4D70-8D14-87ABECD8575B";
metricLeft = "=A";
metricRight = "=A";
shapes = (
{
closed = 1;
nodes = (
(52,750,l),
(52,750,l),
(62,735,o),
(73,719,o),
(88,698,cs),
(301,390,l),
(47,50,ls),
(32,30,o),
(21,15,o),
(10,0,c),
(10,0,l),
(30,0,l),
(30,0,l),
(41,15,o),
(52,30,o),
(67,50,cs),
(309,373,l),
(551,50,ls),
(566,30,o),
(577,15,o),
(588,0,c),
(588,0,l),
(608,0,l),
(608,0,l),
(597,15,o),
(586,30,o),
(571,50,cs),
(317,390,l),
(530,698,ls),
(545,719,o),
(556,735,o),
(566,750,c),
(566,750,l),
(547,750,l),
(547,750,l),
(537,735,o),
(526,719,o),
(511,698,cs),
(309,407,l),
(107,698,ls),
(92,719,o),
(81,735,o),
(71,750,c),
(71,750,l)
);
}
);
width = 618;
}
);
metricLeft = "=H-5";
metricRight = "=A";
unicode = 88;
},
{
glyphname = Y;
kernLeft = Y;
kernRight = Y;
lastChange = "2025-08-20 15:05:22 +0000";
layers = (
{
anchors = (
{
name = bottom;
pos = (374,0);
},
{
name = top;
pos = (374,750);
},
{
name = topleft;
pos = (10,750);
}
);
layerId = m01;
metricLeft = "=V";
metricRight = "=V";
shapes = (
{
closed = 1;
nodes = (
(207,675,l),
(230,695,o),
(258,706,o),
(299,712,c),
(299,750,l),
(1,750,l),
(-5,712,l),
(46,707,o),
(74,693,o),
(84,675,c),
(330,299,l),
(330,123,ls),
(330,78,o),
(290,62,o),
(240,38,c),
(240,0,l),
(519,0,l),
(525,38,l),
(471,58,o),
(435,68,o),
(435,103,cs),
(435,298,l),
(664,673,ls),
(677,695,o),
(710,709,o),
(753,712,c),
(753,750,l),
(479,750,l),
(473,712,l),
(522,705,o),
(554,691,o),
(567,673,c),
(394,368,l)
);
}
);
width = 748;
},
{
anchors = (
{
name = bottom;
pos = (382,0);
},
{
name = top;
pos = (382,750);
},
{
name = topleft;
pos = (20,750);
}
);
background = {
shapes = (
{
closed = 1;
nodes = (
(71,552,ls),
(45,596,o),
(22,612,o),
(-10,623,c),
(4,750,l),
(380,750,l),
(380,623,l),
(355,613,o),
(341,601,o),
(325,579,c),
(413,424,l),
(500,572,l),
(483,602,o),
(466,614,o),
(431,623,c),
(446,750,l),
(765,750,l),
(765,623,l),
(731,614,o),
(707,605,o),
(678,556,cs),
(497,250,l),
(248,250,l)
);
}
);
};
layerId = "C36E42DF-D6E4-4FAF-B5BA-99700BA29EB5";
metricLeft = "=V";
metricRight = "=V";
shapes = (
{
closed = 1;
nodes = (
(325,579,l),
(341,601,o),
(355,613,o),
(380,623,c),
(380,750,l),
(-1,750,l),
(-15,623,l),
(36,618,o),
(55,570,o),
(66,552,cs),
(255,232,l),
(255,212,ls),
(255,178,o),
(236,164,o),
(195,148,c),
(195,0,l),
(545,0,l),
(561,148,l),
(519,166,o),
(498,182,o),
(498,212,cs),
(498,232,l),
(692,556,ls),
(705,577,o),
(736,620,o),
(779,623,c),
(779,750,l),
(446,750,l),
(431,623,l),
(466,614,o),
(483,602,o),
(500,572,c),
(413,424,l)
);
}
);
width = 764;
},
{
anchors = (
{
name = bottom;
pos = (371,0);
},
{
name = top;
pos = (371,750);
},
{
name = topleft;
pos = (5,750);
}
);
layerId = "9E464B93-4987-4E25-B327-76BD95426741";
metricLeft = "=V";
metricRight = "=V";
shapes = (
{
closed = 1;
nodes = (
(129,716,ls),
(113,742,o),
(180,742,o),
(230,742,c),
(230,750,l),
(14,750,l),
(10,742,l),
(60,742,o),
(92,741,o),
(108,716,cs),
(364,302,l),
(364,38,ls),
(364,8,o),
(314,8,o),
(264,8,c),
(264,0,l),
(480,0,l),
(484,8,l),
(434,8,o),
(384,8,o),
(384,38,cs),
(384,301,l),
(633,716,ls),
(648,742,o),
(682,742,o),
(732,742,c),
(732,750,l),
(518,750,l),
(514,742,l),
(564,742,o),
(630,742,o),
(615,716,cs),
(376,317,l)
);
}
);
width = 742;
},
{
anchors = (
{
name = bottom;
pos = (301,0);
},
{
name = top;
pos = (301,750);
},
{
name = topleft;
pos = (10,750);
}
);
layerId = "BABFB3A0-9CFA-45ED-BD0F-DD711F12EEFF";
metricLeft = "=A";
metricRight = "=A";
shapes = (
{
closed = 1;
nodes = (
(179,600,ls),
(138,674,o),
(112,720,o),
(95,750,c),
(95,750,l),
(-5,750,l),
(-5,750,l),
(12,720,o),
(37,674,o),
(78,600,cs),
(256,279,l),
(256,250,ls),
(256,100,o),
(256,30,o),
(256,0,c),
(256,0,l),
(346,0,l),
(346,0,l),
(346,30,o),
(346,100,o),
(346,250,cs),
(346,278,l),
(524,600,ls),
(565,675,o),
(590,720,o),
(607,750,c),
(607,750,l),
(507,750,l),
(507,750,l),
(490,720,o),
(466,676,o),
(424,600,cs),
(301,379,l)
);
}
);
width = 602;
},
{
anchors = (
{
name = bottom;
pos = (383,0);
},
{
name = top;
pos = (383,750);
},
{
name = topleft;
pos = (20,750);
}
);
layerId = "C8CD87A0-2407-4F05-BADA-4D8336545B60";
metricLeft = "=A";
metricRight = "=A";
shapes = (
{
closed = 1;
nodes = (
(345,600,ls),
(305,675,o),
(282,720,o),
(266,750,c),
(266,750,l),
(-5,750,l),
(-5,750,l),
(11,720,o),
(36,673,o),
(75,600,cs),
(263,250,l),
(263,250,ls),
(263,100,o),
(263,30,o),
(263,0,c),
(263,0,l),
(503,0,l),
(503,0,l),
(503,30,o),
(503,99,o),
(503,250,cs),
(503,250,l),
(691,600,ls),
(730,673,o),
(755,720,o),
(771,750,c),
(771,750,l),
(500,750,l),
(500,750,l),
(484,720,o),
(461,675,o),
(421,600,cs),
(383,529,l)
);
}
);
width = 766;
},
{
anchors = (
{
name = bottom;
pos = (277,0);
},
{
name = top;
pos = (277,750);
},
{
name = topleft;
pos = (5,750);
}
);
layerId = "48DAC09D-95D4-4D70-8D14-87ABECD8575B";
metricLeft = "=A";
metricRight = "=A";
shapes = (
{
closed = 1;
nodes = (
(54,705,ls),
(43,725,o),
(37,735,o),
(28,750,c),
(28,750,l),
(10,750,l),
(10,750,l),
(19,735,o),
(25,724,o),
(36,704,cs),
(269,299,l),
(269,60,ls),
(269,30,o),
(269,10,o),
(269,0,c),
(269,0,l),
(285,0,l),
(285,0,l),
(285,10,o),
(285,30,o),
(285,60,cs),
(285,299,l),
(518,704,ls),
(529,724,o),
(535,735,o),
(544,750,c),
(544,750,l),
(526,750,l),
(526,750,l),
(517,735,o),
(511,725,o),
(500,705,cs),
(277,317,l)
);
}
);
width = 554;
}
);
metricLeft = "=A";
metricRight = "=A";
unicode = 89;
},
{
glyphname = Z;
lastChange = "2025-08-15 17:48:19 +0000";
layers = (
{
anchors = (
{
name = bottom;
pos = (322,0);
},
{
name = center;
pos = (322,375);
},
{
name = top;
pos = (322,750);
}
);
layerId = m01;
metricLeft = "=O-10";
metricRight = "=O-10";
shapes = (
{
closed = 1;
nodes = (
(594,0,l),
(613,171,l),
(558,179,l),
(544,89,o),
(493,70,o),
(400,70,cs),
(162,70,l),
(604,719,l),
(590,750,l),
(59,750,l),
(37,586,l),
(86,576,l),
(105,641,o),
(156,680,o),
(223,680,c),
(457,680,l),
(30,55,l),
(36,0,l)
);
}
);
width = 643;
},
{
anchors = (
{
name = bottom;
pos = (381,0);
},
{
name = center;
pos = (381,375);
},
{
name = top;
pos = (381,750);
}
);
layerId = "C36E42DF-D6E4-4FAF-B5BA-99700BA29EB5";
metricLeft = "=O-10";
metricRight = "=O-10";
shapes = (
{
closed = 1;
nodes = (
(706,0,l),
(741,224,l),
(621,246,l),
(599,203,o),
(577,184,o),
(508,184,cs),
(358,184,l),
(735,682,l),
(701,750,l),
(65,750,l),
(20,526,l),
(140,504,l),
(162,547,o),
(204,566,o),
(273,566,c),
(357,566,l),
(30,146,l),
(36,0,l)
);
}
);
width = 761;
},
{
anchors = (
{
name = bottom;
pos = (321,0);
},
{
name = center;
pos = (321,375);
},
{
name = top;
pos = (321,750);
}
);
layerId = "9E464B93-4987-4E25-B327-76BD95426741";
metricLeft = "=O-10";
metricRight = "=O-10";
shapes = (
{
closed = 1;
nodes = (
(559,0,l),
(596,116,l),
(586,119,l),
(547,11,o),
(547,11,o),
(477,11,cs),
(71,11,l),
(586,743,l),
(583,750,l),
(90,750,l),
(53,634,l),
(63,631,l),
(102,739,o),
(102,739,o),
(172,739,c),
(559,739,l),
(45,9,l),
(46,0,l)
);
}
);
width = 641;
},
{
anchors = (
{
name = bottom;
pos = (314,0);
},
{
name = center;
pos = (314,375);
},
{
name = top;
pos = (314,750);
}
);
layerId = "BABFB3A0-9CFA-45ED-BD0F-DD711F12EEFF";
metricLeft = "=N/2";
metricRight = "=N/2";
shapes = (
{
closed = 1;
nodes = (
(581,0,l),
(581,80,l),
(581,80,l),
(551,80,o),
(481,80,o),
(331,80,cs),
(146,80,l),
(577,670,l),
(577,750,l),
(63,750,l),
(63,670,l),
(63,670,l),
(93,670,o),
(163,670,o),
(313,670,c),
(468,670,l),
(40,80,l),
(40,0,l)
);
}
);
width = 621;
},
{
anchors = (
{
name = bottom;
pos = (359,0);
},
{
name = center;
pos = (359,375);
},
{
name = top;
pos = (359,750);
}
);
layerId = "C8CD87A0-2407-4F05-BADA-4D8336545B60";
metricLeft = "=N/2";
metricRight = "=N/2";
shapes = (
{
closed = 1;
nodes = (
(688,0,l),
(688,210,l),
(688,210,l),
(658,210,o),
(587,210,o),
(494,210,cs),
(361,210,l),
(688,550,l),
(688,750,l),
(30,750,l),
(30,540,l),
(30,540,l),
(60,540,o),
(130,540,o),
(197,540,c),
(357,540,l),
(30,200,l),
(30,0,l)
);
}
);
width = 718;
},
{
anchors = (
{
name = bottom;
pos = (319,0);
},
{
name = center;
pos = (319,375);
},
{
name = top;
pos = (319,750);
}
);
layerId = "48DAC09D-95D4-4D70-8D14-87ABECD8575B";
metricLeft = "=N/2";
metricRight = "=N/2";
shapes = (
{
closed = 1;
nodes = (
(589,0,l),
(589,14,l),
(589,14,l),
(559,14,o),
(539,14,o),
(489,14,cs),
(68,14,l),
(585,736,l),
(585,750,l),
(71,750,l),
(71,736,l),
(71,736,l),
(101,736,o),
(121,736,o),
(171,736,c),
(565,736,l),
(48,12,l),
(48,0,l)
);
}
);
width = 637;
}
);
metricLeft = "=N/2";
metricRight = "=N/2";
unicode = 90;
},
{
glyphname = a;
kernLeft = a;
lastChange = "2025-08-15 17:48:19 +0000";
layers = (
{
anchors = (
{
name = bottom;
pos = (255,0);
},
{
name = ogonek;
pos = (466,10);
},
{
name = top;
pos = (253,471);
}
);
background = {
shapes = (
{
closed = 1;
nodes = (
(235,-10,o),
(323,38,o),
(341,93,c),
(346,51,o),
(354,19,o),
(367,0,c),
(367,0,l),
(459,0,l),
(459,0,l),
(433,50,o),
(426,87,o),
(426,142,cs),
(426,299,ls),
(426,400,o),
(353,481,o),
(231,481,cs),
(102,481,o),
(39,402,o),
(26,332,c),
(26,332,l),
(111,320,l),
(120,362,o),
(157,400,o),
(226,400,cs),
(293,400,o),
(338,364,o),
(338,305,c),
(178,266,ls),
(67,239,o),
(16,185,o),
(16,123,cs),
(16,56,o),
(65,-10,o),
(165,-10,cs)
);
},
{
closed = 1;
nodes = (
(131,68,o),
(107,91,o),
(107,123,cs),
(107,153,o),
(141,180,o),
(198,195,cs),
(247,208,o),
(290,218,o),
(338,240,c),
(338,194,l),
(338,109,o),
(236,68,o),
(182,68,cs)
);
}
);
};
layerId = m01;
metricLeft = "=o";
metricRight = "=n";
shapes = (
{
closed = 1;
nodes = (
(239,-10,o),
(296,33,o),
(328,80,c),
(328,69,o),
(341,30,o),
(352,5,c),
(366,-6,l),
(498,23,l),
(504,58,l),
(443,68,o),
(422,112,o),
(422,167,cs),
(422,308,ls),
(422,403,o),
(359,481,o),
(253,481,cs),
(179,481,o),
(53,424,o),
(39,360,c),
(49,344,l),
(124,331,l),
(136,378,o),
(156,410,o),
(220,410,cs),
(289,410,o),
(316,346,o),
(325,298,c),
(160,256,ls),
(81,236,o),
(30,175,o),
(30,114,cs),
(30,60,o),
(77,-10,o),
(160,-10,cs)
);
},
{
closed = 1;
nodes = (
(152,68,o),
(131,81,o),
(131,130,cs),
(131,164,o),
(159,186,o),
(196,199,cs),
(242,214,o),
(283,222,o),
(328,239,c),
(328,113,l),
(286,90,o),
(233,68,o),
(192,68,cs)
);
}
);
width = 509;
},
{
anchors = (
{
name = bottom;
pos = (333,0);
},
{
name = ogonek;
pos = (599,10);
},
{
name = top;
pos = (333,500);
}
);
layerId = "C36E42DF-D6E4-4FAF-B5BA-99700BA29EB5";
metricLeft = "=o";
metricRight = "=n";
shapes = (
{
closed = 1;
nodes = (
(252,-10,o),
(329,31,o),
(365,52,c),
(368,43,o),
(372,36,o),
(376,30,c),
(426,-10,l),
(640,46,l),
(656,181,l),
(605,199,o),
(596,241,o),
(596,302,cs),
(596,318,ls),
(596,463,o),
(449,509,o),
(343,509,cs),
(219,509,o),
(103,481,o),
(29,387,c),
(69,337,l),
(245,320,l),
(252,352,o),
(266,394,o),
(306,394,cs),
(344,394,o),
(358,348,o),
(364,316,c),
(242,297,ls),
(101,275,o),
(20,222,o),
(20,121,cs),
(20,57,o),
(70,-10,o),
(173,-10,cs)
);
},
{
closed = 1;
nodes = (
(273,120,o),
(253,129,o),
(253,157,cs),
(253,186,o),
(271,204,o),
(300,215,cs),
(324,224,o),
(342,231,o),
(364,239,c),
(364,142,l),
(347,132,o),
(324,120,o),
(295,120,cs)
);
}
);
width = 666;
},
{
anchors = (
{
name = bottom;
pos = (262,0);
},
{
name = ogonek;
pos = (484,10);
},
{
name = top;
pos = (262,471);
}
);
layerId = "9E464B93-4987-4E25-B327-76BD95426741";
metricLeft = "=o";
metricRight = "=n";
shapes = (
{
closed = 1;
nodes = (
(264,-10,o),
(348,71,o),
(383,111,c),
(383,79,o),
(383,31,o),
(383,4,c),
(397,-7,l),
(503,5,l),
(504,14,l),
(400,14,o),
(400,14,o),
(400,46,cs),
(400,308,ls),
(400,399,o),
(364,481,o),
(251,481,cs),
(160,481,o),
(84,443,o),
(61,381,c),
(67,369,l),
(77,367,l),
(94,413,o),
(147,470,o),
(231,470,cs),
(357,470,o),
(384,380,o),
(383,309,c),
(157,255,ls),
(77,236,o),
(45,175,o),
(45,114,cs),
(45,60,o),
(92,-10,o),
(175,-10,cs)
);
},
{
closed = 1;
nodes = (
(117,5,o),
(67,67,o),
(67,126,cs),
(67,160,o),
(86,224,o),
(165,245,cs),
(239,265,o),
(338,287,o),
(383,299,c),
(383,120,l),
(341,77,o),
(248,5,o),
(187,5,cs)
);
}
);
width = 524;
},
{
anchors = (
{
name = bottom;
pos = (255,0);
},
{
name = ogonek;
pos = (461,10);
},
{
name = top;
pos = (255,471);
}
);
layerId = "BABFB3A0-9CFA-45ED-BD0F-DD711F12EEFF";
metricLeft = "=o+10";
metricRight = "=o";
shapes = (
{
closed = 1;
nodes = (
(259,-10,o),
(347,38,o),
(365,93,c),
(370,51,o),
(378,19,o),
(391,0,c),
(391,0,l),
(483,0,l),
(483,0,l),
(457,50,o),
(450,87,o),
(450,142,cs),
(450,299,ls),
(450,400,o),
(377,481,o),
(255,481,cs),
(126,481,o),
(63,402,o),
(50,332,c),
(50,332,l),
(135,320,l),
(144,362,o),
(181,397,o),
(250,397,cs),
(317,397,o),
(362,364,o),
(362,305,c),
(202,266,ls),
(91,239,o),
(40,185,o),
(40,123,cs),
(40,56,o),
(89,-10,o),
(189,-10,cs)
);
},
{
closed = 1;
nodes = (
(155,68,o),
(131,91,o),
(131,123,cs),
(131,153,o),
(165,180,o),
(222,195,cs),
(271,208,o),
(314,218,o),
(362,240,c),
(362,194,l),
(362,109,o),
(260,68,o),
(206,68,cs)
);
}
);
width = 513;
},
{
anchors = (
{
name = bottom;
pos = (318,0);
},
{
name = ogonek;
pos = (572,10);
},
{
name = top;
pos = (318,500);
}
);
layerId = "C8CD87A0-2407-4F05-BADA-4D8336545B60";
shapes = (
{
closed = 1;
nodes = (
(283,-10,o),
(341,25,o),
(365,49,c),
(368,34,o),
(376,12,o),
(384,0,c),
(384,0,l),
(626,0,l),
(626,0,l),
(598,52,o),
(591,93,o),
(591,151,cs),
(591,318,ls),
(591,424,o),
(505,510,o),
(316,510,cs),
(159,510,o),
(45,427,o),
(31,353,c),
(31,353,l),
(248,316,l),
(252,358,o),
(269,394,o),
(306,394,cs),
(347,394,o),
(361,349,o),
(361,317,c),
(242,298,ls),
(71,271,o),
(20,206,o),
(20,121,cs),
(20,50,o),
(82,-10,o),
(198,-10,cs)
);
},
{
closed = 1;
nodes = (
(266,123,o),
(246,137,o),
(246,157,cs),
(246,178,o),
(263,192,o),
(297,206,cs),
(320,216,o),
(339,223,o),
(361,237,c),
(361,205,l),
(361,151,o),
(320,123,o),
(288,123,cs)
);
}
);
width = 636;
},
{
anchors = (
{
name = bottom;
pos = (244,0);
},
{
name = ogonek;
pos = (451,10);
},
{
name = top;
pos = (244,471);
}
);
layerId = "48DAC09D-95D4-4D70-8D14-87ABECD8575B";
metricLeft = "=o+10";
metricRight = "=o";
shapes = (
{
closed = 1;
nodes = (
(290,-10,o),
(368,50,o),
(392,130,c),
(398,49,o),
(411,28,o),
(425,0,c),
(425,0,l),
(443,0,l),
(443,0,l),
(418,43,o),
(408,87,o),
(408,142,cs),
(408,299,ls),
(408,400,o),
(359,481,o),
(237,481,cs),
(121,481,o),
(81,400,o),
(67,348,c),
(67,348,l),
(82,345,l),
(94,389,o),
(130,466,o),
(237,466,cs),
(323,466,o),
(392,414,o),
(392,310,c),
(217,265,ls),
(107,237,o),
(55,186,o),
(55,123,cs),
(55,56,o),
(104,-10,o),
(204,-10,cs)
);
},
{
closed = 1;
nodes = (
(117,5,o),
(71,60,o),
(71,123,cs),
(71,178,o),
(121,224,o),
(214,250,cs),
(275,267,o),
(313,275,o),
(392,296,c),
(392,194,l),
(392,83,o),
(291,5,o),
(204,5,cs)
);
}
);
width = 488;
}
);
unicode = 97;
},
{
glyphname = ae;
lastChange = "2025-08-15 17:48:19 +0000";
layers = (
{
layerId = "9E464B93-4987-4E25-B327-76BD95426741";
shapes = (
{
closed = 1;
nodes = (
(264,-10,o),
(341,45,o),
(383,90,c),
(421,30,o),
(487,-10,o),
(572,-10,cs),
(688,-10,o),
(764,56,o),
(787,90,c),
(762,117,l),
(729,83,o),
(666,60,o),
(608,60,cs),
(509,60,o),
(462,126,o),
(450,194,c),
(541,210,o),
(681,248,o),
(775,281,c),
(785,295,l),
(767,403,o),
(681,481,o),
(577,481,cs),
(518,481,o),
(457,452,o),
(412,404,c),
(384,450,o),
(335,481,o),
(268,481,cs),
(194,481,o),
(68,424,o),
(54,360,c),
(64,344,l),
(139,331,l),
(151,378,o),
(171,410,o),
(235,410,cs),
(304,410,o),
(331,346,o),
(340,298,c),
(175,256,ls),
(96,236,o),
(45,175,o),
(45,114,cs),
(45,60,o),
(92,-10,o),
(175,-10,cs)
);
},
{
closed = 1;
nodes = (
(146,164,o),
(174,186,o),
(211,199,cs),
(257,214,o),
(298,222,o),
(343,239,c),
(343,195,o),
(351,157,o),
(366,123,c),
(322,91,o),
(245,68,o),
(207,68,cs),
(167,68,o),
(146,81,o),
(146,130,cs)
);
},
{
closed = 1;
nodes = (
(442,347,o),
(493,413,o),
(558,413,cs),
(631,413,o),
(663,360,o),
(677,315,c),
(596,289,o),
(523,267,o),
(444,257,c)
);
}
);
width = 832;
},
{
layerId = "48DAC09D-95D4-4D70-8D14-87ABECD8575B";
shapes = (
{
closed = 1;
nodes = (
(270,-10,o),
(352,21,o),
(411,109,c),
(454,38,o),
(530,-10,o),
(617,-10,cs),
(757,-10,o),
(821,77,o),
(845,114,c),
(771,159,l),
(736,112,o),
(683,72,o),
(617,72,cs),
(526,72,o),
(463,143,o),
(463,211,c),
(595,211,o),
(728,211,o),
(860,211,c),
(860,222,ls),
(860,373,o),
(757,481,o),
(617,481,cs),
(546,481,o),
(482,449,o),
(438,398,c),
(406,448,o),
(348,481,o),
(270,481,cs),
(141,481,o),
(78,402,o),
(65,332,c),
(65,332,l),
(150,320,l),
(159,362,o),
(196,397,o),
(265,397,cs),
(332,397,o),
(377,364,o),
(377,305,c),
(217,266,ls),
(106,239,o),
(55,185,o),
(55,123,cs),
(55,56,o),
(104,-10,o),
(204,-10,cs)
);
},
{
closed = 1;
nodes = (
(146,153,o),
(180,180,o),
(237,195,cs),
(286,208,o),
(329,218,o),
(377,240,c),
(377,225,o),
(377,209,o),
(377,194,cs),
(377,109,o),
(275,68,o),
(221,68,cs),
(170,68,o),
(146,91,o),
(146,123,cs)
);
},
{
closed = 1;
nodes = (
(467,325,o),
(519,397,o),
(617,397,cs),
(716,397,o),
(766,325,o),
(766,288,c),
(666,288,o),
(567,288,o),
(467,288,c)
);
}
);
width = 905;
},
{
layerId = m01;
shapes = (
{
closed = 1;
nodes = (
(249,-10,o),
(326,45,o),
(368,90,c),
(406,30,o),
(472,-10,o),
(557,-10,cs),
(673,-10,o),
(749,56,o),
(772,90,c),
(747,117,l),
(714,83,o),
(651,60,o),
(593,60,cs),
(494,60,o),
(447,126,o),
(435,194,c),
(526,210,o),
(666,248,o),
(760,281,c),
(770,295,l),
(752,403,o),
(666,481,o),
(562,481,cs),
(503,481,o),
(442,452,o),
(397,404,c),
(369,450,o),
(320,481,o),
(253,481,cs),
(179,481,o),
(53,424,o),
(39,360,c),
(49,344,l),
(124,331,l),
(136,378,o),
(156,410,o),
(220,410,cs),
(289,410,o),
(316,346,o),
(325,298,c),
(160,256,ls),
(81,236,o),
(30,175,o),
(30,114,cs),
(30,60,o),
(77,-10,o),
(160,-10,cs)
);
},
{
closed = 1;
nodes = (
(131,164,o),
(159,186,o),
(196,199,cs),
(242,214,o),
(283,222,o),
(328,239,c),
(328,195,o),
(336,157,o),
(351,123,c),
(307,91,o),
(230,68,o),
(192,68,cs),
(152,68,o),
(131,81,o),
(131,130,cs)
);
},
{
closed = 1;
nodes = (
(427,347,o),
(478,413,o),
(543,413,cs),
(616,413,o),
(648,360,o),
(662,315,c),
(581,289,o),
(508,267,o),
(429,257,c)
);
}
);
width = 802;
},
{
layerId = "BABFB3A0-9CFA-45ED-BD0F-DD711F12EEFF";
shapes = (
{
closed = 1;
nodes = (
(255,-10,o),
(337,21,o),
(396,109,c),
(439,38,o),
(515,-10,o),
(602,-10,cs),
(742,-10,o),
(806,77,o),
(830,114,c),
(756,159,l),
(721,112,o),
(668,72,o),
(602,72,cs),
(511,72,o),
(448,143,o),
(448,211,c),
(580,211,o),
(713,211,o),
(845,211,c),
(845,222,ls),
(845,373,o),
(742,481,o),
(602,481,cs),
(531,481,o),
(467,449,o),
(423,398,c),
(391,448,o),
(333,481,o),
(255,481,cs),
(126,481,o),
(63,402,o),
(50,332,c),
(50,332,l),
(135,320,l),
(144,362,o),
(181,397,o),
(250,397,cs),
(317,397,o),
(362,364,o),
(362,305,c),
(202,266,ls),
(91,239,o),
(40,185,o),
(40,123,cs),
(40,56,o),
(89,-10,o),
(189,-10,cs)
);
},
{
closed = 1;
nodes = (
(131,153,o),
(165,180,o),
(222,195,cs),
(271,208,o),
(314,218,o),
(362,240,c),
(362,225,o),
(362,209,o),
(362,194,cs),
(362,109,o),
(260,68,o),
(206,68,cs),
(155,68,o),
(131,91,o),
(131,123,cs)
);
},
{
closed = 1;
nodes = (
(452,325,o),
(504,397,o),
(602,397,cs),
(701,397,o),
(751,325,o),
(751,288,c),
(651,288,o),
(552,288,o),
(452,288,c)
);
}
);
width = 875;
},
{
layerId = "C36E42DF-D6E4-4FAF-B5BA-99700BA29EB5";
shapes = (
{
closed = 1;
nodes = (
(239,-10,o),
(316,45,o),
(358,90,c),
(396,30,o),
(462,-10,o),
(547,-10,cs),
(663,-10,o),
(739,56,o),
(762,90,c),
(737,117,l),
(704,83,o),
(641,60,o),
(583,60,cs),
(484,60,o),
(437,126,o),
(425,194,c),
(516,210,o),
(656,248,o),
(750,281,c),
(760,295,l),
(742,403,o),
(656,481,o),
(552,481,cs),
(493,481,o),
(432,452,o),
(387,404,c),
(359,450,o),
(310,481,o),
(243,481,cs),
(169,481,o),
(43,424,o),
(29,360,c),
(39,344,l),
(114,331,l),
(126,378,o),
(146,410,o),
(210,410,cs),
(279,410,o),
(306,346,o),
(315,298,c),
(150,256,ls),
(71,236,o),
(20,175,o),
(20,114,cs),
(20,60,o),
(67,-10,o),
(150,-10,cs)
);
},
{
closed = 1;
nodes = (
(121,164,o),
(149,186,o),
(186,199,cs),
(232,214,o),
(273,222,o),
(318,239,c),
(318,195,o),
(326,157,o),
(341,123,c),
(297,91,o),
(220,68,o),
(182,68,cs),
(142,68,o),
(121,81,o),
(121,130,cs)
);
},
{
closed = 1;
nodes = (
(417,347,o),
(468,413,o),
(533,413,cs),
(606,413,o),
(638,360,o),
(652,315,c),
(571,289,o),
(498,267,o),
(419,257,c)
);
}
);
width = 782;
},
{
background = {
anchors = (
{
name = bottom;
pos = (318,0);
},
{
name = ogonek;
pos = (572,10);
},
{
name = top;
pos = (318,500);
}
);
shapes = (
{
closed = 1;
nodes = (
(833,-10,o),
(900,87,o),
(927,143,c),
(714,193,l),
(705,172,o),
(688,139,o),
(650,139,cs),
(615,139,o),
(592,173,o),
(592,216,c),
(682,216,o),
(843,216,o),
(945,216,c),
(945,243,l),
(945,368,o),
(853,510,o),
(650,510,cs),
(447,510,o),
(355,374,o),
(355,250,cs),
(355,125,o),
(447,-10,o),
(650,-10,cs)
);
},
{
closed = 1;
nodes = (
(592,335,o),
(615,371,o),
(651,371,cs),
(686,371,o),
(712,336,o),
(712,292,c),
(672,292,o),
(632,292,o),
(592,292,c)
);
},
{
closed = 1;
nodes = (
(283,-10,o),
(341,25,o),
(365,49,c),
(368,34,o),
(376,12,o),
(384,0,c),
(384,0,l),
(626,0,l),
(626,0,l),
(598,52,o),
(591,93,o),
(591,151,cs),
(591,318,ls),
(591,424,o),
(505,510,o),
(316,510,cs),
(159,510,o),
(45,427,o),
(31,353,c),
(31,353,l),
(248,316,l),
(252,358,o),
(269,394,o),
(306,394,cs),
(347,394,o),
(361,349,o),
(361,317,c),
(242,298,ls),
(71,271,o),
(20,206,o),
(20,121,cs),
(20,50,o),
(82,-10,o),
(198,-10,cs)
);
},
{
closed = 1;
nodes = (
(266,123,o),
(246,137,o),
(246,157,cs),
(246,178,o),
(263,192,o),
(297,206,cs),
(320,216,o),
(339,223,o),
(361,237,c),
(361,205,l),
(361,151,o),
(320,123,o),
(288,123,cs)
);
}
);
};
layerId = "C8CD87A0-2407-4F05-BADA-4D8336545B60";
shapes = (
{
closed = 1;
nodes = (
(293,-10,o),
(355,33,o),
(413,77,c),
(468,35,o),
(533,-10,o),
(650,-10,cs),
(833,-10,o),
(900,87,o),
(927,143,c),
(714,193,l),
(705,172,o),
(688,139,o),
(650,139,cs),
(615,139,o),
(592,173,o),
(592,216,c),
(629,216,o),
(813,216,o),
(945,216,c),
(945,243,ls),
(945,368,o),
(853,510,o),
(650,510,cs),
(573,510,o),
(520,489,o),
(489,474,c),
(447,493,o),
(391,510,o),
(316,510,cs),
(159,510,o),
(45,427,o),
(31,353,c),
(31,353,l),
(248,316,l),
(252,358,o),
(269,394,o),
(306,394,cs),
(347,394,o),
(361,349,o),
(361,317,c),
(242,298,ls),
(71,271,o),
(20,206,o),
(20,121,cs),
(20,50,o),
(82,-10,o),
(198,-10,cs)
);
},
{
closed = 1;
nodes = (
(246,178,o),
(263,192,o),
(297,206,cs),
(320,216,o),
(339,223,o),
(361,237,c),
(361,222,o),
(361,209,o),
(361,205,cs),
(361,151,o),
(320,123,o),
(288,123,cs),
(266,123,o),
(246,137,o),
(246,157,cs)
);
},
{
closed = 1;
nodes = (
(592,335,o),
(615,371,o),
(651,371,cs),
(686,371,o),
(712,336,o),
(712,292,c),
(672,292,o),
(632,292,o),
(592,292,c)
);
}
);
width = 965;
}
);
metricLeft = "=a";
metricRight = "=e";
unicode = 230;
},
{
glyphname = b;
lastChange = "2025-08-15 17:48:19 +0000";
layers = (
{
anchors = (
{
name = bottom;
pos = (289,0);
},
{
name = center;
pos = (289,236);
},
{
name = top;
pos = (289,471);
}
);
layerId = m01;
metricRight = "=o";
shapes = (
{
closed = 1;
nodes = (
(409,-10,o),
(549,80,o),
(549,239,cs),
(549,392,o),
(457,481,o),
(369,481,cs),
(300,481,o),
(239,427,o),
(181,388,c),
(181,769,l),
(167,780,l),
(11,734,l),
(5,699,l),
(61,680,o),
(86,649,o),
(86,618,cs),
(86,11,l),
(100,0,l),
(181,35,l),
(213,12,o),
(257,-10,o),
(315,-10,cs)
);
},
{
closed = 1;
nodes = (
(267,60,o),
(216,96,o),
(181,134,c),
(181,330,l),
(212,355,o),
(283,402,o),
(318,402,cs),
(410,402,o),
(452,317,o),
(452,205,cs),
(452,104,o),
(409,60,o),
(340,60,cs)
);
}
);
width = 579;
},
{
anchors = (
{
name = bottom;
pos = (359,0);
},
{
name = center;
pos = (359,250);
},
{
name = top;
pos = (359,500);
}
);
layerId = "C36E42DF-D6E4-4FAF-B5BA-99700BA29EB5";
metricLeft = "=n-10";
metricRight = "=o";
shapes = (
{
closed = 1;
nodes = (
(568,-10,o),
(698,100,o),
(698,265,cs),
(698,411,o),
(606,510,o),
(488,510,cs),
(429,510,o),
(358,466,o),
(300,437,c),
(300,740,l),
(250,780,l),
(21,724,l),
(5,590,l),
(50,582,o),
(65,549,o),
(65,478,cs),
(65,41,l),
(117,0,l),
(280,38,l),
(348,4,o),
(406,-10,o),
(455,-10,cs)
);
},
{
closed = 1;
nodes = (
(344,156,o),
(322,170,o),
(300,192,c),
(300,298,l),
(324,319,o),
(356,344,o),
(385,344,cs),
(419,344,o),
(434,310,o),
(434,244,cs),
(434,193,o),
(415,156,o),
(371,156,cs)
);
}
);
width = 718;
},
{
anchors = (
{
name = bottom;
pos = (298,0);
},
{
name = center;
pos = (298,236);
},
{
name = top;
pos = (298,471);
}
);
layerId = "9E464B93-4987-4E25-B327-76BD95426741";
metricRight = "=o";
shapes = (
{
closed = 1;
nodes = (
(432,-10,o),
(551,97,o),
(551,240,cs),
(551,367,o),
(471,481,o),
(366,481,cs),
(281,481,o),
(205,418,o),
(141,361,c),
(141,769,l),
(127,780,l),
(21,768,l),
(20,759,l),
(124,759,o),
(124,759,o),
(124,727,cs),
(124,4,l),
(136,0,l),
(141,99,l),
(185,34,o),
(246,-10,o),
(318,-10,cs)
);
},
{
closed = 1;
nodes = (
(253,4,o),
(188,57,o),
(141,140,c),
(141,347,l),
(187,387,o),
(277,468,o),
(351,468,cs),
(449,468,o),
(529,353,o),
(529,226,cs),
(529,102,o),
(430,4,o),
(336,4,cs)
);
}
);
width = 596;
},
{
anchors = (
{
name = bottom;
pos = (282,0);
},
{
name = center;
pos = (282,236);
},
{
name = top;
pos = (282,471);
}
);
layerId = "BABFB3A0-9CFA-45ED-BD0F-DD711F12EEFF";
metricLeft = "=n";
metricRight = "=o";
shapes = (
{
closed = 1;
nodes = (
(437,-10,o),
(534,89,o),
(534,239,cs),
(534,389,o),
(426,481,o),
(319,481,cs),
(237,481,o),
(173,447,o),
(148,393,c),
(148,750,l),
(148,750,l),
(60,750,l),
(60,750,l),
(60,720,o),
(60,675,o),
(60,550,cs),
(60,0,l),
(148,0,l),
(148,78,l),
(180,23,o),
(241,-10,o),
(319,-10,cs)
);
},
{
closed = 1;
nodes = (
(227,71,o),
(145,115,o),
(145,233,c),
(145,233,l),
(145,351,o),
(227,395,o),
(294,395,cs),
(371,395,o),
(446,337,o),
(446,233,cs),
(446,129,o),
(371,71,o),
(294,71,cs)
);
}
);
width = 564;
},
{
anchors = (
{
name = bottom;
pos = (350,0);
},
{
name = center;
pos = (350,250);
},
{
name = top;
pos = (350,500);
}
);
layerId = "C8CD87A0-2407-4F05-BADA-4D8336545B60";
metricLeft = "=n";
metricRight = "=o";
shapes = (
{
closed = 1;
nodes = (
(574,-10,o),
(680,86,o),
(680,251,cs),
(680,415,o),
(570,510,o),
(454,510,cs),
(377,510,o),
(320,485,o),
(270,439,c),
(270,750,l),
(270,750,l),
(40,750,l),
(40,750,l),
(40,720,o),
(40,675,o),
(40,550,c),
(40,0,l),
(270,0,l),
(270,83,l),
(314,25,o),
(377,-10,o),
(454,-10,cs)
);
},
{
closed = 1;
nodes = (
(291,156,o),
(268,199,o),
(268,251,c),
(268,251,l),
(268,302,o),
(291,345,o),
(333,345,cs),
(375,345,o),
(398,302,o),
(398,251,cs),
(398,199,o),
(375,156,o),
(333,156,cs)
);
}
);
width = 700;
},
{
anchors = (
{
name = bottom;
pos = (291,0);
},
{
name = center;
pos = (291,236);
},
{
name = top;
pos = (291,471);
}
);
layerId = "48DAC09D-95D4-4D70-8D14-87ABECD8575B";
metricLeft = "=n";
metricRight = "=o";
shapes = (
{
closed = 1;
nodes = (
(435,-10,o),
(536,75,o),
(536,235,cs),
(536,395,o),
(435,481,o),
(309,481,cs),
(191,481,o),
(116,396,o),
(91,323,c),
(91,749,l),
(91,749,l),
(75,749,l),
(75,749,l),
(75,719,o),
(75,699,o),
(75,649,cs),
(75,0,l),
(91,0,l),
(91,151,l),
(116,73,o),
(191,-10,o),
(309,-10,cs)
);
},
{
closed = 1;
nodes = (
(204,5,o),
(90,85,o),
(90,236,c),
(90,236,l),
(90,385,o),
(204,466,o),
(309,466,cs),
(424,466,o),
(520,385,o),
(520,235,cs),
(520,85,o),
(424,5,o),
(309,5,cs)
);
}
);
width = 581;
}
);
metricLeft = "=n-10";
metricRight = "=o";
unicode = 98;
},
{
glyphname = c;
lastChange = "2025-08-15 17:48:19 +0000";
layers = (
{
anchors = (
{
name = bottom;
pos = (260,0);
},
{
name = top;
pos = (260,471);
}
);
layerId = m01;
metricLeft = "=o";
metricRight = "=o-10";
shapes = (
{
closed = 1;
nodes = (
(363,-10,o),
(415,44,o),
(439,79,c),
(416,106,l),
(389,84,o),
(343,60,o),
(279,60,cs),
(167,60,o),
(132,175,o),
(132,264,cs),
(132,350,o),
(168,412,o),
(259,412,cs),
(306,412,o),
(349,373,o),
(371,340,c),
(438,406,l),
(398,452,o),
(343,481,o),
(276,481,cs),
(161,481,o),
(30,374,o),
(30,235,cs),
(30,102,o),
(106,-10,o),
(259,-10,cs)
);
}
);
width = 459;
},
{
anchors = (
{
name = bottom;
pos = (298,0);
},
{
name = top;
pos = (298,500);
}
);
layerId = "C36E42DF-D6E4-4FAF-B5BA-99700BA29EB5";
metricLeft = "=o";
metricRight = "=o-10";
shapes = (
{
closed = 1;
nodes = (
(438,-10,o),
(530,55,o),
(585,127,c),
(493,239,l),
(448,184,o),
(403,160,o),
(357,154,cs),
(310,148,o),
(260,157,o),
(252,240,cs),
(244,319,o),
(278,344,o),
(314,347,cs),
(356,350,o),
(375,315,o),
(385,287,c),
(576,413,l),
(516,492,o),
(423,510,o),
(338,510,cs),
(192,510,o),
(20,405,o),
(20,249,cs),
(20,107,o),
(134,-10,o),
(312,-10,cs)
);
}
);
width = 595;
},
{
anchors = (
{
name = bottom;
pos = (244,0);
},
{
name = top;
pos = (244,471);
}
);
layerId = "9E464B93-4987-4E25-B327-76BD95426741";
metricLeft = "=o";
metricRight = "=o-10";
shapes = (
{
closed = 1;
nodes = (
(379,-10,o),
(429,37,o),
(453,72,c),
(446,79,l),
(425,47,o),
(368,4,o),
(284,4,cs),
(143,4,o),
(65,124,o),
(65,250,cs),
(65,377,o),
(179,468,o),
(279,468,cs),
(356,468,o),
(411,423,o),
(433,390,c),
(453,406,l),
(413,452,o),
(358,481,o),
(291,481,cs),
(169,481,o),
(45,384,o),
(45,235,cs),
(45,102,o),
(123,-10,o),
(275,-10,cs)
);
}
);
width = 488;
},
{
anchors = (
{
name = bottom;
pos = (270,0);
},
{
name = top;
pos = (270,471);
}
);
layerId = "BABFB3A0-9CFA-45ED-BD0F-DD711F12EEFF";
metricLeft = "=o";
metricRight = "=o-10";
shapes = (
{
closed = 1;
nodes = (
(410,-10,o),
(464,77,o),
(488,114,c),
(414,159,l),
(379,107,o),
(334,77,o),
(270,77,cs),
(188,77,o),
(117,146,o),
(117,235,cs),
(117,321,o),
(188,393,o),
(270,393,cs),
(336,393,o),
(381,360,o),
(412,313,c),
(488,360,l),
(460,400,o),
(400,481,o),
(270,481,cs),
(139,481,o),
(30,370,o),
(30,235,cs),
(30,99,o),
(139,-10,o),
(270,-10,cs)
);
}
);
width = 508;
},
{
anchors = (
{
name = bottom;
pos = (303,0);
},
{
name = top;
pos = (303,500);
}
);
layerId = "C8CD87A0-2407-4F05-BADA-4D8336545B60";
metricLeft = "=o";
metricRight = "=o-5";
shapes = (
{
closed = 1;
nodes = (
(489,-10,o),
(558,85,o),
(590,141,c),
(380,216,l),
(368,185,o),
(354,155,o),
(315,155,cs),
(273,155,o),
(250,198,o),
(250,249,cs),
(250,301,o),
(273,344,o),
(315,344,cs),
(357,344,o),
(375,305,o),
(380,276,c),
(590,355,l),
(565,400,o),
(496,510,o),
(315,510,cs),
(112,510,o),
(20,374,o),
(20,250,cs),
(20,125,o),
(112,-10,o),
(315,-10,cs)
);
}
);
width = 605;
},
{
anchors = (
{
name = bottom;
pos = (269,0);
},
{
name = top;
pos = (269,471);
}
);
layerId = "48DAC09D-95D4-4D70-8D14-87ABECD8575B";
metricLeft = "=o";
metricRight = "=o-10";
shapes = (
{
closed = 1;
nodes = (
(425,-10,o),
(479,77,o),
(503,114,c),
(491,124,l),
(469,90,o),
(419,5,o),
(286,5,cs),
(164,5,o),
(61,105,o),
(61,235,cs),
(61,365,o),
(164,466,o),
(286,466,cs),
(419,466,o),
(467,385,o),
(490,351,c),
(503,360,l),
(476,400,o),
(426,481,o),
(286,481,cs),
(155,481,o),
(45,370,o),
(45,235,cs),
(45,99,o),
(154,-10,o),
(285,-10,cs)
);
}
);
width = 538;
}
);
metricLeft = "=o";
metricRight = "=o-5";
unicode = 99;
},
{
glyphname = d;
lastChange = "2025-08-15 17:48:19 +0000";
layers = (
{
anchors = (
{
name = bottom;
pos = (295,0);
},
{
name = center;
pos = (421,565);
},
{
name = top;
pos = (295,780);
},
{
name = topright;
pos = (579,780);
}
);
layerId = m01;
metricLeft = "=o";
metricRight = "=n";
shapes = (
{
closed = 1;
nodes = (
(289,-10,o),
(350,45,o),
(408,84,c),
(407,72,o),
(420,30,o),
(432,5,c),
(446,-6,l),
(577,23,l),
(583,58,l),
(522,68,o),
(503,112,o),
(503,167,cs),
(503,769,l),
(488,780,l),
(334,734,l),
(328,699,l),
(383,680,o),
(408,649,o),
(408,618,c),
(408,424,l),
(376,460,o),
(332,481,o),
(273,481,cs),
(170,481,o),
(30,392,o),
(30,233,cs),
(30,80,o),
(122,-10,o),
(220,-10,cs)
);
},
{
closed = 1;
nodes = (
(169,70,o),
(127,155,o),
(127,267,cs),
(127,358,o),
(180,412,o),
(249,412,cs),
(322,412,o),
(373,376,o),
(408,337,c),
(408,142,l),
(377,117,o),
(306,70,o),
(269,70,cs)
);
}
);
width = 588;
},
{
anchors = (
{
name = bottom;
pos = (357,0);
},
{
name = center;
pos = (431,565);
},
{
name = top;
pos = (357,780);
},
{
name = topright;
pos = (693,780);
}
);
layerId = "C36E42DF-D6E4-4FAF-B5BA-99700BA29EB5";
metricLeft = "=o";
metricRight = "=n";
shapes = (
{
closed = 1;
nodes = (
(299,-10,o),
(363,44,o),
(418,83,c),
(431,71,o),
(433,50,o),
(433,30,c),
(483,-10,l),
(687,46,l),
(703,181,l),
(652,199,o),
(643,241,o),
(643,302,cs),
(643,740,l),
(593,780,l),
(374,724,l),
(358,590,l),
(403,582,o),
(418,549,o),
(418,478,c),
(418,452,l),
(386,488,o),
(332,510,o),
(254,510,cs),
(150,510,o),
(20,400,o),
(20,235,cs),
(20,89,o),
(112,-10,o),
(230,-10,cs)
);
},
{
closed = 1;
nodes = (
(299,156,o),
(284,190,o),
(284,256,cs),
(284,307,o),
(303,344,o),
(347,344,cs),
(374,344,o),
(396,330,o),
(418,308,c),
(418,202,l),
(394,181,o),
(362,156,o),
(333,156,cs)
);
}
);
width = 713;
},
{
anchors = (
{
name = bottom;
pos = (298,0);
},
{
name = center;
pos = (416,565);
},
{
name = top;
pos = (298,780);
},
{
name = topright;
pos = (591,780);
}
);
layerId = "9E464B93-4987-4E25-B327-76BD95426741";
metricLeft = "=o";
metricRight = "=n";
shapes = (
{
closed = 1;
nodes = (
(315,-10,o),
(391,53,o),
(455,110,c),
(455,81,o),
(455,28,o),
(455,1,c),
(469,-10,l),
(575,2,l),
(576,11,l),
(472,11,o),
(472,11,o),
(472,41,cs),
(472,769,l),
(458,780,l),
(352,768,l),
(351,759,l),
(455,759,o),
(455,759,o),
(455,727,c),
(455,372,l),
(411,437,o),
(350,481,o),
(278,481,cs),
(164,481,o),
(45,374,o),
(45,231,cs),
(45,104,o),
(125,-10,o),
(230,-10,cs)
);
},
{
closed = 1;
nodes = (
(147,3,o),
(67,118,o),
(67,245,cs),
(67,369,o),
(166,467,o),
(260,467,cs),
(343,467,o),
(408,414,o),
(455,331,c),
(455,124,l),
(409,84,o),
(319,3,o),
(245,3,cs)
);
}
);
width = 596;
},
{
anchors = (
{
name = bottom;
pos = (282,0);
},
{
name = center;
pos = (421,565);
},
{
name = top;
pos = (282,780);
},
{
name = topright;
pos = (554,780);
}
);
layerId = "BABFB3A0-9CFA-45ED-BD0F-DD711F12EEFF";
metricLeft = "=o";
metricRight = "=n";
shapes = (
{
closed = 1;
nodes = (
(323,-10,o),
(384,23,o),
(416,78,c),
(416,78,o),
(416,30,o),
(416,0,c),
(416,0,l),
(504,0,l),
(504,0,l),
(504,30,o),
(504,76,o),
(504,201,cs),
(504,750,l),
(504,750,l),
(416,750,l),
(416,750,l),
(416,720,o),
(416,675,o),
(416,550,c),
(416,393,l),
(391,447,o),
(327,481,o),
(245,481,cs),
(142,481,o),
(30,389,o),
(30,239,cs),
(30,89,o),
(127,-10,o),
(245,-10,cs)
);
},
{
closed = 1;
nodes = (
(193,71,o),
(118,129,o),
(118,233,cs),
(118,337,o),
(193,395,o),
(270,395,cs),
(337,395,o),
(419,351,o),
(419,233,c),
(419,233,l),
(419,115,o),
(337,71,o),
(270,71,cs)
);
}
);
width = 564;
},
{
anchors = (
{
name = bottom;
pos = (350,0);
},
{
name = center;
pos = (431,565);
},
{
name = top;
pos = (350,780);
},
{
name = topright;
pos = (680,780);
}
);
layerId = "C8CD87A0-2407-4F05-BADA-4D8336545B60";
metricLeft = "=o";
metricRight = "=n";
shapes = (
{
closed = 1;
nodes = (
(323,-10,o),
(386,25,o),
(430,73,c),
(430,62,o),
(430,0,o),
(430,0,c),
(430,0,l),
(660,0,l),
(660,0,l),
(660,31,o),
(660,79,o),
(660,209,c),
(660,750,l),
(660,750,l),
(430,750,l),
(430,750,l),
(430,718,o),
(430,675,o),
(430,550,c),
(430,439,l),
(380,485,o),
(323,510,o),
(246,510,cs),
(130,510,o),
(20,415,o),
(20,251,cs),
(20,86,o),
(126,-10,o),
(246,-10,cs)
);
},
{
closed = 1;
nodes = (
(325,156,o),
(302,199,o),
(302,251,cs),
(302,302,o),
(325,345,o),
(367,345,cs),
(409,345,o),
(432,302,o),
(432,251,c),
(432,251,l),
(432,199,o),
(409,156,o),
(367,156,cs)
);
}
);
width = 700;
},
{
anchors = (
{
name = bottom;
pos = (291,0);
},
{
name = center;
pos = (416,565);
},
{
name = top;
pos = (291,780);
},
{
name = topright;
pos = (576,780);
}
);
layerId = "48DAC09D-95D4-4D70-8D14-87ABECD8575B";
metricLeft = "=o";
metricRight = "=n";
shapes = (
{
closed = 1;
nodes = (
(390,-10,o),
(465,73,o),
(490,151,c),
(490,50,o),
(490,30,o),
(490,0,c),
(490,0,l),
(506,0,l),
(506,0,l),
(506,30,o),
(506,50,o),
(506,100,c),
(506,750,l),
(506,750,l),
(490,750,l),
(490,750,l),
(490,720,o),
(490,700,o),
(490,650,c),
(490,323,l),
(465,396,o),
(390,481,o),
(272,481,cs),
(146,481,o),
(45,395,o),
(45,235,cs),
(45,75,o),
(146,-10,o),
(272,-10,cs)
);
},
{
closed = 1;
nodes = (
(157,5,o),
(61,85,o),
(61,235,cs),
(61,385,o),
(157,466,o),
(272,466,cs),
(377,466,o),
(491,385,o),
(491,236,c),
(491,236,l),
(491,85,o),
(377,5,o),
(272,5,cs)
);
}
);
width = 581;
}
);
metricLeft = "=o";
unicode = 100;
},
{
glyphname = eth;
lastChange = "2025-08-15 17:48:19 +0000";
layers = (
{
layerId = "9E464B93-4987-4E25-B327-76BD95426741";
shapes = (
{
closed = 1;
nodes = (
(540,492,o),
(388,695,o),
(177,738,c),
(161,697,l),
(319,636,o),
(390,535,o),
(415,413,c),
(376,443,o),
(325,454,o),
(284,454,cs),
(142,454,o),
(50,362,o),
(50,244,cs),
(50,91,o),
(172,-10,o),
(303,-10,cs),
(445,-10,o),
(540,105,o),
(540,277,cs)
);
},
{
closed = 1;
nodes = (
(160,310,o),
(191,395,o),
(289,395,cs),
(377,395,o),
(433,318,o),
(433,213,cs),
(433,102,o),
(366,54,o),
(301,54,cs),
(217,54,o),
(160,144,o),
(160,228,cs)
);
},
{
closed = 1;
nodes = (
(173,521,l),
(239,540,l),
(466,750,l),
(452,761,l),
(386,742,l),
(159,532,l)
);
}
);
width = 595;
},
{
layerId = "48DAC09D-95D4-4D70-8D14-87ABECD8575B";
shapes = (
{
closed = 1;
nodes = (
(549,526,o),
(393,705,o),
(182,738,c),
(164,664,l),
(322,629,o),
(418,504,o),
(455,381,c),
(408,433,o),
(350,454,o),
(289,454,cs),
(149,454,o),
(55,352,o),
(55,222,cs),
(55,92,o),
(157,-10,o),
(297,-10,cs),
(450,-10,o),
(549,105,o),
(549,277,cs)
);
},
{
closed = 1;
nodes = (
(145,320,o),
(216,370,o),
(298,370,cs),
(380,370,o),
(452,318,o),
(452,222,cs),
(452,124,o),
(380,74,o),
(298,74,cs),
(216,74,o),
(145,124,o),
(145,222,cs)
);
},
{
closed = 1;
nodes = (
(184,562,l),
(252,522,l),
(459,702,l),
(459,702,l),
(391,742,l),
(184,562,l)
);
}
);
width = 604;
},
{
layerId = m01;
shapes = (
{
closed = 1;
nodes = (
(525,492,o),
(373,695,o),
(162,738,c),
(146,697,l),
(304,636,o),
(375,535,o),
(400,413,c),
(361,443,o),
(310,454,o),
(269,454,cs),
(127,454,o),
(35,362,o),
(35,244,cs),
(35,91,o),
(157,-10,o),
(288,-10,cs),
(430,-10,o),
(525,105,o),
(525,277,cs)
);
},
{
closed = 1;
nodes = (
(145,310,o),
(176,395,o),
(274,395,cs),
(362,395,o),
(418,318,o),
(418,213,cs),
(418,102,o),
(351,54,o),
(286,54,cs),
(202,54,o),
(145,144,o),
(145,228,cs)
);
},
{
closed = 1;
nodes = (
(158,521,l),
(224,540,l),
(451,750,l),
(437,761,l),
(371,742,l),
(144,532,l)
);
}
);
width = 565;
},
{
layerId = "BABFB3A0-9CFA-45ED-BD0F-DD711F12EEFF";
shapes = (
{
closed = 1;
nodes = (
(534,526,o),
(378,705,o),
(167,738,c),
(149,664,l),
(307,629,o),
(403,504,o),
(440,381,c),
(393,433,o),
(335,454,o),
(274,454,cs),
(134,454,o),
(40,352,o),
(40,222,cs),
(40,92,o),
(142,-10,o),
(282,-10,cs),
(435,-10,o),
(534,105,o),
(534,277,cs)
);
},
{
closed = 1;
nodes = (
(130,320,o),
(201,370,o),
(283,370,cs),
(365,370,o),
(437,318,o),
(437,222,cs),
(437,124,o),
(365,74,o),
(283,74,cs),
(201,74,o),
(130,124,o),
(130,222,cs)
);
},
{
closed = 1;
nodes = (
(169,562,l),
(237,522,l),
(444,702,l),
(444,702,l),
(376,742,l),
(169,562,l)
);
}
);
width = 574;
},
{
layerId = "C36E42DF-D6E4-4FAF-B5BA-99700BA29EB5";
shapes = (
{
closed = 1;
nodes = (
(515,492,o),
(363,695,o),
(152,738,c),
(136,697,l),
(294,636,o),
(365,535,o),
(390,413,c),
(351,443,o),
(300,454,o),
(259,454,cs),
(117,454,o),
(25,362,o),
(25,244,cs),
(25,91,o),
(147,-10,o),
(278,-10,cs),
(420,-10,o),
(515,105,o),
(515,277,cs)
);
},
{
closed = 1;
nodes = (
(135,310,o),
(166,395,o),
(264,395,cs),
(352,395,o),
(408,318,o),
(408,213,cs),
(408,102,o),
(341,54,o),
(276,54,cs),
(192,54,o),
(135,144,o),
(135,228,cs)
);
},
{
closed = 1;
nodes = (
(148,521,l),
(214,540,l),
(441,750,l),
(427,761,l),
(361,742,l),
(134,532,l)
);
}
);
width = 545;
},
{
layerId = "C8CD87A0-2407-4F05-BADA-4D8336545B60";
shapes = (
{
closed = 1;
nodes = (
(534,526,o),
(378,705,o),
(167,738,c),
(149,664,l),
(307,629,o),
(403,504,o),
(440,381,c),
(393,433,o),
(335,454,o),
(274,454,cs),
(134,454,o),
(40,352,o),
(40,222,cs),
(40,92,o),
(142,-10,o),
(282,-10,cs),
(435,-10,o),
(534,105,o),
(534,277,cs)
);
},
{
closed = 1;
nodes = (
(130,320,o),
(201,370,o),
(283,370,cs),
(365,370,o),
(437,318,o),
(437,222,cs),
(437,124,o),
(365,74,o),
(283,74,cs),
(201,74,o),
(130,124,o),
(130,222,cs)
);
},
{
closed = 1;
nodes = (
(169,562,l),
(237,522,l),
(444,702,l),
(444,702,l),
(376,742,l),
(169,562,l)
);
}
);
width = 574;
}
);
metricLeft = "=|six";
metricRight = "=|six";
unicode = 240;
},
{
glyphname = e;
lastChange = "2025-08-20 14:12:41 +0000";
layers = (
{
anchors = (
{
name = bottom;
pos = (262,0);
},
{
name = ogonek;
pos = (355,10);
},
{
name = top;
pos = (261,471);
}
);
layerId = m01;
metricLeft = "=o";
metricRight = "=o";
shapes = (
{
closed = 1;
nodes = (
(375,-10,o),
(451,56,o),
(474,90,c),
(449,117,l),
(416,83,o),
(353,60,o),
(295,60,cs),
(196,60,o),
(149,126,o),
(137,194,c),
(228,210,o),
(368,248,o),
(462,281,c),
(472,295,l),
(454,403,o),
(368,481,o),
(264,481,cs),
(151,481,o),
(30,373,o),
(30,235,cs),
(30,102,o),
(116,-10,o),
(259,-10,cs)
);
},
{
closed = 1;
nodes = (
(129,347,o),
(180,413,o),
(245,413,cs),
(318,413,o),
(350,360,o),
(364,315,c),
(283,289,o),
(210,267,o),
(131,257,c)
);
}
);
width = 504;
},
{
anchors = (
{
name = bottom;
pos = (315,0);
},
{
name = ogonek;
pos = (566,10);
},
{
name = top;
pos = (315,500);
}
);
layerId = "C36E42DF-D6E4-4FAF-B5BA-99700BA29EB5";
metricLeft = "=o";
metricRight = "=o";
shapes = (
{
closed = 1;
nodes = (
(468,-10,o),
(550,73,o),
(609,167,c),
(534,254,l),
(487,201,o),
(425,168,o),
(371,158,cs),
(314,147,o),
(260,160,o),
(251,195,c),
(364,221,o),
(507,262,o),
(572,289,c),
(598,341,l),
(564,426,o),
(474,510,o),
(338,510,cs),
(189,510,o),
(20,405,o),
(20,249,cs),
(20,108,o),
(134,-10,o),
(312,-10,cs)
);
},
{
closed = 1;
nodes = (
(237,334,o),
(267,368,o),
(303,371,cs),
(345,374,o),
(361,342,o),
(369,308,c),
(329,292,o),
(290,282,o),
(242,275,c)
);
}
);
width = 629;
},
{
anchors = (
{
name = bottom;
pos = (267,0);
},
{
name = ogonek;
pos = (493,10);
},
{
name = top;
pos = (267,471);
}
);
background = {
shapes = (
{
closed = 1;
nodes = (
(60,373,o),
(181,481,o),
(294,481,cs),
(398,481,o),
(484,403,o),
(502,295,c),
(492,281,l),
(398,248,o),
(258,210,o),
(167,194,c),
(179,126,o),
(226,60,o),
(307,60,cs),
(383,60,o),
(446,83,o),
(479,117,c),
(504,90,l),
(481,56,o),
(405,-10,o),
(289,-10,cs),
(146,-10,o),
(60,102,o),
(60,235,cs)
);
},
{
closed = 1;
nodes = (
(240,267,o),
(313,289,o),
(394,315,c),
(380,360,o),
(348,413,o),
(275,413,cs),
(210,413,o),
(159,347,o),
(161,257,c)
);
}
);
};
layerId = "9E464B93-4987-4E25-B327-76BD95426741";
metricLeft = "=o";
metricRight = "=o";
shapes = (
{
closed = 1;
nodes = (
(386,-10,o),
(464,58,o),
(489,90,c),
(483,95,l),
(447,53,o),
(371,4,o),
(276,4,cs),
(177,4,o),
(86,95,o),
(69,201,c),
(158,219,o),
(377,272,o),
(469,305,c),
(479,319,l),
(462,410,o),
(377,481,o),
(275,481,cs),
(165,481,o),
(45,373,o),
(45,235,cs),
(45,102,o),
(132,-10,o),
(272,-10,cs)
);
},
{
closed = 1;
nodes = (
(54,372,o),
(166,466,o),
(256,466,cs),
(375,466,o),
(443,381,o),
(462,313,c),
(349,279,o),
(177,233,o),
(67,212,c)
);
}
);
width = 534;
},
{
anchors = (
{
name = bottom;
pos = (270,0);
},
{
name = ogonek;
pos = (325,10);
},
{
name = top;
pos = (270,471);
}
);
layerId = "BABFB3A0-9CFA-45ED-BD0F-DD711F12EEFF";
metricLeft = "=o";
metricRight = "=o";
shapes = (
{
closed = 1;
nodes = (
(410,-10,o),
(474,77,o),
(498,114,c),
(424,159,l),
(389,112,o),
(336,74,o),
(270,74,cs),
(179,74,o),
(116,143,o),
(116,211,c),
(216,211,o),
(413,211,o),
(513,211,c),
(513,222,l),
(513,373,o),
(410,481,o),
(270,481,cs),
(139,481,o),
(30,370,o),
(30,235,cs),
(30,99,o),
(139,-10,o),
(270,-10,cs)
);
},
{
closed = 1;
nodes = (
(120,325,o),
(172,397,o),
(270,397,cs),
(369,397,o),
(419,325,o),
(419,288,c),
(319,288,o),
(220,288,o),
(120,288,c)
);
}
);
width = 543;
},
{
anchors = (
{
name = bottom;
pos = (315,0);
},
{
name = ogonek;
pos = (567,10);
},
{
name = top;
pos = (315,500);
}
);
layerId = "C8CD87A0-2407-4F05-BADA-4D8336545B60";
metricLeft = "=o";
metricRight = "=o";
shapes = (
{
closed = 1;
nodes = (
(498,-10,o),
(565,87,o),
(592,143,c),
(379,193,l),
(370,172,o),
(353,139,o),
(315,139,cs),
(280,139,o),
(257,173,o),
(257,216,c),
(347,216,o),
(508,216,o),
(610,216,c),
(610,243,l),
(610,368,o),
(518,510,o),
(315,510,cs),
(112,510,o),
(20,374,o),
(20,250,cs),
(20,125,o),
(112,-10,o),
(315,-10,cs)
);
},
{
closed = 1;
nodes = (
(257,335,o),
(280,371,o),
(316,371,cs),
(351,371,o),
(377,336,o),
(377,292,c),
(337,292,o),
(297,292,o),
(257,292,c)
);
}
);
width = 630;
},
{
anchors = (
{
name = bottom;
pos = (289,0);
},
{
name = ogonek;
pos = (532,10);
},
{
name = top;
pos = (289,471);
}
);
background = {
shapes = (
{
closed = 1;
nodes = (
(60,353,o),
(148,481,o),
(304,481,cs),
(460,481,o),
(548,349,o),
(548,246,c),
(548,240,l),
(398,240,o),
(226,240,o),
(76,240,c),
(76,135,o),
(154,5,o),
(303,5,cs),
(427,5,o),
(482,81,o),
(515,129,c),
(528,120,l),
(503,81,o),
(444,-10,o),
(303,-10,cs),
(148,-10,o),
(60,117,o),
(60,235,cs)
);
},
{
closed = 1;
nodes = (
(252,255,o),
(357,255,o),
(532,255,c),
(532,325,o),
(457,466,o),
(304,466,cs),
(152,466,o),
(77,325,o),
(77,255,c)
);
}
);
};
layerId = "48DAC09D-95D4-4D70-8D14-87ABECD8575B";
metricLeft = "=o";
metricRight = "=o";
shapes = (
{
closed = 1;
nodes = (
(429,-10,o),
(488,81,o),
(513,120,c),
(500,129,l),
(467,81,o),
(412,5,o),
(288,5,cs),
(139,5,o),
(61,135,o),
(61,240,c),
(211,240,o),
(383,240,o),
(533,240,c),
(533,246,l),
(533,349,o),
(445,481,o),
(289,481,cs),
(133,481,o),
(45,353,o),
(45,235,cs),
(45,117,o),
(133,-10,o),
(288,-10,cs)
);
},
{
closed = 1;
nodes = (
(62,325,o),
(137,466,o),
(289,466,cs),
(442,466,o),
(517,325,o),
(517,255,c),
(342,255,o),
(237,255,o),
(62,255,c)
);
}
);
width = 578;
}
);
metricLeft = "=o";
metricRight = "=o";
unicode = 101;
},
{
glyphname = ezh;
lastChange = "2025-08-15 17:48:19 +0000";
layers = (
{
anchors = (
{
name = bottom;
pos = (281,0);
},
{
name = top;
pos = (281,471);
}
);
layerId = "9E464B93-4987-4E25-B327-76BD95426741";
shapes = (
{
closed = 1;
nodes = (
(387,-220,o),
(526,-129,o),
(526,8,cs),
(526,111,o),
(408,203,o),
(313,198,c),
(501,443,l),
(488,471,l),
(55,471,l),
(35,316,l),
(92,307,l),
(110,366,o),
(156,401,o),
(217,401,cs),
(370,401,l),
(201,165,l),
(226,134,l),
(354,141,o),
(422,54,o),
(422,-21,cs),
(422,-98,o),
(362,-139,o),
(276,-139,cs),
(212,-139,o),
(138,-84,o),
(109,-43,c),
(36,-120,l),
(77,-173,o),
(172,-220,o),
(252,-220,cs)
);
}
);
width = 561;
},
{
anchors = (
{
name = bottom;
pos = (288,0);
},
{
name = top;
pos = (288,471);
}
);
layerId = "48DAC09D-95D4-4D70-8D14-87ABECD8575B";
shapes = (
{
closed = 1;
nodes = (
(419,-219,o),
(529,-140,o),
(529,-10,cs),
(529,110,o),
(452,187,o),
(329,197,c),
(497,391,l),
(497,471,l),
(79,471,l),
(79,394,l),
(79,394,l),
(108,394,o),
(175,394,o),
(319,394,cs),
(394,394,l),
(230,202,l),
(230,134,l),
(391,134,o),
(444,77,o),
(444,-2,cs),
(444,-75,o),
(380,-139,o),
(287,-139,cs),
(191,-139,o),
(139,-83,o),
(121,-11,c),
(45,-45,l),
(67,-152,o),
(156,-219,o),
(287,-219,cs)
);
}
);
width = 574;
},
{
anchors = (
{
name = bottom;
pos = (266,0);
},
{
name = top;
pos = (266,471);
}
);
layerId = m01;
shapes = (
{
closed = 1;
nodes = (
(372,-220,o),
(511,-129,o),
(511,8,cs),
(511,111,o),
(393,203,o),
(298,198,c),
(486,443,l),
(473,471,l),
(40,471,l),
(20,316,l),
(77,307,l),
(95,366,o),
(141,401,o),
(202,401,cs),
(355,401,l),
(186,165,l),
(211,134,l),
(339,141,o),
(407,54,o),
(407,-21,cs),
(407,-98,o),
(347,-139,o),
(261,-139,cs),
(197,-139,o),
(123,-84,o),
(94,-43,c),
(21,-120,l),
(62,-173,o),
(157,-220,o),
(237,-220,cs)
);
}
);
width = 531;
},
{
anchors = (
{
name = bottom;
pos = (273,0);
},
{
name = top;
pos = (273,471);
}
);
layerId = "BABFB3A0-9CFA-45ED-BD0F-DD711F12EEFF";
shapes = (
{
closed = 1;
nodes = (
(404,-219,o),
(514,-140,o),
(514,-10,cs),
(514,110,o),
(437,187,o),
(314,197,c),
(482,391,l),
(482,471,l),
(64,471,l),
(64,394,l),
(64,394,l),
(93,394,o),
(160,394,o),
(304,394,cs),
(379,394,l),
(215,202,l),
(215,134,l),
(376,134,o),
(429,77,o),
(429,-2,cs),
(429,-75,o),
(365,-139,o),
(272,-139,cs),
(176,-139,o),
(124,-83,o),
(106,-11,c),
(30,-45,l),
(52,-152,o),
(141,-219,o),
(272,-219,cs)
);
}
);
width = 544;
},
{
anchors = (
{
name = bottom;
pos = (256,0);
},
{
name = top;
pos = (256,471);
}
);
layerId = "C36E42DF-D6E4-4FAF-B5BA-99700BA29EB5";
shapes = (
{
closed = 1;
nodes = (
(362,-220,o),
(501,-129,o),
(501,8,cs),
(501,111,o),
(383,203,o),
(288,198,c),
(476,443,l),
(463,471,l),
(30,471,l),
(10,316,l),
(67,307,l),
(85,366,o),
(131,401,o),
(192,401,cs),
(345,401,l),
(176,165,l),
(201,134,l),
(329,141,o),
(397,54,o),
(397,-21,cs),
(397,-98,o),
(337,-139,o),
(251,-139,cs),
(187,-139,o),
(113,-84,o),
(84,-43,c),
(11,-120,l),
(52,-173,o),
(147,-220,o),
(227,-220,cs)
);
}
);
width = 511;
},
{
anchors = (
{
name = bottom;
pos = (263,0);
},
{
name = top;
pos = (263,471);
}
);
layerId = "C8CD87A0-2407-4F05-BADA-4D8336545B60";
shapes = (
{
closed = 1;
nodes = (
(394,-219,o),
(504,-140,o),
(504,-10,cs),
(504,110,o),
(427,187,o),
(304,197,c),
(472,391,l),
(472,471,l),
(54,471,l),
(54,394,l),
(54,394,l),
(83,394,o),
(150,394,o),
(294,394,cs),
(369,394,l),
(205,202,l),
(205,134,l),
(366,134,o),
(419,77,o),
(419,-2,cs),
(419,-75,o),
(355,-139,o),
(262,-139,cs),
(166,-139,o),
(114,-83,o),
(96,-11,c),
(20,-45,l),
(42,-152,o),
(131,-219,o),
(262,-219,cs)
);
}
);
width = 524;
}
);
metricLeft = "=z";
metricRight = "=z";
unicode = 658;
},
{
glyphname = f;
lastChange = "2025-08-15 17:48:19 +0000";
layers = (
{
anchors = (
{
name = bottom;
pos = (186,0);
},
{
name = top;
pos = (186,780);
}
);
layerId = m01;
metricLeft = "=n";
shapes = (
{
closed = 1;
nodes = (
(271,0,l),
(277,35,l),
(231,54,o),
(197,65,o),
(197,101,c),
(197,399,l),
(343,397,l),
(370,471,l),
(197,471,l),
(197,565,ls),
(197,642,o),
(207,690,o),
(260,690,cs),
(293,690,o),
(345,653,o),
(364,641,c),
(411,706,l),
(383,731,o),
(348,760,o),
(274,760,cs),
(168,760,o),
(102,667,o),
(102,583,cs),
(102,471,l),
(15,471,l),
(15,402,l),
(102,400,l),
(102,120,l),
(102,75,o),
(72,53,o),
(22,35,c),
(22,0,l)
);
}
);
width = 371;
},
{
anchors = (
{
name = bottom;
pos = (267,0);
},
{
name = top;
pos = (267,780);
}
);
layerId = "C36E42DF-D6E4-4FAF-B5BA-99700BA29EB5";
metricLeft = "=n";
shapes = (
{
closed = 1;
nodes = (
(376,0,l),
(392,132,l),
(346,151,o),
(337,175,o),
(337,211,c),
(337,355,l),
(483,346,l),
(510,500,l),
(337,500,l),
(337,500,ls),
(337,566,o),
(340,600,o),
(380,600,cs),
(418,600,o),
(445,565,o),
(462,539,c),
(594,693,l),
(561,719,o),
(498,759,o),
(399,759,cs),
(249,759,o),
(102,664,o),
(102,500,cs),
(102,500,l),
(15,500,l),
(15,371,l),
(102,366,l),
(102,220,l),
(102,175,o),
(92,153,o),
(42,135,c),
(42,0,l)
);
}
);
width = 534;
},
{
anchors = (
{
name = bottom;
pos = (161,0);
},
{
name = top;
pos = (161,780);
}
);
layerId = "9E464B93-4987-4E25-B327-76BD95426741";
metricLeft = "=n";
shapes = (
{
closed = 1;
nodes = (
(243,0,l),
(247,8,l),
(197,8,o),
(147,8,o),
(147,38,c),
(147,460,l),
(312,458,l),
(320,471,l),
(147,471,l),
(147,615,ls),
(147,693,o),
(179,745,o),
(233,745,cs),
(279,745,o),
(316,716,o),
(333,695,c),
(347,711,l),
(328,734,o),
(298,760,o),
(242,760,cs),
(186,760,o),
(130,707,o),
(130,624,cs),
(130,471,l),
(43,471,l),
(43,461,l),
(130,460,l),
(130,38,l),
(130,8,o),
(80,8,o),
(30,8,c),
(30,0,l)
);
}
);
width = 322;
},
{
anchors = (
{
name = bottom;
pos = (185,0);
},
{
name = top;
pos = (185,780);
}
);
layerId = "BABFB3A0-9CFA-45ED-BD0F-DD711F12EEFF";
metricLeft = "=o-10";
shapes = (
{
closed = 1;
nodes = (
(195,0,l),
(195,0,l),
(195,30,o),
(195,75,o),
(195,200,c),
(195,394,l),
(341,394,l),
(341,471,l),
(195,471,l),
(195,585,ls),
(195,633,o),
(234,671,o),
(281,671,cs),
(308,671,o),
(326,663,o),
(342,652,c),
(390,722,l),
(365,742,o),
(329,760,o),
(281,760,cs),
(184,760,o),
(107,682,o),
(107,585,cs),
(107,471,l),
(20,471,l),
(20,394,l),
(107,394,l),
(107,200,l),
(107,75,o),
(107,30,o),
(107,0,c),
(107,0,l)
);
}
);
width = 370;
},
{
anchors = (
{
name = bottom;
pos = (265,0);
},
{
name = top;
pos = (265,780);
}
);
layerId = "C8CD87A0-2407-4F05-BADA-4D8336545B60";
metricLeft = "=o-10";
shapes = (
{
closed = 1;
nodes = (
(337,0,l),
(337,0,l),
(337,30,o),
(337,75,o),
(337,200,c),
(337,340,l),
(493,340,l),
(493,500,l),
(337,500,l),
(337,500,ls),
(337,560,o),
(362,583,o),
(399,583,cs),
(436,583,o),
(461,560,o),
(481,527,c),
(569,711,l),
(526,737,o),
(476,760,o),
(390,760,cs),
(185,760,o),
(107,617,o),
(107,500,cs),
(107,500,l),
(10,500,l),
(10,340,l),
(107,340,l),
(107,200,l),
(107,75,o),
(107,30,o),
(107,0,c),
(107,0,l)
);
}
);
width = 529;
},
{
anchors = (
{
name = bottom;
pos = (162,0);
},
{
name = top;
pos = (162,780);
}
);
layerId = "48DAC09D-95D4-4D70-8D14-87ABECD8575B";
metricLeft = "=o-10";
shapes = (
{
closed = 1;
nodes = (
(138,0,l),
(138,0,l),
(138,10,o),
(138,30,o),
(138,60,c),
(138,457,l),
(284,457,l),
(284,471,l),
(138,471,l),
(138,630,ls),
(138,693,o),
(189,745,o),
(252,745,cs),
(293,745,o),
(315,725,o),
(319,722,c),
(329,735,l),
(318,743,o),
(295,760,o),
(252,760,cs),
(180,760,o),
(122,702,o),
(122,630,cs),
(122,471,l),
(35,471,l),
(35,457,l),
(122,457,l),
(122,60,l),
(122,30,o),
(122,10,o),
(122,0,c),
(122,0,l)
);
}
);
width = 324;
}
);
metricLeft = "=o-10";
unicode = 102;
},
{
glyphname = g;
lastChange = "2025-08-15 17:48:19 +0000";
layers = (
{
anchors = (
{
name = bottom;
pos = (262,-220);
},
{
name = center;
pos = (435,-80);
},
{
name = top;
pos = (240,471);
}
);
layerId = m01;
shapes = (
{
closed = 1;
nodes = (
(364,-220,o),
(504,-164,o),
(504,-70,cs),
(504,0,o),
(445,40,o),
(366,51,cs),
(240,68,ls),
(200,73,o),
(180,80,o),
(173,90,c),
(262,127,ls),
(333,157,o),
(428,192,o),
(428,298,cs),
(428,328,o),
(420,361,o),
(406,388,c),
(420,388,o),
(509,405,o),
(519,412,c),
(476,481,l),
(462,469,o),
(399,436,o),
(379,433,c),
(348,461,o),
(301,481,o),
(242,481,cs),
(135,481,o),
(31,411,o),
(31,303,cs),
(31,223,o),
(88,156,o),
(178,135,c),
(76,93,l),
(65,79,l),
(70,62,o),
(87,35,o),
(107,25,c),
(54,-4,o),
(15,-41,o),
(15,-82,cs),
(15,-153,o),
(76,-220,o),
(239,-220,cs)
);
},
{
closed = 1;
nodes = (
(107,-29,o),
(128,-9,o),
(155,11,c),
(289,-11,ls),
(393,-28,o),
(415,-38,o),
(415,-71,cs),
(415,-111,o),
(385,-144,o),
(275,-144,cs),
(161,-144,o),
(107,-96,o),
(107,-58,cs)
);
},
{
closed = 1;
nodes = (
(129,381,o),
(163,422,o),
(224,422,cs),
(288,422,o),
(330,367,o),
(330,286,cs),
(330,223,o),
(290,186,o),
(234,186,cs),
(165,186,o),
(129,263,o),
(129,324,cs)
);
}
);
width = 524;
},
{
anchors = (
{
name = bottom;
pos = (347,-220);
},
{
name = center;
pos = (445,-80);
},
{
name = top;
pos = (347,500);
}
);
layerId = "C36E42DF-D6E4-4FAF-B5BA-99700BA29EB5";
shapes = (
{
closed = 1;
nodes = (
(490,-220,o),
(634,-154,o),
(634,-50,cs),
(634,10,o),
(577,67,o),
(478,78,cs),
(398,87,ls),
(328,95,o),
(307,101,o),
(291,109,c),
(406,137,ls),
(531,167,o),
(578,237,o),
(578,303,cs),
(578,326,o),
(567,355,o),
(562,362,c),
(600,364,o),
(656,378,o),
(689,393,c),
(616,510,l),
(591,489,o),
(548,462,o),
(510,452,c),
(481,477,o),
(426,510,o),
(312,510,cs),
(179,510,o),
(44,431,o),
(44,313,cs),
(44,213,o),
(120,161,o),
(196,145,c),
(81,108,l),
(59,77,l),
(66,60,o),
(85,35,o),
(110,25,c),
(44,3,o),
(15,-34,o),
(15,-82,cs),
(15,-153,o),
(120,-220,o),
(304,-220,cs)
);
},
{
closed = 1;
nodes = (
(234,-41,o),
(248,-31,o),
(264,-21,c),
(349,-32,ls),
(414,-40,o),
(429,-53,o),
(429,-67,cs),
(429,-80,o),
(410,-93,o),
(340,-93,cs),
(268,-93,o),
(234,-72,o),
(234,-56,cs)
);
},
{
closed = 1;
nodes = (
(267,368,o),
(281,395,o),
(312,395,cs),
(343,395,o),
(362,359,o),
(362,305,cs),
(362,264,o),
(344,240,o),
(317,240,cs),
(283,240,o),
(267,291,o),
(267,330,cs)
);
}
);
width = 694;
},
{
anchors = (
{
name = bottom;
pos = (240,-220);
},
{
name = center;
pos = (430,-80);
},
{
name = top;
pos = (240,471);
}
);
layerId = "9E464B93-4987-4E25-B327-76BD95426741";
shapes = (
{
closed = 1;
nodes = (
(369,-220,o),
(459,-164,o),
(459,-90,cs),
(459,-30,o),
(410,-15,o),
(331,-1,cs),
(203,21,ls),
(154,29,o),
(131,33,o),
(107,59,c),
(247,124,ls),
(342,168,o),
(404,199,o),
(404,308,cs),
(404,348,o),
(385,392,o),
(363,419,c),
(380,422,o),
(439,449,o),
(449,456,c),
(438,478,l),
(422,457,o),
(377,430,o),
(357,426,c),
(340,443,o),
(295,481,o),
(228,481,cs),
(141,481,o),
(41,421,o),
(41,303,cs),
(41,230,o),
(94,121,o),
(246,134,c),
(102,70,l),
(91,56,l),
(96,39,o),
(110,28,o),
(132,19,c),
(79,-10,o),
(30,-61,o),
(30,-112,cs),
(30,-143,o),
(71,-220,o),
(224,-220,cs)
);
},
{
closed = 1;
nodes = (
(49,-49,o),
(109,-4,o),
(143,14,c),
(274,-8,ls),
(377,-25,o),
(440,-38,o),
(440,-91,cs),
(440,-145,o),
(388,-206,o),
(250,-206,cs),
(136,-206,o),
(49,-169,o),
(49,-100,cs)
);
},
{
closed = 1;
nodes = (
(62,406,o),
(138,469,o),
(213,469,cs),
(326,469,o),
(384,381,o),
(384,299,cs),
(384,204,o),
(312,145,o),
(232,145,cs),
(111,145,o),
(62,229,o),
(62,317,cs)
);
}
);
width = 479;
},
{
anchors = (
{
name = bottom;
pos = (268,-220);
},
{
name = center;
pos = (435,-77);
},
{
name = top;
pos = (268,471);
}
);
layerId = "BABFB3A0-9CFA-45ED-BD0F-DD711F12EEFF";
metricLeft = "=o";
metricRight = "=o-20";
shapes = (
{
closed = 1;
nodes = (
(425,-220,o),
(514,-167,o),
(514,-76,cs),
(514,10,o),
(439,60,o),
(324,60,cs),
(201,60,ls),
(141,60,o),
(143,126,o),
(183,138,c),
(183,138,l),
(372,104,o),
(459,206,o),
(459,304,cs),
(459,328,o),
(455,346,o),
(449,358,c),
(478,368,o),
(519,391,o),
(547,415,c),
(506,481,l),
(484,463,o),
(444,438,o),
(409,426,c),
(378,460,o),
(316,481,o),
(257,481,cs),
(156,481,o),
(53,411,o),
(53,311,cs),
(53,251,o),
(84,202,o),
(121,177,c),
(121,177,l),
(121,177,l),
(59,146,o),
(58,64,o),
(116,39,c),
(66,23,o),
(30,-20,o),
(30,-76,cs),
(30,-167,o),
(119,-220,o),
(272,-220,cs)
);
},
{
closed = 1;
nodes = (
(111,-25,o),
(189,-14,o),
(262,-14,c),
(282,-14,ls),
(361,-14,o),
(433,-25,o),
(433,-76,cs),
(433,-127,o),
(361,-142,o),
(272,-142,cs),
(189,-142,o),
(111,-127,o),
(111,-76,cs)
);
},
{
closed = 1;
nodes = (
(137,357,o),
(181,406,o),
(257,406,cs),
(333,406,o),
(376,357,o),
(376,307,cs),
(376,256,o),
(333,203,o),
(257,203,cs),
(181,203,o),
(137,252,o),
(137,307,cs)
);
}
);
width = 557;
},
{
anchors = (
{
name = bottom;
pos = (340,-220);
},
{
name = center;
pos = (445,-77);
},
{
name = top;
pos = (340,500);
}
);
layerId = "C8CD87A0-2407-4F05-BADA-4D8336545B60";
metricLeft = "=o";
shapes = (
{
closed = 1;
nodes = (
(512,-220,o),
(634,-165,o),
(634,-63,cs),
(634,29,o),
(547,93,o),
(300,89,cs),
(300,89,ls),
(238,88,o),
(242,133,o),
(300,130,c),
(300,130,l),
(506,120,o),
(579,214,o),
(579,306,cs),
(579,315,o),
(578,323,o),
(577,329,c),
(619,344,o),
(657,363,o),
(689,393,c),
(616,510,l),
(585,486,o),
(548,467,o),
(509,453,c),
(459,484,o),
(384,510,o),
(312,510,cs),
(191,510,o),
(43,437,o),
(43,313,cs),
(43,261,o),
(74,210,o),
(111,194,c),
(111,194,l),
(111,194,l),
(49,161,o),
(48,76,o),
(106,50,c),
(56,33,o),
(20,-5,o),
(20,-63,cs),
(20,-165,o),
(147,-220,o),
(329,-220,cs)
);
},
{
closed = 1;
nodes = (
(225,-37,o),
(266,-28,o),
(327,-28,c),
(327,-28,ls),
(392,-28,o),
(429,-37,o),
(429,-63,cs),
(429,-87,o),
(392,-100,o),
(327,-100,cs),
(266,-100,o),
(225,-87,o),
(225,-63,cs)
);
},
{
closed = 1;
nodes = (
(265,361,o),
(280,397,o),
(315,397,cs),
(350,397,o),
(364,361,o),
(364,323,cs),
(364,285,o),
(350,246,o),
(315,246,cs),
(280,246,o),
(265,285,o),
(265,323,cs)
);
}
);
width = 679;
},
{
anchors = (
{
name = bottom;
pos = (273,-220);
},
{
name = center;
pos = (430,-77);
},
{
name = top;
pos = (273,471);
}
);
background = {
shapes = (
{
closed = 1;
nodes = (
(445,-220,o),
(514,-161,o),
(514,-97,cs),
(514,-31,o),
(445,23,o),
(312,23,cs),
(221,23,ls),
(82,23,o),
(115,145,o),
(191,169,c),
(191,169,l),
(298,127,o),
(479,168,o),
(479,316,cs),
(479,355,o),
(454,393,o),
(443,407,c),
(466,420,o),
(511,448,o),
(535,469,c),
(526,481,l),
(504,462,o),
(458,431,o),
(434,419,c),
(403,454,o),
(348,481,o),
(277,481,cs),
(175,481,o),
(76,413,o),
(76,316,cs),
(76,266,o),
(110,201,o),
(176,175,c),
(176,175,l),
(176,175,l),
(100,146,o),
(77,36,o),
(179,16,c),
(123,3,o),
(70,-38,o),
(70,-97,cs),
(70,-161,o),
(139,-220,o),
(292,-220,cs)
);
},
{
closed = 1;
nodes = (
(86,-33,o),
(160,9,o),
(242,9,c),
(312,9,ls),
(416,9,o),
(498,-30,o),
(498,-97,cs),
(498,-162,o),
(416,-205,o),
(292,-205,cs),
(168,-205,o),
(86,-162,o),
(86,-97,cs)
);
},
{
closed = 1;
nodes = (
(92,392,o),
(170,466,o),
(277,466,cs),
(388,466,o),
(463,392,o),
(463,316,cs),
(463,229,o),
(390,169,o),
(277,169,cs),
(170,169,o),
(92,234,o),
(92,316,cs)
);
}
);
};
layerId = "48DAC09D-95D4-4D70-8D14-87ABECD8575B";
metricLeft = "=o";
metricRight = "=o-20";
shapes = (
{
closed = 1;
nodes = (
(430,-220,o),
(499,-161,o),
(499,-97,cs),
(499,-31,o),
(430,23,o),
(294,23,cs),
(206,23,ls),
(69,23,o),
(106,159,o),
(190,163,c),
(190,163,l),
(366,126,o),
(464,221,o),
(464,316,cs),
(464,360,o),
(440,394,o),
(428,407,c),
(451,420,o),
(496,448,o),
(520,469,c),
(511,481,l),
(489,462,o),
(443,431,o),
(419,419,c),
(388,454,o),
(333,481,o),
(262,481,cs),
(160,481,o),
(61,413,o),
(61,316,cs),
(61,236,o),
(112,189,o),
(171,169,c),
(171,169,l),
(171,169,l),
(92,155,o),
(61,41,o),
(164,16,c),
(108,3,o),
(45,-38,o),
(45,-97,cs),
(45,-161,o),
(124,-220,o),
(272,-220,cs)
);
},
{
closed = 1;
nodes = (
(61,-33,o),
(145,9,o),
(227,9,c),
(294,9,ls),
(401,9,o),
(483,-30,o),
(483,-97,cs),
(483,-162,o),
(401,-205,o),
(272,-205,cs),
(153,-205,o),
(61,-162,o),
(61,-97,cs)
);
},
{
closed = 1;
nodes = (
(77,392,o),
(155,466,o),
(262,466,cs),
(373,466,o),
(448,392,o),
(448,316,cs),
(448,206,o),
(345,169,o),
(262,169,cs),
(179,169,o),
(77,206,o),
(77,316,cs)
);
}
);
width = 545;
}
);
unicode = 103;
},
{
glyphname = h;
lastChange = "2025-08-15 17:48:19 +0000";
layers = (
{
anchors = (
{
name = bottom;
pos = (308,0);
},
{
name = center;
pos = (180,569);
},
{
name = top;
pos = (308,780);
}
);
layerId = m01;
metricLeft = "=n-5";
metricRight = "=n";
shapes = (
{
closed = 1;
nodes = (
(249,0,l),
(255,35,l),
(201,61,o),
(185,68,o),
(185,100,c),
(185,340,l),
(226,365,o),
(287,400,o),
(322,400,cs),
(399,400,o),
(431,350,o),
(431,266,cs),
(431,120,l),
(431,75,o),
(432,57,o),
(371,35,c),
(371,0,l),
(606,0,l),
(611,35,l),
(559,56,o),
(531,65,o),
(531,100,c),
(531,298,ls),
(531,411,o),
(477,481,o),
(378,481,cs),
(335,481,o),
(243,427,o),
(185,388,c),
(185,769,l),
(171,780,l),
(16,734,l),
(10,699,l),
(65,680,o),
(90,649,o),
(90,618,c),
(90,120,l),
(90,75,o),
(70,53,o),
(20,35,c),
(20,0,l)
);
}
);
width = 616;
},
{
anchors = (
{
name = bottom;
pos = (369,0);
},
{
name = center;
pos = (369,390);
},
{
name = top;
pos = (369,780);
}
);
layerId = "C36E42DF-D6E4-4FAF-B5BA-99700BA29EB5";
metricLeft = "=n-5";
metricRight = "=n";
shapes = (
{
closed = 1;
nodes = (
(334,0,l),
(350,126,l),
(315,142,o),
(305,159,o),
(305,205,c),
(305,271,l),
(325,297,o),
(360,328,o),
(385,328,cs),
(416,328,o),
(424,304,o),
(424,265,cs),
(424,211,l),
(424,165,o),
(422,145,o),
(389,126,c),
(389,0,l),
(722,0,l),
(727,135,l),
(675,153,o),
(664,155,o),
(664,230,c),
(664,317,ls),
(664,430,o),
(613,510,o),
(490,510,cs),
(435,510,o),
(362,457,o),
(305,417,c),
(305,740,l),
(255,780,l),
(26,724,l),
(10,590,l),
(55,582,o),
(70,549,o),
(70,478,c),
(70,250,l),
(70,175,o),
(60,153,o),
(10,135,c),
(10,0,l)
);
}
);
width = 737;
},
{
anchors = (
{
name = bottom;
pos = (305,0);
},
{
name = center;
pos = (305,390);
},
{
name = top;
pos = (305,780);
}
);
layerId = "9E464B93-4987-4E25-B327-76BD95426741";
metricLeft = "=n-5";
metricRight = "=n";
shapes = (
{
closed = 1;
nodes = (
(242,0,l),
(246,8,l),
(196,8,o),
(146,8,o),
(146,38,c),
(146,354,l),
(192,389,o),
(288,463,o),
(350,463,cs),
(444,463,o),
(473,380,o),
(473,286,cs),
(473,38,l),
(473,8,o),
(423,8,o),
(373,8,c),
(373,0,l),
(586,0,l),
(590,8,l),
(540,8,o),
(490,8,o),
(490,38,c),
(490,298,ls),
(490,411,o),
(462,481,o),
(363,481,cs),
(300,481,o),
(201,411,o),
(146,368,c),
(146,769,l),
(132,780,l),
(26,768,l),
(25,759,l),
(129,759,o),
(129,759,o),
(129,727,c),
(129,38,l),
(129,8,o),
(79,8,o),
(29,8,c),
(29,0,l)
);
}
);
width = 610;
},
{
anchors = (
{
name = bottom;
pos = (265,0);
},
{
name = center;
pos = (147,569);
},
{
name = top;
pos = (265,780);
}
);
layerId = "BABFB3A0-9CFA-45ED-BD0F-DD711F12EEFF";
metricLeft = "=n";
metricRight = "=n";
shapes = (
{
closed = 1;
nodes = (
(148,0,l),
(148,0,l),
(148,30,o),
(148,75,o),
(148,200,c),
(148,245,l),
(148,338,o),
(201,400,o),
(285,400,cs),
(352,400,o),
(400,360,o),
(400,266,cs),
(400,200,l),
(400,75,o),
(400,30,o),
(400,0,c),
(400,0,l),
(488,0,l),
(488,0,l),
(488,30,o),
(488,75,o),
(488,200,c),
(488,298,ls),
(488,420,o),
(406,481,o),
(311,481,cs),
(257,481,o),
(190,461,o),
(148,388,c),
(148,750,l),
(148,750,l),
(60,750,l),
(60,750,l),
(60,720,o),
(60,675,o),
(60,550,c),
(60,200,l),
(60,75,o),
(60,30,o),
(60,0,c),
(60,0,l)
);
}
);
width = 548;
},
{
anchors = (
{
name = bottom;
pos = (330,0);
},
{
name = center;
pos = (330,390);
},
{
name = top;
pos = (330,780);
}
);
layerId = "C8CD87A0-2407-4F05-BADA-4D8336545B60";
metricLeft = "=n";
metricRight = "=n";
shapes = (
{
closed = 1;
nodes = (
(270,0,l),
(270,0,l),
(270,32,o),
(270,75,o),
(270,149,c),
(270,216,l),
(270,268,o),
(290,309,o),
(332,309,cs),
(374,309,o),
(389,268,o),
(389,216,cs),
(389,149,l),
(389,75,o),
(389,32,o),
(389,0,c),
(389,0,l),
(619,0,l),
(619,0,l),
(619,32,o),
(619,68,o),
(619,200,c),
(619,278,ls),
(619,411,o),
(565,510,o),
(439,510,cs),
(365,510,o),
(312,475,o),
(270,417,c),
(270,750,l),
(270,750,l),
(40,750,l),
(40,750,l),
(40,720,o),
(40,675,o),
(40,550,c),
(40,200,l),
(40,75,o),
(40,30,o),
(40,0,c),
(40,0,l)
);
}
);
width = 659;
},
{
anchors = (
{
name = bottom;
pos = (274,0);
},
{
name = center;
pos = (274,390);
},
{
name = top;
pos = (274,780);
}
);
layerId = "48DAC09D-95D4-4D70-8D14-87ABECD8575B";
metricLeft = "=n";
metricRight = "=n";
shapes = (
{
closed = 1;
nodes = (
(91,0,l),
(91,0,l),
(91,10,o),
(91,30,o),
(91,60,c),
(91,261,l),
(91,311,o),
(150,466,o),
(290,466,cs),
(383,466,o),
(456,399,o),
(456,270,cs),
(456,60,l),
(456,30,o),
(456,10,o),
(456,0,c),
(456,0,l),
(472,0,l),
(472,0,l),
(472,10,o),
(472,30,o),
(472,60,c),
(472,273,ls),
(472,403,o),
(399,481,o),
(291,481,cs),
(191,481,o),
(125,414,o),
(91,317,c),
(91,750,l),
(91,750,l),
(75,750,l),
(75,750,l),
(75,720,o),
(75,700,o),
(75,650,c),
(75,60,l),
(75,30,o),
(75,10,o),
(75,0,c),
(75,0,l)
);
}
);
width = 547;
}
);
unicode = 104;
},
{
glyphname = i;
lastChange = "2025-08-15 18:01:06 +0000";
layers = (
{
layerId = m01;
metricLeft = "=n";
metricRight = "=n";
shapes = (
{
ref = idotless;
},
{
pos = (88,0);
ref = dotaccentcomb;
}
);
width = 265;
},
{
background = {
shapes = (
{
closed = 1;
nodes = (
(260,510,l),
(310,470,l),
(310,211,l),
(310,165,o),
(330,148,o),
(365,132,c),
(349,0,l),
(15,0,l),
(15,135,l),
(65,153,o),
(75,175,o),
(75,220,c),
(75,238,l),
(75,279,o),
(60,312,o),
(15,320,c),
(31,454,l)
);
},
{
closed = 1;
nodes = (
(116,533,o),
(62,587,o),
(62,650,cs),
(62,722,o),
(113,769,o),
(182,769,cs),
(262,769,o),
(316,715,o),
(316,650,cs),
(316,575,o),
(267,533,o),
(204,533,cs)
);
}
);
};
layerId = "C36E42DF-D6E4-4FAF-B5BA-99700BA29EB5";
metricLeft = "=n";
metricRight = "=n";
shapes = (
{
ref = idotless;
},
{
pos = (62,0);
ref = dotaccentcomb;
}
);
width = 375;
},
{
layerId = "9E464B93-4987-4E25-B327-76BD95426741";
metricLeft = "=n";
metricRight = "=n";
shapes = (
{
ref = idotless;
},
{
pos = (135,0);
ref = dotaccentcomb;
}
);
width = 271;
},
{
layerId = "BABFB3A0-9CFA-45ED-BD0F-DD711F12EEFF";
metricLeft = "=n-20";
metricRight = "=n-20";
shapes = (
{
ref = idotless;
},
{
pos = (48,0);
ref = dotaccentcomb;
}
);
width = 208;
},
{
layerId = "C8CD87A0-2407-4F05-BADA-4D8336545B60";
metricLeft = "=n-5";
metricRight = "=n-5";
shapes = (
{
ref = idotless;
},
{
pos = (35,0);
ref = dotaccentcomb;
}
);
width = 320;
},
{
layerId = "48DAC09D-95D4-4D70-8D14-87ABECD8575B";
metricLeft = "=n-5";
metricRight = "=n-5";
shapes = (
{
ref = idotless;
},
{
pos = (84,0);
ref = dotaccentcomb;
}
);
width = 176;
}
);
unicode = 105;
},
